<svg xmlns="http://www.w3.org/2000/svg" xmlns:xlink="http://www.w3.org/1999/xlink" width="1080" zoomAndPan="magnify" viewBox="0 0 810 809.999993" height="1080" preserveAspectRatio="xMidYMid meet" version="1.0"><defs><clipPath id="e9484289ae"><path d="M 356 248.46875 L 454 248.46875 L 454 475 L 356 475 Z M 356 248.46875 " clip-rule="nonzero"/></clipPath></defs><path fill="#ffd54f" d="M 564.585938 381.535156 L 554.578125 343.847656 C 554.390625 343.332031 554.125 342.855469 553.789062 342.417969 C 553.453125 341.980469 553.058594 341.605469 552.605469 341.289062 C 552.152344 340.976562 551.664062 340.734375 551.140625 340.570312 C 550.613281 340.402344 550.074219 340.320312 549.523438 340.320312 L 259.042969 340.320312 C 258.484375 340.320312 257.941406 340.40625 257.410156 340.574219 C 256.875 340.746094 256.382812 340.992188 255.929688 341.3125 C 255.472656 341.636719 255.078125 342.023438 254.742188 342.46875 C 254.40625 342.914062 254.144531 343.398438 253.960938 343.925781 L 245.84375 380.527344 L 382.957031 481.5 C 384.546875 482.660156 386.21875 483.6875 387.972656 484.582031 C 389.726562 485.480469 391.539062 486.234375 393.410156 486.847656 C 395.285156 487.460938 397.191406 487.921875 399.136719 488.234375 C 401.082031 488.550781 403.039062 488.707031 405.007812 488.714844 C 406.976562 488.71875 408.9375 488.570312 410.882812 488.269531 C 412.828125 487.96875 414.742188 487.515625 416.617188 486.914062 C 418.492188 486.3125 420.308594 485.566406 422.066406 484.679688 C 423.824219 483.792969 425.503906 482.777344 427.101562 481.625 Z M 564.585938 381.535156 " fill-opacity="1" fill-rule="nonzero"/><g clip-path="url(#e9484289ae)"><path fill="#8bc34a" d="M 449.207031 313.3125 C 449.785156 313.203125 450.328125 313 450.835938 312.707031 C 451.347656 312.410156 451.792969 312.042969 452.175781 311.597656 C 452.5625 311.152344 452.859375 310.65625 453.078125 310.109375 C 453.292969 309.5625 453.414062 308.996094 453.4375 308.410156 L 453.4375 265.046875 C 453.4375 264.515625 453.414062 263.988281 453.359375 263.464844 C 453.308594 262.9375 453.230469 262.417969 453.128906 261.898438 C 453.023438 261.378906 452.898438 260.867188 452.742188 260.363281 C 452.589844 259.855469 452.410156 259.359375 452.210938 258.871094 C 452.007812 258.382812 451.78125 257.90625 451.53125 257.441406 C 451.28125 256.976562 451.011719 256.523438 450.71875 256.082031 C 450.421875 255.644531 450.109375 255.21875 449.773438 254.8125 C 449.4375 254.402344 449.082031 254.011719 448.710938 253.640625 C 448.335938 253.265625 447.945312 252.910156 447.535156 252.574219 C 447.125 252.242188 446.703125 251.925781 446.261719 251.632812 C 445.824219 251.339844 445.371094 251.070312 444.902344 250.820312 C 444.4375 250.570312 443.960938 250.34375 443.472656 250.140625 C 442.984375 249.941406 442.484375 249.761719 441.980469 249.609375 C 441.472656 249.457031 440.960938 249.328125 440.441406 249.226562 C 439.921875 249.121094 439.402344 249.042969 438.875 248.992188 C 438.347656 248.941406 437.820312 248.914062 437.292969 248.914062 L 372.707031 248.914062 C 372.179688 248.914062 371.652344 248.941406 371.125 248.992188 C 370.597656 249.042969 370.078125 249.121094 369.558594 249.226562 C 369.039062 249.328125 368.527344 249.457031 368.019531 249.609375 C 367.515625 249.761719 367.015625 249.941406 366.527344 250.140625 C 366.039062 250.34375 365.5625 250.570312 365.097656 250.820312 C 364.628906 251.070312 364.175781 251.339844 363.738281 251.632812 C 363.296875 251.925781 362.875 252.242188 362.464844 252.574219 C 362.054688 252.910156 361.664062 253.265625 361.289062 253.640625 C 360.917969 254.011719 360.5625 254.402344 360.226562 254.8125 C 359.890625 255.21875 359.578125 255.644531 359.28125 256.082031 C 358.988281 256.523438 358.71875 256.976562 358.46875 257.441406 C 358.21875 257.90625 357.992188 258.382812 357.789062 258.871094 C 357.589844 259.359375 357.410156 259.855469 357.257812 260.363281 C 357.101562 260.867188 356.976562 261.378906 356.871094 261.898438 C 356.769531 262.417969 356.691406 262.9375 356.640625 263.464844 C 356.585938 263.988281 356.5625 264.515625 356.5625 265.046875 L 356.5625 308.058594 C 356.566406 308.660156 356.671875 309.246094 356.871094 309.816406 C 357.070312 310.382812 357.355469 310.902344 357.730469 311.375 C 358.101562 311.847656 358.542969 312.25 359.046875 312.578125 C 359.554688 312.902344 360.097656 313.140625 360.683594 313.289062 C 361.300781 313.4375 361.878906 313.6875 362.414062 314.03125 C 362.949219 314.378906 363.414062 314.800781 363.804688 315.300781 C 364.199219 315.800781 364.5 316.351562 364.707031 316.953125 C 364.917969 317.554688 365.019531 318.171875 365.019531 318.808594 C 365.023438 319.445312 364.917969 320.0625 364.710938 320.664062 C 364.503906 321.265625 364.203125 321.816406 363.8125 322.320312 C 363.417969 322.820312 362.957031 323.242188 362.421875 323.589844 C 361.886719 323.933594 361.308594 324.183594 360.691406 324.335938 C 360.105469 324.484375 359.5625 324.71875 359.054688 325.046875 C 358.546875 325.375 358.109375 325.773438 357.734375 326.25 C 357.359375 326.722656 357.074219 327.242188 356.871094 327.808594 C 356.671875 328.378906 356.566406 328.964844 356.5625 329.566406 L 356.5625 474.742188 L 453.4375 474.742188 L 453.4375 329.566406 C 453.4375 328.964844 453.339844 328.382812 453.144531 327.8125 C 452.945312 327.246094 452.664062 326.722656 452.292969 326.25 C 451.921875 325.777344 451.484375 325.378906 450.976562 325.050781 C 450.472656 324.726562 449.929688 324.488281 449.34375 324.34375 C 448.726562 324.199219 448.144531 323.960938 447.609375 323.621094 C 447.070312 323.285156 446.601562 322.867188 446.203125 322.371094 C 445.804688 321.875 445.5 321.328125 445.285156 320.730469 C 445.070312 320.132812 444.957031 319.519531 444.949219 318.882812 C 444.941406 318.246094 445.039062 317.628906 445.238281 317.023438 C 445.4375 316.421875 445.730469 315.867188 446.117188 315.363281 C 446.503906 314.859375 446.960938 314.429688 447.488281 314.078125 C 448.019531 313.726562 448.59375 313.472656 449.207031 313.3125 Z M 449.207031 313.3125 " fill-opacity="1" fill-rule="nonzero"/></g><path fill="#689f38" d="M 439.851562 345.457031 C 439.5 345.460938 439.148438 345.425781 438.800781 345.359375 C 438.453125 345.292969 438.117188 345.191406 437.789062 345.054688 C 437.464844 344.921875 437.152344 344.757812 436.859375 344.5625 C 436.5625 344.367188 436.292969 344.144531 436.039062 343.898438 C 435.789062 343.648438 435.566406 343.378906 435.367188 343.085938 C 435.171875 342.792969 435.003906 342.480469 434.867188 342.15625 C 434.730469 341.832031 434.628906 341.496094 434.558594 341.148438 C 434.488281 340.800781 434.453125 340.453125 434.453125 340.101562 C 434.449219 339.746094 434.484375 339.398438 434.550781 339.050781 C 434.617188 338.703125 434.71875 338.367188 434.855469 338.042969 C 434.988281 337.714844 435.152344 337.402344 435.347656 337.109375 C 435.542969 336.816406 435.765625 336.542969 436.015625 336.292969 C 436.265625 336.042969 436.535156 335.820312 436.828125 335.621094 C 437.121094 335.425781 437.429688 335.257812 437.757812 335.121094 C 438.082031 334.984375 438.417969 334.882812 438.765625 334.8125 C 439.113281 334.742188 439.460938 334.707031 439.816406 334.703125 L 447.886719 334.648438 L 447.925781 334.648438 C 450.878906 334.648438 450.9375 345.382812 447.960938 345.402344 L 439.890625 345.457031 Z M 439.851562 345.457031 " fill-opacity="1" fill-rule="nonzero"/><path fill="#689f38" d="M 383.902344 345.859375 C 383.554688 345.847656 383.214844 345.808594 382.875 345.730469 C 382.539062 345.65625 382.210938 345.550781 381.890625 345.410156 C 381.574219 345.273438 381.273438 345.105469 380.988281 344.910156 C 380.703125 344.714844 380.4375 344.492188 380.195312 344.246094 C 379.953125 343.996094 379.734375 343.730469 379.546875 343.441406 C 379.355469 343.152344 379.195312 342.847656 379.0625 342.527344 C 378.929688 342.207031 378.828125 341.875 378.761719 341.539062 C 378.695312 341.199219 378.660156 340.855469 378.65625 340.507812 C 378.65625 340.164062 378.6875 339.820312 378.75 339.480469 C 378.816406 339.140625 378.910156 338.808594 379.039062 338.488281 C 379.167969 338.164062 379.328125 337.859375 379.515625 337.566406 C 379.703125 337.277344 379.914062 337.007812 380.15625 336.757812 C 380.394531 336.507812 380.65625 336.28125 380.941406 336.082031 C 381.222656 335.882812 381.523438 335.710938 381.839844 335.570312 C 382.15625 335.429688 382.480469 335.320312 382.820312 335.242188 C 383.15625 335.164062 383.5 335.117188 383.84375 335.105469 L 397.839844 334.996094 C 398.1875 335.003906 398.53125 335.046875 398.867188 335.121094 C 399.207031 335.195312 399.535156 335.304688 399.855469 335.441406 C 400.171875 335.578125 400.472656 335.746094 400.757812 335.945312 C 401.042969 336.140625 401.308594 336.363281 401.550781 336.609375 C 401.792969 336.855469 402.011719 337.125 402.199219 337.414062 C 402.390625 337.703125 402.554688 338.007812 402.683594 338.328125 C 402.816406 338.648438 402.917969 338.980469 402.984375 339.320312 C 403.050781 339.660156 403.085938 340 403.089844 340.347656 C 403.089844 340.695312 403.058594 341.039062 402.996094 341.378906 C 402.929688 341.71875 402.832031 342.050781 402.703125 342.371094 C 402.574219 342.691406 402.417969 343 402.230469 343.289062 C 402.042969 343.582031 401.828125 343.851562 401.585938 344.101562 C 401.347656 344.351562 401.085938 344.574219 400.800781 344.773438 C 400.519531 344.972656 400.21875 345.144531 399.902344 345.285156 C 399.585938 345.425781 399.257812 345.535156 398.921875 345.613281 C 398.582031 345.691406 398.242188 345.738281 397.894531 345.75 Z M 411.890625 345.640625 C 411.542969 345.636719 411.199219 345.59375 410.859375 345.523438 C 410.519531 345.449219 410.1875 345.34375 409.871094 345.207031 C 409.550781 345.070312 409.246094 344.902344 408.960938 344.707031 C 408.671875 344.511719 408.40625 344.289062 408.164062 344.039062 C 407.917969 343.792969 407.699219 343.523438 407.507812 343.234375 C 407.316406 342.945312 407.152344 342.640625 407.019531 342.320312 C 406.886719 341.996094 406.789062 341.667969 406.71875 341.324219 C 406.648438 340.984375 406.613281 340.640625 406.613281 340.292969 C 406.609375 339.945312 406.644531 339.601562 406.707031 339.261719 C 406.773438 338.917969 406.871094 338.585938 407 338.265625 C 407.128906 337.941406 407.289062 337.636719 407.476562 337.34375 C 407.664062 337.050781 407.878906 336.78125 408.121094 336.53125 C 408.363281 336.28125 408.628906 336.054688 408.910156 335.855469 C 409.195312 335.65625 409.5 335.488281 409.816406 335.347656 C 410.132812 335.207031 410.464844 335.097656 410.800781 335.019531 C 411.140625 334.941406 411.484375 334.898438 411.832031 334.890625 L 425.828125 334.78125 C 426.175781 334.789062 426.519531 334.828125 426.859375 334.902344 C 427.199219 334.976562 427.53125 335.082031 427.847656 335.21875 C 428.167969 335.355469 428.472656 335.523438 428.757812 335.71875 C 429.046875 335.917969 429.3125 336.136719 429.554688 336.386719 C 429.796875 336.632812 430.015625 336.902344 430.207031 337.191406 C 430.398438 337.480469 430.5625 337.785156 430.695312 338.109375 C 430.828125 338.429688 430.925781 338.761719 430.996094 339.101562 C 431.066406 339.441406 431.097656 339.785156 431.101562 340.132812 C 431.101562 340.480469 431.070312 340.824219 431.007812 341.164062 C 430.941406 341.507812 430.84375 341.839844 430.714844 342.160156 C 430.585938 342.484375 430.425781 342.789062 430.238281 343.082031 C 430.046875 343.375 429.832031 343.644531 429.589844 343.894531 C 429.351562 344.144531 429.085938 344.367188 428.800781 344.566406 C 428.515625 344.765625 428.214844 344.9375 427.898438 345.078125 C 427.578125 345.21875 427.25 345.328125 426.910156 345.402344 C 426.574219 345.480469 426.230469 345.523438 425.882812 345.535156 Z M 411.890625 345.640625 " fill-opacity="1" fill-rule="nonzero"/><path fill="#689f38" d="M 369.890625 335.183594 L 369.855469 335.183594 L 361.78125 335.242188 C 361.433594 335.253906 361.089844 335.296875 360.753906 335.375 C 360.414062 335.453125 360.085938 335.5625 359.769531 335.703125 C 359.453125 335.847656 359.152344 336.015625 358.867188 336.21875 C 358.582031 336.417969 358.320312 336.640625 358.082031 336.890625 C 357.839844 337.140625 357.625 337.414062 357.4375 337.703125 C 357.25 337.996094 357.089844 338.304688 356.964844 338.625 C 356.835938 338.949219 356.738281 339.28125 356.671875 339.621094 C 356.609375 339.960938 356.578125 340.304688 356.582031 340.652344 C 356.582031 341 356.617188 341.34375 356.6875 341.683594 C 356.757812 342.023438 356.859375 342.355469 356.992188 342.675781 C 357.125 342.996094 357.285156 343.300781 357.476562 343.589844 C 357.671875 343.878906 357.886719 344.148438 358.132812 344.394531 C 358.375 344.640625 358.640625 344.863281 358.929688 345.058594 C 359.214844 345.253906 359.515625 345.421875 359.835938 345.558594 C 360.15625 345.695312 360.484375 345.800781 360.824219 345.875 C 361.164062 345.945312 361.507812 345.988281 361.855469 345.996094 L 369.925781 345.9375 C 370.273438 345.925781 370.617188 345.882812 370.953125 345.804688 C 371.292969 345.726562 371.617188 345.617188 371.933594 345.476562 C 372.25 345.335938 372.550781 345.164062 372.835938 344.964844 C 373.117188 344.769531 373.382812 344.542969 373.621094 344.292969 C 373.863281 344.046875 374.078125 343.773438 374.265625 343.484375 C 374.453125 343.195312 374.613281 342.886719 374.742188 342.566406 C 374.871094 342.246094 374.964844 341.914062 375.03125 341.574219 C 375.097656 341.234375 375.128906 340.890625 375.128906 340.542969 C 375.125 340.199219 375.09375 339.855469 375.023438 339.515625 C 374.957031 339.175781 374.859375 338.847656 374.726562 338.527344 C 374.59375 338.203125 374.433594 337.898438 374.246094 337.609375 C 374.054688 337.320312 373.839844 337.050781 373.597656 336.804688 C 373.355469 336.558594 373.089844 336.335938 372.804688 336.136719 C 372.519531 335.941406 372.21875 335.773438 371.902344 335.632812 C 371.582031 335.496094 371.253906 335.386719 370.917969 335.3125 C 370.578125 335.238281 370.238281 335.195312 369.890625 335.183594 Z M 369.890625 335.183594 " fill-opacity="1" fill-rule="nonzero"/><path fill="#eeeeee" d="M 399.617188 270.457031 L 399.800781 297.34375 C 399.8125 297.691406 399.855469 298.035156 399.929688 298.375 C 400.007812 298.714844 400.113281 299.046875 400.253906 299.367188 C 400.394531 299.683594 400.566406 299.988281 400.765625 300.273438 C 400.964844 300.558594 401.1875 300.824219 401.441406 301.066406 C 401.691406 301.308594 401.960938 301.527344 402.253906 301.714844 C 402.546875 301.90625 402.855469 302.066406 403.179688 302.195312 C 403.503906 302.324219 403.839844 302.421875 404.183594 302.488281 C 404.523438 302.550781 404.871094 302.582031 405.21875 302.582031 C 405.570312 302.578125 405.914062 302.542969 406.257812 302.472656 C 406.597656 302.402344 406.929688 302.300781 407.253906 302.167969 C 407.574219 302.03125 407.882812 301.867188 408.171875 301.675781 C 408.460938 301.480469 408.730469 301.261719 408.980469 301.015625 C 409.226562 300.769531 409.449219 300.503906 409.644531 300.214844 C 409.839844 299.925781 410.003906 299.621094 410.140625 299.296875 C 410.277344 298.976562 410.378906 298.644531 410.453125 298.304688 C 410.523438 297.964844 410.5625 297.617188 410.566406 297.269531 L 410.382812 270.386719 C 410.375 270.035156 410.332031 269.691406 410.257812 269.347656 C 410.183594 269.007812 410.074219 268.675781 409.9375 268.355469 C 409.796875 268.035156 409.628906 267.730469 409.429688 267.441406 C 409.230469 267.152344 409.003906 266.886719 408.753906 266.644531 C 408.5 266.402344 408.230469 266.183594 407.9375 265.992188 C 407.640625 265.800781 407.332031 265.640625 407.007812 265.511719 C 406.683594 265.378906 406.347656 265.28125 406.003906 265.21875 C 405.660156 265.152344 405.3125 265.121094 404.964844 265.121094 C 404.613281 265.125 404.265625 265.160156 403.925781 265.230469 C 403.582031 265.300781 403.246094 265.402344 402.925781 265.539062 C 402.601562 265.671875 402.292969 265.839844 402.003906 266.035156 C 401.714844 266.226562 401.445312 266.449219 401.195312 266.695312 C 400.949219 266.945312 400.726562 267.210938 400.53125 267.503906 C 400.335938 267.792969 400.171875 268.097656 400.035156 268.421875 C 399.902344 268.746094 399.796875 269.078125 399.726562 269.421875 C 399.65625 269.761719 399.621094 270.109375 399.617188 270.457031 Z M 399.617188 270.457031 " fill-opacity="1" fill-rule="nonzero"/><path fill="#eeeeee" d="M 431.910156 270.386719 C 431.902344 270.035156 431.863281 269.691406 431.785156 269.347656 C 431.710938 269.007812 431.605469 268.675781 431.464844 268.355469 C 431.324219 268.035156 431.15625 267.730469 430.957031 267.441406 C 430.757812 267.152344 430.53125 266.886719 430.28125 266.644531 C 430.03125 266.402344 429.757812 266.183594 429.464844 265.992188 C 429.171875 265.800781 428.859375 265.640625 428.535156 265.511719 C 428.210938 265.378906 427.878906 265.28125 427.53125 265.21875 C 427.1875 265.152344 426.84375 265.121094 426.492188 265.121094 C 426.140625 265.125 425.796875 265.160156 425.453125 265.230469 C 425.109375 265.300781 424.777344 265.402344 424.453125 265.539062 C 424.128906 265.671875 423.824219 265.839844 423.53125 266.035156 C 423.242188 266.226562 422.972656 266.449219 422.722656 266.695312 C 422.476562 266.945312 422.253906 267.210938 422.058594 267.503906 C 421.863281 267.792969 421.699219 268.097656 421.5625 268.421875 C 421.429688 268.746094 421.324219 269.078125 421.253906 269.421875 C 421.183594 269.761719 421.148438 270.109375 421.144531 270.457031 L 421.332031 297.34375 C 421.339844 297.691406 421.382812 298.035156 421.457031 298.375 C 421.535156 298.714844 421.644531 299.046875 421.78125 299.367188 C 421.921875 299.683594 422.09375 299.988281 422.292969 300.273438 C 422.492188 300.558594 422.71875 300.824219 422.96875 301.066406 C 423.21875 301.308594 423.492188 301.527344 423.785156 301.714844 C 424.078125 301.90625 424.386719 302.066406 424.710938 302.195312 C 425.035156 302.324219 425.367188 302.421875 425.710938 302.488281 C 426.054688 302.550781 426.398438 302.582031 426.75 302.578125 C 427.097656 302.578125 427.441406 302.542969 427.785156 302.472656 C 428.128906 302.402344 428.460938 302.300781 428.78125 302.167969 C 429.105469 302.03125 429.410156 301.867188 429.699219 301.675781 C 429.992188 301.480469 430.257812 301.261719 430.507812 301.015625 C 430.753906 300.769531 430.976562 300.503906 431.171875 300.214844 C 431.367188 299.925781 431.53125 299.621094 431.667969 299.296875 C 431.804688 298.976562 431.910156 298.644531 431.980469 298.304688 C 432.050781 297.964844 432.089844 297.617188 432.09375 297.269531 Z M 431.910156 270.386719 " fill-opacity="1" fill-rule="nonzero"/><path fill="#eeeeee" d="M 378.089844 270.457031 L 378.273438 297.34375 C 378.28125 297.691406 378.324219 298.035156 378.402344 298.375 C 378.476562 298.714844 378.585938 299.046875 378.726562 299.367188 C 378.867188 299.683594 379.035156 299.988281 379.238281 300.273438 C 379.4375 300.558594 379.660156 300.824219 379.910156 301.066406 C 380.164062 301.308594 380.433594 301.527344 380.726562 301.714844 C 381.019531 301.90625 381.328125 302.066406 381.652344 302.195312 C 381.976562 302.324219 382.3125 302.421875 382.652344 302.488281 C 382.996094 302.550781 383.34375 302.582031 383.691406 302.578125 C 384.039062 302.578125 384.386719 302.542969 384.730469 302.472656 C 385.070312 302.402344 385.402344 302.300781 385.726562 302.167969 C 386.046875 302.03125 386.355469 301.867188 386.644531 301.675781 C 386.933594 301.480469 387.203125 301.261719 387.449219 301.015625 C 387.699219 300.769531 387.917969 300.503906 388.117188 300.214844 C 388.3125 299.925781 388.476562 299.621094 388.613281 299.296875 C 388.75 298.976562 388.851562 298.644531 388.925781 298.304688 C 388.996094 297.964844 389.035156 297.617188 389.039062 297.269531 L 388.855469 270.386719 C 388.847656 270.035156 388.804688 269.691406 388.730469 269.347656 C 388.65625 269.007812 388.546875 268.675781 388.40625 268.355469 C 388.269531 268.035156 388.097656 267.730469 387.898438 267.441406 C 387.699219 267.152344 387.476562 266.886719 387.222656 266.644531 C 386.972656 266.402344 386.699219 266.183594 386.40625 265.992188 C 386.113281 265.800781 385.804688 265.640625 385.480469 265.511719 C 385.15625 265.378906 384.820312 265.28125 384.476562 265.21875 C 384.132812 265.152344 383.785156 265.121094 383.433594 265.121094 C 383.085938 265.125 382.738281 265.160156 382.394531 265.230469 C 382.050781 265.300781 381.71875 265.402344 381.398438 265.539062 C 381.074219 265.671875 380.765625 265.839844 380.476562 266.035156 C 380.183594 266.226562 379.914062 266.449219 379.667969 266.695312 C 379.421875 266.945312 379.199219 267.210938 379.003906 267.503906 C 378.808594 267.792969 378.644531 268.097656 378.507812 268.421875 C 378.371094 268.746094 378.269531 269.078125 378.199219 269.421875 C 378.128906 269.761719 378.09375 270.109375 378.089844 270.457031 Z M 378.089844 270.457031 " fill-opacity="1" fill-rule="nonzero"/><path fill="#000000" d="M 456.234375 343.277344 C 455.921875 343.125 455.59375 343.007812 455.257812 342.917969 C 454.917969 342.828125 454.578125 342.773438 454.226562 342.75 C 453.878906 342.726562 453.53125 342.734375 453.1875 342.777344 C 452.839844 342.820312 452.5 342.894531 452.167969 343 C 451.835938 343.109375 451.515625 343.246094 451.210938 343.410156 C 450.90625 343.578125 450.617188 343.773438 450.347656 343.996094 C 450.078125 344.214844 449.832031 344.460938 449.609375 344.730469 C 449.386719 344.996094 449.191406 345.285156 449.023438 345.589844 C 448.605469 346.363281 448.40625 347.1875 448.429688 348.0625 C 448.421875 348.558594 448.480469 349.046875 448.609375 349.523438 C 448.738281 350 448.929688 350.453125 449.1875 350.875 C 449.445312 351.300781 449.757812 351.679688 450.121094 352.015625 C 450.488281 352.347656 450.890625 352.625 451.335938 352.847656 C 452.097656 353.238281 452.902344 353.433594 453.757812 353.441406 C 454.117188 353.453125 454.46875 353.425781 454.820312 353.367188 C 455.171875 353.304688 455.511719 353.207031 455.84375 353.078125 C 456.175781 352.945312 456.492188 352.78125 456.789062 352.585938 C 457.085938 352.390625 457.363281 352.167969 457.613281 351.914062 C 457.867188 351.664062 458.089844 351.390625 458.289062 351.089844 C 458.484375 350.792969 458.644531 350.480469 458.777344 350.148438 C 458.910156 349.816406 459.003906 349.476562 459.066406 349.125 C 459.128906 348.773438 459.152344 348.417969 459.140625 348.0625 C 459.152344 347.566406 459.097656 347.078125 458.96875 346.597656 C 458.839844 346.121094 458.648438 345.667969 458.390625 345.242188 C 458.132812 344.820312 457.820312 344.441406 457.453125 344.105469 C 457.085938 343.769531 456.679688 343.496094 456.234375 343.277344 Z M 456.234375 343.277344 " fill-opacity="1" fill-rule="nonzero"/><path fill="#ff3c38" d="M 337.078125 491.355469 L 277.121094 377.097656 C 276.832031 376.570312 276.640625 376.007812 276.542969 375.414062 C 276.449219 374.820312 276.453125 374.226562 276.5625 373.636719 C 276.667969 373.042969 276.871094 372.488281 277.171875 371.964844 C 277.472656 371.441406 277.851562 370.984375 278.304688 370.59375 C 278.792969 370.171875 279.195312 369.683594 279.519531 369.128906 C 279.839844 368.574219 280.058594 367.980469 280.179688 367.347656 C 280.296875 366.71875 280.308594 366.085938 280.214844 365.449219 C 280.121094 364.8125 279.921875 364.210938 279.621094 363.644531 C 279.320312 363.078125 278.9375 362.574219 278.464844 362.136719 C 277.996094 361.699219 277.464844 361.351562 276.878906 361.09375 C 276.289062 360.835938 275.671875 360.683594 275.03125 360.632812 C 274.390625 360.585938 273.761719 360.640625 273.140625 360.804688 C 272.554688 360.945312 271.964844 360.984375 271.367188 360.929688 C 270.773438 360.871094 270.199219 360.71875 269.652344 360.46875 C 269.109375 360.222656 268.617188 359.890625 268.183594 359.480469 C 267.746094 359.066406 267.390625 358.59375 267.113281 358.0625 L 247.089844 319.941406 C 246.847656 319.476562 246.625 318.996094 246.425781 318.507812 C 246.230469 318.015625 246.054688 317.519531 245.90625 317.011719 C 245.757812 316.507812 245.636719 315.992188 245.535156 315.476562 C 245.4375 314.957031 245.363281 314.433594 245.316406 313.910156 C 245.269531 313.382812 245.25 312.855469 245.253906 312.328125 C 245.257812 311.800781 245.285156 311.273438 245.34375 310.75 C 245.398438 310.226562 245.480469 309.703125 245.585938 309.1875 C 245.695312 308.671875 245.824219 308.160156 245.984375 307.65625 C 246.140625 307.152344 246.320312 306.65625 246.527344 306.171875 C 246.730469 305.683594 246.960938 305.210938 247.210938 304.746094 C 247.464844 304.28125 247.738281 303.832031 248.035156 303.394531 C 248.332031 302.957031 248.648438 302.535156 248.984375 302.128906 C 249.324219 301.722656 249.679688 301.335938 250.054688 300.964844 C 250.429688 300.59375 250.824219 300.242188 251.234375 299.910156 C 251.644531 299.574219 252.070312 299.265625 252.511719 298.972656 C 252.949219 298.683594 253.40625 298.414062 253.871094 298.167969 L 311.082031 268.21875 C 312.023438 267.730469 313 267.339844 314.015625 267.042969 C 315.03125 266.75 316.066406 266.554688 317.121094 266.460938 C 318.175781 266.367188 319.230469 266.375 320.28125 266.488281 C 321.332031 266.601562 322.363281 266.816406 323.375 267.128906 C 324.386719 267.441406 325.355469 267.851562 326.285156 268.355469 C 327.21875 268.859375 328.089844 269.449219 328.90625 270.121094 C 329.71875 270.796875 330.460938 271.542969 331.132812 272.363281 C 331.800781 273.183594 332.382812 274.058594 332.878906 274.992188 L 352.902344 313.113281 C 353.175781 313.644531 353.355469 314.207031 353.445312 314.796875 C 353.53125 315.390625 353.523438 315.980469 353.417969 316.566406 C 353.308594 317.15625 353.109375 317.710938 352.820312 318.234375 C 352.527344 318.757812 352.160156 319.21875 351.71875 319.621094 C 351.234375 320.039062 350.832031 320.523438 350.511719 321.074219 C 350.191406 321.628906 349.96875 322.21875 349.847656 322.847656 C 349.730469 323.476562 349.714844 324.105469 349.808594 324.738281 C 349.902344 325.371094 350.097656 325.96875 350.390625 326.535156 C 350.6875 327.105469 351.070312 327.605469 351.535156 328.042969 C 352 328.480469 352.527344 328.832031 353.113281 329.089844 C 353.695312 329.351562 354.308594 329.507812 354.945312 329.5625 C 355.582031 329.617188 356.210938 329.5625 356.832031 329.40625 C 357.417969 329.261719 358.011719 329.21875 358.613281 329.277344 C 359.214844 329.332031 359.792969 329.484375 360.34375 329.730469 C 360.894531 329.980469 361.390625 330.3125 361.828125 330.726562 C 362.269531 331.140625 362.632812 331.613281 362.914062 332.148438 L 422.921875 446.40625 C 427.011719 454.308594 341.277344 499.3125 337.078125 491.355469 Z M 337.078125 491.355469 " fill-opacity="1" fill-rule="nonzero"/><path fill="#e52828" d="M 291.546875 375.324219 L 279.4375 381.5625 L 284.441406 391.078125 L 296.496094 384.894531 C 296.800781 384.726562 297.085938 384.53125 297.355469 384.308594 C 297.621094 384.085938 297.863281 383.835938 298.082031 383.566406 C 298.300781 383.296875 298.492188 383.007812 298.65625 382.703125 C 298.820312 382.394531 298.949219 382.074219 299.050781 381.742188 C 299.152344 381.410156 299.21875 381.070312 299.253906 380.722656 C 299.292969 380.378906 299.292969 380.03125 299.261719 379.6875 C 299.230469 379.339844 299.164062 379 299.066406 378.667969 C 298.96875 378.332031 298.839844 378.011719 298.679688 377.703125 C 298.523438 377.394531 298.332031 377.105469 298.117188 376.832031 C 297.902344 376.558594 297.660156 376.308594 297.398438 376.082031 C 297.132812 375.859375 296.847656 375.660156 296.546875 375.488281 C 296.242188 375.316406 295.925781 375.175781 295.597656 375.066406 C 295.265625 374.957031 294.929688 374.878906 294.585938 374.832031 C 294.238281 374.789062 293.894531 374.777344 293.546875 374.800781 C 293.199219 374.820312 292.859375 374.875 292.519531 374.964844 C 292.183594 375.054688 291.859375 375.171875 291.546875 375.324219 Z M 291.546875 375.324219 " fill-opacity="1" fill-rule="nonzero"/><path fill="#e52828" d="M 316.410156 362.527344 L 303.976562 368.925781 C 303.671875 369.09375 303.386719 369.289062 303.121094 369.511719 C 302.855469 369.734375 302.613281 369.984375 302.394531 370.253906 C 302.175781 370.523438 301.988281 370.8125 301.824219 371.117188 C 301.664062 371.425781 301.53125 371.746094 301.429688 372.078125 C 301.332031 372.410156 301.261719 372.746094 301.226562 373.09375 C 301.191406 373.4375 301.191406 373.785156 301.222656 374.128906 C 301.253906 374.476562 301.320312 374.816406 301.417969 375.148438 C 301.515625 375.480469 301.644531 375.800781 301.800781 376.109375 C 301.960938 376.417969 302.148438 376.707031 302.363281 376.980469 C 302.582031 377.253906 302.820312 377.5 303.085938 377.726562 C 303.347656 377.953125 303.632812 378.152344 303.933594 378.324219 C 304.234375 378.496094 304.550781 378.636719 304.878906 378.746094 C 305.210938 378.855469 305.546875 378.933594 305.890625 378.976562 C 306.234375 379.023438 306.582031 379.035156 306.929688 379.015625 C 307.273438 378.992188 307.617188 378.9375 307.953125 378.851562 C 308.289062 378.761719 308.613281 378.644531 308.925781 378.492188 L 321.363281 372.042969 C 321.667969 371.878906 321.957031 371.683594 322.226562 371.460938 C 322.492188 371.238281 322.738281 370.992188 322.960938 370.722656 C 323.179688 370.453125 323.371094 370.167969 323.535156 369.859375 C 323.703125 369.550781 323.835938 369.230469 323.9375 368.898438 C 324.039062 368.566406 324.109375 368.226562 324.144531 367.878906 C 324.179688 367.535156 324.183594 367.1875 324.148438 366.839844 C 324.117188 366.492188 324.054688 366.152344 323.957031 365.820312 C 323.859375 365.484375 323.726562 365.164062 323.566406 364.855469 C 323.40625 364.546875 323.21875 364.253906 323 363.984375 C 322.78125 363.710938 322.542969 363.460938 322.273438 363.238281 C 322.007812 363.011719 321.722656 362.8125 321.417969 362.644531 C 321.117188 362.472656 320.796875 362.335938 320.464844 362.226562 C 320.132812 362.121094 319.796875 362.046875 319.449219 362.003906 C 319.105469 361.960938 318.757812 361.953125 318.410156 361.980469 C 318.0625 362.003906 317.71875 362.0625 317.382812 362.15625 C 317.046875 362.246094 316.722656 362.371094 316.410156 362.527344 Z M 316.410156 362.527344 " fill-opacity="1" fill-rule="nonzero"/><path fill="#000000" d="M 360.972656 345.589844 C 360.804688 345.285156 360.609375 344.996094 360.386719 344.726562 C 360.164062 344.457031 359.917969 344.210938 359.648438 343.992188 C 359.375 343.769531 359.085938 343.578125 358.78125 343.414062 C 358.472656 343.25 358.152344 343.113281 357.816406 343.011719 C 357.484375 342.910156 357.140625 342.839844 356.792969 342.804688 C 356.445312 342.769531 356.097656 342.765625 355.75 342.796875 C 355.402344 342.828125 355.0625 342.890625 354.726562 342.988281 C 354.390625 343.085938 354.066406 343.214844 353.757812 343.375 C 353.449219 343.535156 353.15625 343.726562 352.882812 343.941406 C 352.609375 344.160156 352.359375 344.402344 352.132812 344.667969 C 351.90625 344.933594 351.707031 345.21875 351.535156 345.519531 C 351.363281 345.824219 351.222656 346.144531 351.113281 346.472656 C 351.003906 346.804688 350.929688 347.144531 350.882812 347.492188 C 350.839844 347.835938 350.832031 348.183594 350.855469 348.53125 C 350.878906 348.882812 350.9375 349.222656 351.027344 349.5625 C 351.117188 349.898438 351.242188 350.222656 351.394531 350.535156 C 351.5625 350.84375 351.757812 351.128906 351.980469 351.398438 C 352.203125 351.667969 352.449219 351.914062 352.71875 352.132812 C 352.988281 352.355469 353.277344 352.546875 353.585938 352.710938 C 353.894531 352.878906 354.214844 353.011719 354.550781 353.113281 C 354.882812 353.214844 355.222656 353.285156 355.570312 353.320312 C 355.917969 353.359375 356.265625 353.359375 356.613281 353.328125 C 356.960938 353.296875 357.304688 353.234375 357.640625 353.136719 C 357.976562 353.039062 358.296875 352.910156 358.609375 352.75 C 358.917969 352.589844 359.210938 352.402344 359.484375 352.183594 C 359.757812 351.964844 360.007812 351.726562 360.234375 351.460938 C 360.460938 351.195312 360.660156 350.910156 360.832031 350.605469 C 361.003906 350.300781 361.144531 349.984375 361.253906 349.652344 C 361.363281 349.320312 361.4375 348.980469 361.480469 348.636719 C 361.523438 348.289062 361.535156 347.941406 361.511719 347.59375 C 361.488281 347.246094 361.429688 346.902344 361.339844 346.566406 C 361.246094 346.226562 361.125 345.902344 360.972656 345.589844 Z M 360.972656 345.589844 " fill-opacity="1" fill-rule="nonzero"/><path fill="#e52828" d="M 341.277344 349.675781 L 328.839844 356.128906 C 328.535156 356.292969 328.246094 356.488281 327.976562 356.707031 C 327.707031 356.929688 327.460938 357.175781 327.238281 357.445312 C 327.015625 357.714844 326.824219 358.003906 326.65625 358.308594 C 326.492188 358.617188 326.355469 358.9375 326.253906 359.273438 C 326.152344 359.605469 326.082031 359.945312 326.046875 360.292969 C 326.007812 360.640625 326.007812 360.988281 326.039062 361.335938 C 326.070312 361.683594 326.132812 362.023438 326.230469 362.359375 C 326.332031 362.691406 326.460938 363.015625 326.621094 363.324219 C 326.78125 363.636719 326.972656 363.925781 327.1875 364.199219 C 327.40625 364.472656 327.648438 364.71875 327.917969 364.945312 C 328.183594 365.171875 328.46875 365.367188 328.773438 365.539062 C 329.078125 365.707031 329.398438 365.847656 329.730469 365.953125 C 330.0625 366.0625 330.402344 366.136719 330.75 366.175781 C 331.097656 366.21875 331.445312 366.226562 331.792969 366.199219 C 332.140625 366.171875 332.484375 366.113281 332.820312 366.019531 C 333.15625 365.925781 333.480469 365.800781 333.792969 365.644531 L 346.226562 359.246094 C 346.535156 359.078125 346.820312 358.882812 347.089844 358.660156 C 347.355469 358.4375 347.601562 358.191406 347.820312 357.921875 C 348.042969 357.652344 348.234375 357.363281 348.398438 357.054688 C 348.5625 356.75 348.695312 356.429688 348.796875 356.09375 C 348.898438 355.761719 348.96875 355.421875 349.003906 355.074219 C 349.039062 354.726562 349.042969 354.382812 349.011719 354.035156 C 348.976562 353.6875 348.914062 353.347656 348.816406 353.011719 C 348.71875 352.679688 348.589844 352.355469 348.429688 352.046875 C 348.269531 351.738281 348.082031 351.445312 347.863281 351.171875 C 347.648438 350.898438 347.40625 350.648438 347.140625 350.421875 C 346.878906 350.199219 346.59375 350 346.289062 349.828125 C 345.984375 349.65625 345.667969 349.515625 345.335938 349.40625 C 345.007812 349.296875 344.667969 349.21875 344.320312 349.175781 C 343.976562 349.132812 343.628906 349.121094 343.28125 349.144531 C 342.933594 349.167969 342.589844 349.222656 342.253906 349.3125 C 341.917969 349.402344 341.589844 349.523438 341.277344 349.675781 Z M 341.277344 349.675781 " fill-opacity="1" fill-rule="nonzero"/><path fill="#e52828" d="M 370.664062 346.878906 L 358.660156 352.847656 C 358.347656 352.996094 358.023438 353.117188 357.6875 353.203125 C 357.351562 353.289062 357.007812 353.34375 356.664062 353.363281 C 356.316406 353.386719 355.972656 353.371094 355.628906 353.328125 C 355.285156 353.28125 354.949219 353.203125 354.617188 353.09375 C 354.289062 352.980469 353.972656 352.839844 353.671875 352.671875 C 353.371094 352.5 353.089844 352.300781 352.824219 352.074219 C 352.5625 351.847656 352.324219 351.601562 352.105469 351.328125 C 351.890625 351.058594 351.703125 350.765625 351.546875 350.457031 C 351.386719 350.152344 351.257812 349.832031 351.160156 349.496094 C 351.0625 349.164062 350.996094 348.828125 350.964844 348.480469 C 350.933594 348.136719 350.933594 347.789062 350.96875 347.445312 C 351.003906 347.101562 351.070312 346.761719 351.171875 346.429688 C 351.273438 346.097656 351.402344 345.78125 351.566406 345.472656 C 351.726562 345.167969 351.914062 344.878906 352.132812 344.609375 C 352.351562 344.335938 352.589844 344.089844 352.855469 343.867188 C 353.121094 343.644531 353.40625 343.445312 353.707031 343.277344 L 365.65625 337.417969 Z M 370.664062 346.878906 " fill-opacity="1" fill-rule="nonzero"/><path fill="#eeeeee" d="M 297.28125 299.78125 C 297.113281 299.472656 296.921875 299.183594 296.699219 298.914062 C 296.476562 298.644531 296.230469 298.402344 295.960938 298.179688 C 295.691406 297.957031 295.402344 297.765625 295.09375 297.601562 C 294.785156 297.433594 294.464844 297.300781 294.132812 297.199219 C 293.800781 297.09375 293.457031 297.023438 293.113281 296.988281 C 292.765625 296.953125 292.417969 296.949219 292.070312 296.980469 C 291.722656 297.011719 291.378906 297.074219 291.042969 297.171875 C 290.710938 297.269531 290.386719 297.398438 290.074219 297.558594 C 289.765625 297.714844 289.472656 297.90625 289.199219 298.121094 C 288.925781 298.339844 288.675781 298.578125 288.449219 298.84375 C 288.222656 299.109375 288.023438 299.394531 287.851562 299.699219 C 287.683594 300.003906 287.542969 300.320312 287.433594 300.652344 C 287.324219 300.984375 287.246094 301.320312 287.203125 301.667969 C 287.160156 302.011719 287.148438 302.359375 287.175781 302.707031 C 287.199219 303.054688 287.257812 303.398438 287.347656 303.734375 C 287.4375 304.070312 287.558594 304.398438 287.714844 304.710938 L 300.050781 328.601562 C 300.214844 328.910156 300.410156 329.199219 300.632812 329.46875 C 300.855469 329.738281 301.101562 329.980469 301.371094 330.203125 C 301.640625 330.425781 301.929688 330.617188 302.234375 330.78125 C 302.542969 330.949219 302.863281 331.082031 303.195312 331.183594 C 303.53125 331.289062 303.871094 331.359375 304.21875 331.394531 C 304.566406 331.429688 304.914062 331.433594 305.261719 331.402344 C 305.609375 331.371094 305.949219 331.308594 306.285156 331.210938 C 306.621094 331.113281 306.945312 330.984375 307.253906 330.828125 C 307.5625 330.667969 307.855469 330.476562 308.128906 330.261719 C 308.402344 330.042969 308.652344 329.804688 308.878906 329.539062 C 309.105469 329.273438 309.304688 328.988281 309.476562 328.683594 C 309.648438 328.378906 309.789062 328.0625 309.898438 327.730469 C 310.007812 327.402344 310.082031 327.0625 310.125 326.714844 C 310.171875 326.371094 310.179688 326.023438 310.15625 325.675781 C 310.132812 325.328125 310.074219 324.984375 309.984375 324.648438 C 309.890625 324.3125 309.769531 323.984375 309.617188 323.671875 Z M 297.28125 299.78125 " fill-opacity="1" fill-rule="nonzero"/><path fill="#eeeeee" d="M 278.210938 309.769531 C 278.046875 309.464844 277.851562 309.175781 277.628906 308.90625 C 277.40625 308.636719 277.160156 308.394531 276.890625 308.171875 C 276.621094 307.949219 276.332031 307.757812 276.027344 307.59375 C 275.71875 307.425781 275.398438 307.292969 275.0625 307.191406 C 274.730469 307.085938 274.390625 307.015625 274.042969 306.980469 C 273.695312 306.941406 273.347656 306.941406 273 306.972656 C 272.652344 307 272.3125 307.066406 271.976562 307.164062 C 271.640625 307.261719 271.316406 307.390625 271.007812 307.546875 C 270.695312 307.707031 270.40625 307.898438 270.132812 308.113281 C 269.859375 308.332031 269.609375 308.570312 269.382812 308.835938 C 269.15625 309.101562 268.957031 309.386719 268.785156 309.691406 C 268.613281 309.996094 268.472656 310.3125 268.363281 310.644531 C 268.253906 310.972656 268.179688 311.3125 268.132812 311.660156 C 268.089844 312.003906 268.082031 312.351562 268.105469 312.699219 C 268.128906 313.046875 268.1875 313.390625 268.277344 313.726562 C 268.367188 314.0625 268.492188 314.390625 268.644531 314.703125 L 280.988281 338.597656 C 281.152344 338.902344 281.347656 339.191406 281.570312 339.460938 C 281.789062 339.730469 282.035156 339.976562 282.304688 340.195312 C 282.574219 340.417969 282.863281 340.613281 283.171875 340.777344 C 283.480469 340.941406 283.800781 341.078125 284.132812 341.179688 C 284.46875 341.28125 284.808594 341.351562 285.15625 341.390625 C 285.503906 341.425781 285.851562 341.429688 286.199219 341.398438 C 286.546875 341.367188 286.886719 341.304688 287.222656 341.207031 C 287.558594 341.109375 287.882812 340.980469 288.191406 340.820312 C 288.503906 340.660156 288.792969 340.472656 289.066406 340.257812 C 289.339844 340.039062 289.589844 339.796875 289.820312 339.53125 C 290.046875 339.265625 290.242188 338.984375 290.414062 338.679688 C 290.585938 338.375 290.726562 338.054688 290.835938 337.726562 C 290.945312 337.394531 291.023438 337.054688 291.066406 336.707031 C 291.109375 336.363281 291.117188 336.015625 291.09375 335.667969 C 291.070312 335.320312 291.011719 334.976562 290.921875 334.640625 C 290.828125 334.304688 290.707031 333.976562 290.550781 333.664062 Z M 278.210938 309.769531 " fill-opacity="1" fill-rule="nonzero"/><path fill="#eeeeee" d="M 328.679688 313.683594 L 316.34375 289.789062 C 316.175781 289.484375 315.984375 289.195312 315.761719 288.925781 C 315.539062 288.65625 315.292969 288.410156 315.023438 288.191406 C 314.753906 287.96875 314.464844 287.773438 314.15625 287.609375 C 313.851562 287.445312 313.53125 287.3125 313.195312 287.207031 C 312.863281 287.105469 312.523438 287.035156 312.175781 287 C 311.828125 286.960938 311.480469 286.957031 311.132812 286.988281 C 310.785156 287.019531 310.441406 287.085938 310.109375 287.179688 C 309.773438 287.277344 309.449219 287.40625 309.140625 287.566406 C 308.828125 287.726562 308.535156 287.914062 308.261719 288.132812 C 307.988281 288.347656 307.738281 288.589844 307.511719 288.855469 C 307.285156 289.121094 307.085938 289.40625 306.917969 289.707031 C 306.746094 290.011719 306.605469 290.332031 306.496094 290.660156 C 306.386719 290.992188 306.308594 291.332031 306.265625 291.675781 C 306.222656 292.023438 306.214844 292.371094 306.238281 292.71875 C 306.261719 293.066406 306.320312 293.410156 306.410156 293.746094 C 306.5 294.082031 306.625 294.40625 306.777344 294.71875 L 319.113281 318.613281 C 319.277344 318.921875 319.472656 319.207031 319.695312 319.476562 C 319.917969 319.746094 320.164062 319.992188 320.433594 320.214844 C 320.703125 320.433594 320.992188 320.628906 321.300781 320.792969 C 321.605469 320.957031 321.925781 321.09375 322.261719 321.195312 C 322.59375 321.296875 322.933594 321.367188 323.28125 321.40625 C 323.628906 321.441406 323.976562 321.445312 324.324219 321.414062 C 324.671875 321.382812 325.011719 321.320312 325.347656 321.222656 C 325.683594 321.125 326.007812 320.996094 326.316406 320.835938 C 326.628906 320.675781 326.917969 320.488281 327.191406 320.273438 C 327.464844 320.054688 327.714844 319.8125 327.941406 319.546875 C 328.167969 319.285156 328.367188 319 328.539062 318.695312 C 328.710938 318.390625 328.851562 318.074219 328.960938 317.742188 C 329.070312 317.410156 329.148438 317.070312 329.191406 316.726562 C 329.234375 316.378906 329.242188 316.03125 329.21875 315.683594 C 329.195312 315.335938 329.136719 314.996094 329.046875 314.65625 C 328.957031 314.320312 328.832031 313.996094 328.679688 313.683594 Z M 328.679688 313.683594 " fill-opacity="1" fill-rule="nonzero"/><path fill="#26a6fe" d="M 562.910156 319.941406 L 542.886719 358.0625 C 542.609375 358.59375 542.253906 359.066406 541.816406 359.480469 C 541.382812 359.890625 540.890625 360.222656 540.347656 360.46875 C 539.800781 360.71875 539.226562 360.871094 538.632812 360.929688 C 538.035156 360.984375 537.445312 360.945312 536.859375 360.804688 C 536.238281 360.640625 535.609375 360.585938 534.96875 360.632812 C 534.328125 360.683594 533.710938 360.835938 533.121094 361.09375 C 532.535156 361.351562 532.003906 361.699219 531.535156 362.136719 C 531.0625 362.574219 530.679688 363.078125 530.378906 363.644531 C 530.078125 364.210938 529.878906 364.8125 529.785156 365.449219 C 529.691406 366.085938 529.703125 366.71875 529.820312 367.347656 C 529.941406 367.980469 530.160156 368.574219 530.480469 369.128906 C 530.804688 369.683594 531.207031 370.171875 531.695312 370.59375 C 532.148438 370.984375 532.527344 371.441406 532.828125 371.964844 C 533.128906 372.488281 533.332031 373.042969 533.4375 373.636719 C 533.546875 374.226562 533.550781 374.820312 533.457031 375.414062 C 533.359375 376.007812 533.167969 376.570312 532.878906 377.097656 L 472.921875 491.355469 C 470.015625 496.839844 393.914062 468.179688 393.914062 468.179688 C 393.445312 467.9375 392.988281 467.667969 392.546875 467.378906 C 392.105469 467.085938 391.679688 466.777344 391.269531 466.445312 C 390.855469 466.113281 390.464844 465.761719 390.085938 465.390625 C 389.710938 465.019531 389.351562 464.632812 389.011719 464.226562 C 388.671875 463.820312 388.355469 463.402344 388.058594 462.964844 C 387.761719 462.527344 387.484375 462.078125 387.230469 461.613281 C 386.976562 461.148438 386.75 460.675781 386.542969 460.1875 C 386.335938 459.703125 386.152344 459.207031 385.996094 458.703125 C 385.835938 458.199219 385.703125 457.6875 385.59375 457.171875 C 385.488281 456.65625 385.402344 456.132812 385.347656 455.609375 C 385.289062 455.082031 385.257812 454.558594 385.253906 454.027344 C 385.25 453.5 385.269531 452.972656 385.316406 452.445312 C 385.363281 451.921875 385.433594 451.398438 385.53125 450.878906 C 385.628906 450.359375 385.75 449.847656 385.898438 449.339844 C 386.046875 448.832031 386.21875 448.332031 386.417969 447.84375 C 386.613281 447.351562 386.832031 446.875 387.078125 446.40625 L 447.085938 332.148438 C 447.367188 331.613281 447.730469 331.140625 448.171875 330.726562 C 448.609375 330.3125 449.105469 329.980469 449.65625 329.730469 C 450.207031 329.484375 450.785156 329.332031 451.386719 329.277344 C 451.988281 329.21875 452.582031 329.261719 453.167969 329.40625 C 453.789062 329.5625 454.417969 329.613281 455.054688 329.558594 C 455.691406 329.503906 456.300781 329.347656 456.882812 329.085938 C 457.46875 328.824219 457.992188 328.476562 458.457031 328.039062 C 458.921875 327.601562 459.304688 327.097656 459.597656 326.53125 C 459.894531 325.964844 460.089844 325.367188 460.183594 324.734375 C 460.277344 324.105469 460.261719 323.476562 460.144531 322.847656 C 460.023438 322.21875 459.804688 321.628906 459.484375 321.078125 C 459.167969 320.523438 458.765625 320.039062 458.28125 319.621094 C 457.839844 319.21875 457.472656 318.757812 457.179688 318.234375 C 456.890625 317.710938 456.691406 317.15625 456.582031 316.566406 C 456.476562 315.980469 456.46875 315.390625 456.554688 314.796875 C 456.644531 314.207031 456.824219 313.644531 457.097656 313.113281 L 477.121094 274.992188 C 477.617188 274.058594 478.199219 273.183594 478.867188 272.363281 C 479.539062 271.542969 480.28125 270.796875 481.09375 270.121094 C 481.910156 269.449219 482.78125 268.859375 483.714844 268.355469 C 484.644531 267.851562 485.613281 267.441406 486.625 267.128906 C 487.636719 266.816406 488.667969 266.601562 489.71875 266.488281 C 490.769531 266.375 491.824219 266.367188 492.878906 266.460938 C 493.933594 266.554688 494.96875 266.75 495.984375 267.042969 C 497 267.339844 497.976562 267.730469 498.917969 268.21875 L 556.128906 298.167969 C 556.59375 298.414062 557.050781 298.683594 557.488281 298.972656 C 557.929688 299.265625 558.355469 299.574219 558.765625 299.910156 C 559.175781 300.242188 559.570312 300.59375 559.945312 300.964844 C 560.320312 301.335938 560.675781 301.722656 561.015625 302.128906 C 561.351562 302.535156 561.667969 302.957031 561.964844 303.394531 C 562.261719 303.832031 562.535156 304.28125 562.789062 304.746094 C 563.039062 305.210938 563.269531 305.683594 563.472656 306.171875 C 563.679688 306.65625 563.859375 307.152344 564.015625 307.65625 C 564.175781 308.160156 564.304688 308.671875 564.414062 309.1875 C 564.519531 309.703125 564.601562 310.226562 564.65625 310.75 C 564.710938 311.273438 564.742188 311.800781 564.746094 312.328125 C 564.75 312.855469 564.730469 313.382812 564.683594 313.910156 C 564.636719 314.433594 564.5625 314.957031 564.464844 315.476562 C 564.363281 315.992188 564.242188 316.507812 564.09375 317.011719 C 563.945312 317.519531 563.769531 318.015625 563.574219 318.507812 C 563.375 318.996094 563.152344 319.476562 562.910156 319.941406 Z M 562.910156 319.941406 " fill-opacity="1" fill-rule="nonzero"/><path fill="#eeeeee" d="M 430.605469 446.476562 C 430.03125 446.464844 429.460938 446.425781 428.894531 446.359375 C 428.324219 446.289062 427.761719 446.195312 427.203125 446.074219 C 426.644531 445.953125 426.09375 445.804688 425.546875 445.628906 C 425.003906 445.453125 424.46875 445.25 423.941406 445.023438 C 423.417969 444.796875 422.90625 444.542969 422.40625 444.265625 C 421.90625 443.988281 421.417969 443.6875 420.949219 443.363281 C 420.476562 443.039062 420.023438 442.691406 419.585938 442.324219 C 419.148438 441.953125 418.730469 441.566406 418.332031 441.15625 C 417.929688 440.746094 417.550781 440.320312 417.195312 439.871094 C 416.835938 439.425781 416.5 438.964844 416.1875 438.484375 C 415.875 438.007812 415.585938 437.515625 415.320312 437.007812 C 415.058594 436.5 414.816406 435.980469 414.605469 435.453125 C 414.390625 434.921875 414.203125 434.382812 414.039062 433.835938 C 413.878906 433.285156 413.742188 432.730469 413.636719 432.167969 C 413.527344 431.609375 413.445312 431.042969 413.394531 430.472656 C 413.339844 429.90625 413.316406 429.332031 413.320312 428.761719 C 413.320312 428.191406 413.351562 427.621094 413.410156 427.050781 C 413.46875 426.484375 413.554688 425.917969 413.667969 425.359375 C 413.78125 424.796875 413.921875 424.246094 414.089844 423.699219 C 414.257812 423.152344 414.449219 422.613281 414.667969 422.085938 C 414.890625 421.558594 415.132812 421.042969 415.402344 420.539062 C 415.671875 420.035156 415.96875 419.542969 416.285156 419.066406 C 416.601562 418.59375 416.941406 418.132812 417.304688 417.691406 C 417.667969 417.246094 418.050781 416.824219 418.453125 416.417969 C 418.855469 416.011719 419.277344 415.628906 419.71875 415.265625 C 420.160156 414.898438 420.617188 414.558594 421.089844 414.238281 C 421.566406 413.917969 422.054688 413.621094 422.558594 413.347656 C 423.0625 413.078125 423.574219 412.828125 424.101562 412.605469 C 424.628906 412.382812 425.167969 412.1875 425.714844 412.019531 C 426.257812 411.847656 426.8125 411.703125 427.375 411.589844 C 427.933594 411.472656 428.496094 411.382812 429.066406 411.320312 C 429.636719 411.257812 430.207031 411.226562 430.777344 411.21875 C 431.351562 411.230469 431.921875 411.269531 432.488281 411.339844 C 433.058594 411.40625 433.621094 411.5 434.179688 411.621094 C 434.738281 411.742188 435.292969 411.890625 435.835938 412.066406 C 436.378906 412.242188 436.914062 412.445312 437.441406 412.671875 C 437.964844 412.898438 438.476562 413.152344 438.976562 413.429688 C 439.476562 413.707031 439.964844 414.007812 440.433594 414.332031 C 440.90625 414.65625 441.359375 415.003906 441.796875 415.371094 C 442.234375 415.742188 442.652344 416.128906 443.054688 416.539062 C 443.453125 416.949219 443.832031 417.375 444.1875 417.824219 C 444.546875 418.269531 444.882812 418.730469 445.195312 419.210938 C 445.507812 419.6875 445.796875 420.179688 446.0625 420.6875 C 446.324219 421.195312 446.566406 421.714844 446.78125 422.242188 C 446.992188 422.773438 447.183594 423.3125 447.34375 423.863281 C 447.503906 424.410156 447.640625 424.964844 447.75 425.527344 C 447.855469 426.085938 447.9375 426.652344 447.988281 427.222656 C 448.042969 427.792969 448.066406 428.363281 448.0625 428.933594 C 448.0625 429.503906 448.03125 430.074219 447.972656 430.644531 C 447.914062 431.210938 447.828125 431.777344 447.714844 432.335938 C 447.601562 432.898438 447.460938 433.453125 447.292969 434 C 447.125 434.542969 446.933594 435.082031 446.714844 435.609375 C 446.492188 436.136719 446.25 436.652344 445.980469 437.160156 C 445.710938 437.664062 445.417969 438.152344 445.097656 438.628906 C 444.78125 439.105469 444.441406 439.5625 444.078125 440.003906 C 443.71875 440.449219 443.335938 440.871094 442.929688 441.277344 C 442.527344 441.683594 442.105469 442.066406 441.664062 442.433594 C 441.222656 442.796875 440.765625 443.136719 440.292969 443.457031 C 439.816406 443.777344 439.328125 444.074219 438.824219 444.347656 C 438.324219 444.621094 437.808594 444.867188 437.28125 445.089844 C 436.753906 445.3125 436.214844 445.507812 435.667969 445.679688 C 435.125 445.847656 434.570312 445.992188 434.011719 446.109375 C 433.449219 446.222656 432.886719 446.3125 432.316406 446.375 C 431.746094 446.4375 431.175781 446.46875 430.605469 446.476562 Z M 430.730469 422.058594 C 430.289062 422.070312 429.855469 422.125 429.421875 422.21875 C 428.992188 422.3125 428.574219 422.449219 428.171875 422.625 C 427.765625 422.800781 427.382812 423.015625 427.019531 423.265625 C 426.65625 423.515625 426.320312 423.800781 426.011719 424.113281 C 425.707031 424.429688 425.429688 424.773438 425.191406 425.140625 C 424.949219 425.511719 424.746094 425.898438 424.578125 426.308594 C 424.414062 426.714844 424.289062 427.136719 424.203125 427.570312 C 424.121094 428 424.078125 428.4375 424.078125 428.878906 C 424.082031 429.320312 424.125 429.757812 424.210938 430.1875 C 424.296875 430.621094 424.421875 431.039062 424.589844 431.449219 C 424.757812 431.855469 424.960938 432.246094 425.203125 432.613281 C 425.445312 432.980469 425.722656 433.320312 426.03125 433.636719 C 426.339844 433.949219 426.675781 434.230469 427.042969 434.480469 C 427.40625 434.730469 427.789062 434.941406 428.195312 435.117188 C 428.597656 435.292969 429.019531 435.425781 429.449219 435.519531 C 429.878906 435.613281 430.316406 435.664062 430.757812 435.671875 C 431.199219 435.664062 431.632812 435.609375 432.066406 435.515625 C 432.496094 435.417969 432.914062 435.285156 433.316406 435.109375 C 433.722656 434.929688 434.105469 434.71875 434.46875 434.46875 C 434.832031 434.21875 435.167969 433.933594 435.476562 433.617188 C 435.78125 433.300781 436.058594 432.960938 436.300781 432.589844 C 436.539062 432.222656 436.742188 431.832031 436.910156 431.425781 C 437.074219 431.015625 437.199219 430.597656 437.285156 430.164062 C 437.367188 429.730469 437.410156 429.292969 437.410156 428.851562 C 437.410156 428.414062 437.363281 427.976562 437.28125 427.542969 C 437.195312 427.113281 437.066406 426.691406 436.898438 426.285156 C 436.734375 425.875 436.527344 425.488281 436.285156 425.121094 C 436.042969 424.75 435.765625 424.410156 435.457031 424.097656 C 435.148438 423.78125 434.8125 423.5 434.445312 423.25 C 434.082031 423 433.699219 422.789062 433.292969 422.613281 C 432.886719 422.441406 432.46875 422.304688 432.039062 422.214844 C 431.609375 422.121094 431.171875 422.070312 430.730469 422.058594 Z M 481.296875 428.535156 C 480.726562 428.527344 480.15625 428.488281 479.585938 428.421875 C 479.015625 428.355469 478.453125 428.261719 477.890625 428.140625 C 477.332031 428.019531 476.78125 427.875 476.234375 427.699219 C 475.6875 427.523438 475.152344 427.324219 474.625 427.097656 C 474.101562 426.871094 473.585938 426.621094 473.085938 426.34375 C 472.585938 426.066406 472.097656 425.765625 471.625 425.441406 C 471.152344 425.117188 470.699219 424.773438 470.257812 424.402344 C 469.820312 424.035156 469.402344 423.648438 469 423.238281 C 468.597656 422.828125 468.21875 422.402344 467.859375 421.957031 C 467.5 421.507812 467.164062 421.046875 466.851562 420.566406 C 466.539062 420.089844 466.246094 419.597656 465.980469 419.089844 C 465.714844 418.582031 465.472656 418.066406 465.257812 417.535156 C 465.042969 417.003906 464.855469 416.464844 464.691406 415.914062 C 464.527344 415.367188 464.394531 414.8125 464.285156 414.25 C 464.175781 413.6875 464.09375 413.121094 464.039062 412.550781 C 463.988281 411.984375 463.960938 411.410156 463.964844 410.839844 C 463.964844 410.265625 463.996094 409.695312 464.050781 409.128906 C 464.109375 408.558594 464.195312 407.992188 464.308594 407.429688 C 464.421875 406.871094 464.558594 406.316406 464.726562 405.769531 C 464.894531 405.222656 465.085938 404.683594 465.304688 404.152344 C 465.523438 403.625 465.769531 403.109375 466.039062 402.601562 C 466.308594 402.097656 466.601562 401.605469 466.917969 401.132812 C 467.234375 400.65625 467.574219 400.195312 467.9375 399.75 C 468.300781 399.308594 468.683594 398.882812 469.085938 398.476562 C 469.488281 398.070312 469.910156 397.683594 470.351562 397.320312 C 470.792969 396.953125 471.25 396.609375 471.726562 396.289062 C 472.199219 395.96875 472.6875 395.671875 473.191406 395.398438 C 473.695312 395.125 474.210938 394.878906 474.738281 394.65625 C 475.265625 394.433594 475.804688 394.234375 476.351562 394.066406 C 476.898438 393.894531 477.449219 393.75 478.011719 393.632812 C 478.570312 393.515625 479.136719 393.425781 479.707031 393.363281 C 480.277344 393.300781 480.847656 393.269531 481.421875 393.261719 C 481.992188 393.273438 482.5625 393.3125 483.132812 393.375 C 483.703125 393.441406 484.265625 393.535156 484.824219 393.65625 C 485.386719 393.777344 485.9375 393.925781 486.484375 394.101562 C 487.03125 394.273438 487.566406 394.476562 488.089844 394.703125 C 488.617188 394.929688 489.128906 395.179688 489.632812 395.457031 C 490.132812 395.734375 490.621094 396.035156 491.09375 396.359375 C 491.566406 396.679688 492.019531 397.027344 492.457031 397.394531 C 492.898438 397.765625 493.316406 398.152344 493.71875 398.5625 C 494.117188 398.972656 494.496094 399.398438 494.855469 399.84375 C 495.214844 400.289062 495.550781 400.753906 495.867188 401.230469 C 496.179688 401.710938 496.46875 402.203125 496.734375 402.710938 C 497 403.214844 497.242188 403.734375 497.457031 404.265625 C 497.671875 404.796875 497.863281 405.335938 498.023438 405.882812 C 498.1875 406.433594 498.324219 406.988281 498.433594 407.546875 C 498.542969 408.109375 498.621094 408.675781 498.675781 409.246094 C 498.730469 409.816406 498.753906 410.386719 498.753906 410.960938 C 498.75 411.53125 498.722656 412.101562 498.664062 412.671875 C 498.605469 413.242188 498.519531 413.804688 498.410156 414.367188 C 498.296875 414.929688 498.15625 415.480469 497.988281 416.03125 C 497.824219 416.578125 497.628906 417.117188 497.410156 417.644531 C 497.191406 418.171875 496.949219 418.691406 496.679688 419.195312 C 496.410156 419.699219 496.117188 420.191406 495.800781 420.667969 C 495.480469 421.144531 495.140625 421.601562 494.78125 422.046875 C 494.417969 422.492188 494.035156 422.914062 493.632812 423.320312 C 493.226562 423.726562 492.804688 424.113281 492.363281 424.480469 C 491.925781 424.84375 491.464844 425.1875 490.992188 425.507812 C 490.519531 425.828125 490.027344 426.125 489.527344 426.398438 C 489.023438 426.671875 488.507812 426.917969 487.980469 427.144531 C 487.453125 427.367188 486.914062 427.5625 486.367188 427.734375 C 485.820312 427.90625 485.269531 428.046875 484.707031 428.164062 C 484.144531 428.28125 483.582031 428.371094 483.011719 428.433594 C 482.441406 428.496094 481.871094 428.53125 481.296875 428.535156 Z M 481.351562 404.089844 C 480.910156 404.101562 480.476562 404.15625 480.042969 404.253906 C 479.613281 404.347656 479.199219 404.484375 478.792969 404.660156 C 478.390625 404.835938 478.007812 405.050781 477.644531 405.300781 C 477.28125 405.550781 476.945312 405.835938 476.640625 406.152344 C 476.332031 406.46875 476.058594 406.808594 475.816406 407.179688 C 475.578125 407.546875 475.375 407.933594 475.207031 408.34375 C 475.042969 408.75 474.917969 409.171875 474.835938 409.605469 C 474.75 410.035156 474.710938 410.472656 474.710938 410.914062 C 474.710938 411.355469 474.753906 411.789062 474.839844 412.222656 C 474.925781 412.652344 475.054688 413.074219 475.21875 413.480469 C 475.386719 413.886719 475.59375 414.277344 475.835938 414.644531 C 476.078125 415.011719 476.351562 415.351562 476.660156 415.667969 C 476.972656 415.980469 477.308594 416.261719 477.671875 416.511719 C 478.035156 416.761719 478.417969 416.972656 478.824219 417.148438 C 479.226562 417.324219 479.644531 417.457031 480.074219 417.550781 C 480.507812 417.644531 480.941406 417.695312 481.382812 417.703125 C 481.824219 417.691406 482.257812 417.640625 482.691406 417.542969 C 483.121094 417.449219 483.539062 417.3125 483.941406 417.136719 C 484.34375 416.960938 484.726562 416.746094 485.089844 416.496094 C 485.453125 416.246094 485.789062 415.960938 486.09375 415.644531 C 486.402344 415.328125 486.675781 414.988281 486.917969 414.617188 C 487.160156 414.25 487.363281 413.859375 487.527344 413.453125 C 487.691406 413.042969 487.816406 412.625 487.902344 412.191406 C 487.984375 411.757812 488.027344 411.324219 488.023438 410.882812 C 488.023438 410.441406 487.980469 410.003906 487.894531 409.574219 C 487.808594 409.140625 487.683594 408.722656 487.515625 408.316406 C 487.347656 407.90625 487.144531 407.519531 486.898438 407.152344 C 486.65625 406.785156 486.382812 406.441406 486.074219 406.128906 C 485.765625 405.8125 485.429688 405.53125 485.0625 405.285156 C 484.699219 405.035156 484.316406 404.824219 483.910156 404.648438 C 483.507812 404.472656 483.089844 404.339844 482.660156 404.246094 C 482.226562 404.152344 481.792969 404.101562 481.351562 404.089844 Z M 481.351562 404.089844 " fill-opacity="1" fill-rule="nonzero"/><path fill="#eeeeee" d="M 477.589844 449.21875 L 441.625 383.898438 C 441.53125 383.734375 441.417969 383.582031 441.285156 383.449219 C 441.152344 383.3125 441.003906 383.195312 440.839844 383.101562 C 440.679688 383.003906 440.507812 382.929688 440.324219 382.878906 C 440.140625 382.828125 439.957031 382.800781 439.765625 382.800781 C 439.578125 382.796875 439.390625 382.816406 439.207031 382.863281 C 439.023438 382.910156 438.847656 382.980469 438.683594 383.070312 C 438.519531 383.164062 438.367188 383.277344 438.230469 383.40625 C 438.09375 383.539062 437.980469 383.683594 437.882812 383.847656 L 435.148438 388.503906 C 434.957031 388.828125 434.859375 389.179688 434.851562 389.558594 C 434.847656 389.9375 434.933594 390.292969 435.117188 390.625 L 471.054688 455.988281 C 471.148438 456.152344 471.261719 456.300781 471.394531 456.4375 C 471.527344 456.574219 471.675781 456.6875 471.835938 456.785156 C 472 456.882812 472.171875 456.957031 472.355469 457.007812 C 472.535156 457.058594 472.722656 457.085938 472.910156 457.089844 C 473.101562 457.089844 473.289062 457.070312 473.472656 457.023438 C 473.65625 456.976562 473.828125 456.910156 473.996094 456.816406 C 474.160156 456.726562 474.3125 456.613281 474.449219 456.484375 C 474.582031 456.351562 474.699219 456.203125 474.796875 456.042969 L 477.558594 451.347656 C 477.75 451.019531 477.847656 450.667969 477.855469 450.285156 C 477.859375 449.90625 477.769531 449.550781 477.589844 449.21875 Z M 477.589844 449.21875 " fill-opacity="1" fill-rule="nonzero"/><path fill="#eeeeee" d="M 362.5 454.675781 C 362.191406 455.15625 361.859375 455.621094 361.503906 456.066406 C 361.152344 456.515625 360.777344 456.945312 360.378906 457.359375 C 359.984375 457.769531 359.570312 458.164062 359.132812 458.535156 C 358.699219 458.90625 358.25 459.257812 357.78125 459.585938 C 357.3125 459.910156 356.828125 460.214844 356.332031 460.496094 C 355.832031 460.777344 355.324219 461.035156 354.800781 461.265625 C 354.277344 461.496094 353.742188 461.703125 353.199219 461.882812 C 352.65625 462.0625 352.109375 462.214844 351.550781 462.339844 C 350.992188 462.46875 350.429688 462.566406 349.863281 462.636719 C 349.292969 462.710938 348.726562 462.753906 348.152344 462.769531 C 347.582031 462.785156 347.011719 462.773438 346.441406 462.734375 C 345.871094 462.695312 345.300781 462.628906 344.738281 462.535156 C 344.175781 462.441406 343.617188 462.320312 343.0625 462.167969 C 342.511719 462.019531 341.96875 461.847656 341.433594 461.644531 C 340.898438 461.445312 340.371094 461.21875 339.859375 460.964844 C 339.347656 460.710938 338.847656 460.4375 338.359375 460.136719 C 337.875 459.835938 337.402344 459.511719 336.949219 459.164062 C 336.496094 458.816406 336.058594 458.449219 335.640625 458.0625 C 335.21875 457.671875 334.820312 457.261719 334.441406 456.835938 C 334.0625 456.40625 333.703125 455.964844 333.367188 455.5 C 333.03125 455.039062 332.71875 454.5625 332.429688 454.066406 C 332.140625 453.574219 331.875 453.070312 331.636719 452.550781 C 331.394531 452.03125 331.183594 451.503906 330.992188 450.964844 C 330.804688 450.425781 330.640625 449.878906 330.507812 449.324219 C 330.371094 448.765625 330.261719 448.207031 330.183594 447.640625 C 330.101562 447.074219 330.046875 446.507812 330.023438 445.9375 C 329.996094 445.367188 330 444.796875 330.027344 444.226562 C 330.058594 443.65625 330.117188 443.085938 330.199219 442.523438 C 330.285156 441.957031 330.398438 441.398438 330.539062 440.84375 C 330.675781 440.289062 330.84375 439.742188 331.035156 439.203125 C 331.230469 438.667969 331.449219 438.140625 331.691406 437.621094 C 331.933594 437.105469 332.203125 436.601562 332.496094 436.113281 C 332.804688 435.632812 333.136719 435.167969 333.492188 434.71875 C 333.847656 434.269531 334.222656 433.839844 334.617188 433.425781 C 335.015625 433.015625 335.429688 432.625 335.863281 432.25 C 336.296875 431.878906 336.75 431.53125 337.21875 431.203125 C 337.6875 430.875 338.167969 430.570312 338.667969 430.289062 C 339.164062 430.007812 339.675781 429.75 340.199219 429.519531 C 340.722656 429.289062 341.253906 429.082031 341.796875 428.902344 C 342.339844 428.722656 342.890625 428.570312 343.449219 428.445312 C 344.007812 428.320312 344.570312 428.21875 345.136719 428.148438 C 345.703125 428.078125 346.273438 428.03125 346.84375 428.015625 C 347.417969 428 347.988281 428.011719 348.558594 428.050781 C 349.128906 428.089844 349.695312 428.15625 350.261719 428.25 C 350.824219 428.347656 351.382812 428.46875 351.933594 428.617188 C 352.488281 428.765625 353.03125 428.941406 353.566406 429.140625 C 354.101562 429.34375 354.625 429.570312 355.136719 429.820312 C 355.652344 430.074219 356.152344 430.351562 356.636719 430.652344 C 357.125 430.953125 357.59375 431.277344 358.046875 431.621094 C 358.503906 431.96875 358.941406 432.335938 359.359375 432.726562 C 359.777344 433.113281 360.175781 433.523438 360.554688 433.949219 C 360.933594 434.378906 361.292969 434.824219 361.628906 435.285156 C 361.964844 435.746094 362.277344 436.226562 362.566406 436.71875 C 362.855469 437.210938 363.121094 437.714844 363.359375 438.234375 C 363.601562 438.753906 363.816406 439.28125 364.003906 439.820312 C 364.195312 440.359375 364.355469 440.910156 364.492188 441.464844 C 364.625 442.019531 364.734375 442.578125 364.816406 443.144531 C 364.898438 443.710938 364.949219 444.277344 364.976562 444.847656 C 365 445.421875 365 445.992188 364.96875 446.5625 C 364.941406 447.132812 364.882812 447.699219 364.796875 448.265625 C 364.710938 448.828125 364.597656 449.390625 364.460938 449.941406 C 364.320312 450.496094 364.152344 451.042969 363.960938 451.582031 C 363.769531 452.117188 363.550781 452.644531 363.304688 453.164062 C 363.0625 453.679688 362.792969 454.183594 362.5 454.675781 Z M 341.726562 441.8125 C 341.503906 442.195312 341.320312 442.59375 341.175781 443.011719 C 341.035156 443.429688 340.929688 443.855469 340.871094 444.289062 C 340.808594 444.726562 340.792969 445.164062 340.816406 445.605469 C 340.839844 446.046875 340.90625 446.480469 341.015625 446.90625 C 341.125 447.332031 341.273438 447.746094 341.460938 448.144531 C 341.652344 448.542969 341.875 448.917969 342.136719 449.273438 C 342.398438 449.628906 342.695312 449.953125 343.019531 450.25 C 343.34375 450.550781 343.695312 450.8125 344.070312 451.042969 C 344.449219 451.273438 344.84375 451.464844 345.257812 451.617188 C 345.671875 451.769531 346.097656 451.878906 346.53125 451.949219 C 346.96875 452.019531 347.40625 452.046875 347.847656 452.035156 C 348.285156 452.019531 348.722656 451.960938 349.152344 451.863281 C 349.582031 451.765625 350 451.625 350.402344 451.445312 C 350.804688 451.265625 351.183594 451.046875 351.546875 450.792969 C 351.90625 450.539062 352.238281 450.253906 352.542969 449.9375 C 352.847656 449.617188 353.121094 449.273438 353.359375 448.902344 C 353.578125 448.519531 353.761719 448.121094 353.90625 447.703125 C 354.050781 447.289062 354.152344 446.863281 354.214844 446.425781 C 354.273438 445.988281 354.292969 445.550781 354.269531 445.109375 C 354.242188 444.671875 354.175781 444.238281 354.070312 443.808594 C 353.960938 443.382812 353.8125 442.96875 353.621094 442.570312 C 353.433594 442.171875 353.207031 441.796875 352.945312 441.441406 C 352.683594 441.085938 352.390625 440.761719 352.066406 440.464844 C 351.738281 440.167969 351.386719 439.902344 351.011719 439.671875 C 350.636719 439.445312 350.238281 439.253906 349.828125 439.101562 C 349.414062 438.949219 348.988281 438.835938 348.550781 438.765625 C 348.117188 438.695312 347.679688 438.667969 347.238281 438.683594 C 346.796875 438.695312 346.363281 438.753906 345.929688 438.851562 C 345.5 438.953125 345.085938 439.089844 344.683594 439.269531 C 344.28125 439.449219 343.898438 439.667969 343.539062 439.921875 C 343.175781 440.175781 342.84375 440.460938 342.539062 440.78125 C 342.234375 441.097656 341.964844 441.441406 341.726562 441.8125 Z M 373.664062 402.117188 C 373.355469 402.597656 373.027344 403.066406 372.671875 403.515625 C 372.320312 403.964844 371.945312 404.398438 371.550781 404.8125 C 371.152344 405.226562 370.738281 405.621094 370.304688 405.992188 C 369.871094 406.367188 369.421875 406.71875 368.953125 407.046875 C 368.484375 407.378906 368 407.683594 367.503906 407.96875 C 367.003906 408.25 366.492188 408.507812 365.972656 408.742188 C 365.449219 408.972656 364.914062 409.179688 364.371094 409.363281 C 363.828125 409.542969 363.277344 409.699219 362.71875 409.828125 C 362.160156 409.953125 361.597656 410.054688 361.027344 410.128906 C 360.460938 410.199219 359.890625 410.246094 359.316406 410.261719 C 358.746094 410.28125 358.171875 410.269531 357.601562 410.230469 C 357.03125 410.195312 356.460938 410.128906 355.894531 410.035156 C 355.332031 409.941406 354.773438 409.820312 354.21875 409.671875 C 353.664062 409.523438 353.121094 409.351562 352.582031 409.148438 C 352.046875 408.949219 351.523438 408.722656 351.007812 408.472656 C 350.492188 408.21875 349.992188 407.941406 349.503906 407.640625 C 349.015625 407.339844 348.546875 407.019531 348.089844 406.671875 C 347.632812 406.324219 347.195312 405.957031 346.773438 405.570312 C 346.355469 405.179688 345.953125 404.769531 345.574219 404.34375 C 345.195312 403.914062 344.835938 403.46875 344.5 403.007812 C 344.160156 402.542969 343.847656 402.066406 343.558594 401.574219 C 343.265625 401.078125 343 400.574219 342.761719 400.054688 C 342.519531 399.535156 342.304688 399.003906 342.113281 398.464844 C 341.925781 397.925781 341.761719 397.375 341.625 396.820312 C 341.492188 396.265625 341.382812 395.703125 341.300781 395.136719 C 341.21875 394.570312 341.164062 394 341.140625 393.429688 C 341.113281 392.859375 341.117188 392.285156 341.144531 391.714844 C 341.175781 391.144531 341.234375 390.574219 341.316406 390.007812 C 341.402344 389.441406 341.515625 388.882812 341.65625 388.328125 C 341.792969 387.773438 341.960938 387.226562 342.15625 386.6875 C 342.347656 386.148438 342.566406 385.621094 342.8125 385.101562 C 343.054688 384.585938 343.324219 384.082031 343.617188 383.589844 C 343.925781 383.105469 344.257812 382.640625 344.609375 382.191406 C 344.964844 381.738281 345.339844 381.308594 345.734375 380.894531 C 346.128906 380.480469 346.542969 380.085938 346.976562 379.710938 C 347.410156 379.339844 347.863281 378.988281 348.332031 378.65625 C 348.800781 378.328125 349.28125 378.019531 349.78125 377.738281 C 350.277344 377.457031 350.789062 377.199219 351.3125 376.964844 C 351.835938 376.730469 352.367188 376.523438 352.910156 376.34375 C 353.457031 376.160156 354.007812 376.007812 354.566406 375.878906 C 355.125 375.75 355.6875 375.652344 356.253906 375.578125 C 356.824219 375.503906 357.394531 375.460938 357.964844 375.441406 C 358.539062 375.425781 359.109375 375.433594 359.683594 375.472656 C 360.253906 375.511719 360.820312 375.578125 361.386719 375.671875 C 361.953125 375.765625 362.511719 375.886719 363.066406 376.03125 C 363.617188 376.179688 364.164062 376.355469 364.699219 376.554688 C 365.234375 376.757812 365.761719 376.984375 366.277344 377.234375 C 366.789062 377.488281 367.292969 377.761719 367.777344 378.0625 C 368.265625 378.363281 368.738281 378.6875 369.195312 379.035156 C 369.648438 379.378906 370.085938 379.75 370.507812 380.136719 C 370.929688 380.527344 371.328125 380.933594 371.707031 381.363281 C 372.089844 381.789062 372.449219 382.234375 372.785156 382.699219 C 373.121094 383.160156 373.433594 383.640625 373.726562 384.132812 C 374.015625 384.625 374.28125 385.132812 374.523438 385.652344 C 374.761719 386.171875 374.980469 386.699219 375.167969 387.242188 C 375.359375 387.78125 375.519531 388.328125 375.65625 388.882812 C 375.792969 389.441406 375.902344 390 375.984375 390.566406 C 376.0625 391.132812 376.117188 391.703125 376.144531 392.277344 C 376.167969 392.847656 376.167969 393.417969 376.136719 393.992188 C 376.109375 394.5625 376.050781 395.128906 375.964844 395.695312 C 375.878906 396.261719 375.769531 396.824219 375.628906 397.378906 C 375.488281 397.933594 375.320312 398.480469 375.128906 399.019531 C 374.9375 399.558594 374.71875 400.085938 374.472656 400.601562 C 374.226562 401.121094 373.957031 401.625 373.664062 402.117188 Z M 352.828125 389.304688 C 352.605469 389.6875 352.425781 390.085938 352.28125 390.5 C 352.136719 390.917969 352.035156 391.34375 351.976562 391.78125 C 351.914062 392.214844 351.898438 392.65625 351.921875 393.09375 C 351.949219 393.535156 352.015625 393.96875 352.125 394.394531 C 352.234375 394.820312 352.382812 395.234375 352.570312 395.628906 C 352.761719 396.027344 352.984375 396.402344 353.246094 396.757812 C 353.507812 397.113281 353.804688 397.4375 354.128906 397.734375 C 354.453125 398.03125 354.804688 398.296875 355.179688 398.523438 C 355.558594 398.753906 355.953125 398.945312 356.367188 399.097656 C 356.78125 399.25 357.203125 399.359375 357.640625 399.429688 C 358.074219 399.5 358.511719 399.53125 358.953125 399.515625 C 359.394531 399.5 359.828125 399.445312 360.257812 399.34375 C 360.6875 399.246094 361.101562 399.105469 361.507812 398.925781 C 361.910156 398.746094 362.289062 398.53125 362.648438 398.277344 C 363.011719 398.023438 363.34375 397.738281 363.648438 397.417969 C 363.953125 397.101562 364.226562 396.757812 364.460938 396.386719 C 364.683594 396.003906 364.863281 395.605469 365.007812 395.191406 C 365.152344 394.773438 365.253906 394.347656 365.3125 393.910156 C 365.375 393.476562 365.390625 393.035156 365.367188 392.597656 C 365.339844 392.15625 365.273438 391.722656 365.164062 391.296875 C 365.054688 390.871094 364.90625 390.457031 364.71875 390.0625 C 364.527344 389.664062 364.304688 389.285156 364.042969 388.933594 C 363.78125 388.578125 363.484375 388.253906 363.160156 387.957031 C 362.835938 387.660156 362.484375 387.394531 362.109375 387.167969 C 361.730469 386.9375 361.335938 386.746094 360.921875 386.59375 C 360.507812 386.441406 360.085938 386.332031 359.648438 386.261719 C 359.214844 386.191406 358.777344 386.160156 358.335938 386.175781 C 357.894531 386.191406 357.460938 386.246094 357.03125 386.347656 C 356.601562 386.445312 356.1875 386.585938 355.78125 386.765625 C 355.378906 386.945312 355 387.160156 354.640625 387.414062 C 354.277344 387.667969 353.945312 387.953125 353.640625 388.269531 C 353.335938 388.589844 353.0625 388.933594 352.828125 389.304688 Z M 352.828125 389.304688 " fill-opacity="1" fill-rule="nonzero"/><path fill="#eeeeee" d="M 393.75 422.019531 L 391.179688 417.214844 C 391.003906 416.882812 390.753906 416.613281 390.433594 416.410156 C 390.113281 416.207031 389.761719 416.097656 389.382812 416.078125 L 314.839844 412.601562 C 314.648438 412.597656 314.460938 412.613281 314.277344 412.65625 C 314.09375 412.699219 313.917969 412.765625 313.75 412.851562 C 313.582031 412.941406 313.429688 413.050781 313.292969 413.179688 C 313.152344 413.304688 313.03125 413.449219 312.929688 413.609375 C 312.832031 413.769531 312.75 413.941406 312.695312 414.121094 C 312.640625 414.300781 312.605469 414.488281 312.597656 414.675781 C 312.589844 414.863281 312.609375 415.050781 312.648438 415.234375 C 312.691406 415.421875 312.753906 415.597656 312.839844 415.765625 L 315.386719 420.523438 C 315.566406 420.859375 315.816406 421.125 316.132812 421.328125 C 316.453125 421.53125 316.804688 421.640625 317.183594 421.660156 L 391.746094 425.179688 C 391.9375 425.1875 392.125 425.167969 392.308594 425.125 C 392.492188 425.085938 392.667969 425.019531 392.835938 424.929688 C 393.003906 424.84375 393.15625 424.734375 393.296875 424.605469 C 393.433594 424.476562 393.554688 424.335938 393.65625 424.175781 C 393.757812 424.015625 393.835938 423.84375 393.894531 423.664062 C 393.949219 423.484375 393.980469 423.296875 393.992188 423.109375 C 394 422.921875 393.980469 422.734375 393.941406 422.550781 C 393.902344 422.363281 393.835938 422.1875 393.75 422.019531 Z M 393.75 422.019531 " fill-opacity="1" fill-rule="nonzero"/><path fill="#1c82ba" d="M 530.5625 381.507812 L 525.558594 391.078125 L 513.503906 384.894531 C 513.195312 384.726562 512.90625 384.535156 512.632812 384.3125 C 512.363281 384.089844 512.117188 383.84375 511.894531 383.574219 C 511.671875 383.304688 511.480469 383.015625 511.3125 382.707031 C 511.148438 382.398438 511.011719 382.078125 510.910156 381.742188 C 510.804688 381.410156 510.734375 381.066406 510.699219 380.71875 C 510.660156 380.371094 510.660156 380.023438 510.691406 379.675781 C 510.722656 379.328125 510.785156 378.984375 510.882812 378.648438 C 510.980469 378.3125 511.109375 377.988281 511.269531 377.679688 C 511.429688 377.367188 511.621094 377.074219 511.839844 376.800781 C 512.054688 376.527344 512.296875 376.277344 512.566406 376.050781 C 512.832031 375.824219 513.117188 375.625 513.421875 375.453125 C 513.726562 375.28125 514.046875 375.140625 514.378906 375.03125 C 514.710938 374.925781 515.054688 374.847656 515.398438 374.804688 C 515.746094 374.761719 516.097656 374.753906 516.445312 374.777344 C 516.792969 374.804688 517.136719 374.863281 517.476562 374.953125 C 517.8125 375.046875 518.140625 375.167969 518.453125 375.324219 Z M 530.5625 381.507812 " fill-opacity="1" fill-rule="nonzero"/><path fill="#1c82ba" d="M 481.101562 356.128906 L 468.671875 349.675781 C 468.355469 349.523438 468.03125 349.40625 467.695312 349.316406 C 467.359375 349.230469 467.015625 349.175781 466.667969 349.152344 C 466.320312 349.132812 465.976562 349.144531 465.628906 349.191406 C 465.285156 349.234375 464.949219 349.3125 464.617188 349.425781 C 464.289062 349.535156 463.972656 349.675781 463.671875 349.847656 C 463.367188 350.019531 463.085938 350.222656 462.820312 350.449219 C 462.558594 350.675781 462.320312 350.925781 462.105469 351.199219 C 461.890625 351.472656 461.703125 351.761719 461.542969 352.074219 C 461.386719 352.382812 461.257812 352.703125 461.164062 353.039062 C 461.066406 353.371094 461.003906 353.710938 460.972656 354.058594 C 460.945312 354.40625 460.949219 354.75 460.984375 355.097656 C 461.023438 355.441406 461.09375 355.78125 461.195312 356.113281 C 461.300781 356.445312 461.433594 356.765625 461.597656 357.070312 C 461.761719 357.375 461.957031 357.664062 462.175781 357.933594 C 462.398438 358.199219 462.640625 358.445312 462.910156 358.667969 C 463.179688 358.886719 463.464844 359.082031 463.773438 359.246094 L 476.203125 365.644531 C 476.515625 365.796875 476.835938 365.917969 477.171875 366.007812 C 477.507812 366.097656 477.847656 366.15625 478.195312 366.179688 C 478.542969 366.203125 478.886719 366.191406 479.234375 366.148438 C 479.578125 366.105469 479.914062 366.027344 480.242188 365.917969 C 480.574219 365.808594 480.890625 365.667969 481.191406 365.5 C 481.496094 365.328125 481.777344 365.128906 482.042969 364.902344 C 482.304688 364.679688 482.542969 364.429688 482.761719 364.15625 C 482.976562 363.886719 483.164062 363.59375 483.320312 363.285156 C 483.480469 362.976562 483.609375 362.65625 483.703125 362.324219 C 483.800781 361.988281 483.863281 361.648438 483.894531 361.304688 C 483.925781 360.957031 483.921875 360.613281 483.882812 360.269531 C 483.847656 359.921875 483.777344 359.585938 483.675781 359.253906 C 483.570312 358.921875 483.4375 358.605469 483.273438 358.296875 C 483.109375 357.992188 482.914062 357.707031 482.695312 357.4375 C 482.472656 357.171875 482.230469 356.925781 481.960938 356.707031 C 481.691406 356.484375 481.40625 356.292969 481.101562 356.128906 Z M 481.101562 356.128906 " fill-opacity="1" fill-rule="nonzero"/><path fill="#1c82ba" d="M 506.019531 368.925781 L 493.589844 362.527344 C 493.277344 362.375 492.953125 362.253906 492.617188 362.164062 C 492.285156 362.074219 491.941406 362.019531 491.597656 361.996094 C 491.25 361.972656 490.90625 361.984375 490.5625 362.027344 C 490.21875 362.070312 489.882812 362.144531 489.550781 362.253906 C 489.222656 362.363281 488.90625 362.503906 488.605469 362.671875 C 488.300781 362.839844 488.019531 363.039062 487.753906 363.261719 C 487.492188 363.488281 487.25 363.734375 487.035156 364.007812 C 486.820312 364.277344 486.628906 364.566406 486.472656 364.875 C 486.3125 365.183594 486.183594 365.5 486.085938 365.832031 C 485.984375 366.167969 485.921875 366.503906 485.890625 366.851562 C 485.855469 367.195312 485.859375 367.539062 485.890625 367.882812 C 485.925781 368.230469 485.996094 368.566406 486.09375 368.898438 C 486.195312 369.230469 486.328125 369.550781 486.488281 369.855469 C 486.652344 370.164062 486.839844 370.449219 487.058594 370.71875 C 487.277344 370.988281 487.519531 371.234375 487.785156 371.457031 C 488.050781 371.679688 488.335938 371.875 488.636719 372.042969 L 501.066406 378.492188 C 501.382812 378.644531 501.707031 378.761719 502.042969 378.851562 C 502.378906 378.9375 502.71875 378.992188 503.066406 379.015625 C 503.414062 379.035156 503.757812 379.023438 504.105469 378.980469 C 504.449219 378.933594 504.785156 378.859375 505.117188 378.746094 C 505.445312 378.636719 505.761719 378.496094 506.0625 378.324219 C 506.367188 378.152344 506.648438 377.957031 506.914062 377.730469 C 507.175781 377.503906 507.417969 377.253906 507.632812 376.984375 C 507.847656 376.710938 508.035156 376.421875 508.195312 376.113281 C 508.355469 375.804688 508.484375 375.480469 508.582031 375.148438 C 508.679688 374.816406 508.742188 374.476562 508.777344 374.128906 C 508.808594 373.785156 508.804688 373.4375 508.769531 373.09375 C 508.734375 372.746094 508.667969 372.410156 508.566406 372.078125 C 508.464844 371.746094 508.335938 371.425781 508.171875 371.117188 C 508.007812 370.8125 507.820312 370.523438 507.601562 370.253906 C 507.382812 369.980469 507.140625 369.734375 506.875 369.511719 C 506.609375 369.289062 506.324219 369.09375 506.019531 368.925781 Z M 506.019531 368.925781 " fill-opacity="1" fill-rule="nonzero"/><path fill="#1c82ba" d="M 451.339844 352.847656 L 439.5 346.664062 L 444.449219 337.148438 L 456.289062 343.277344 C 456.59375 343.445312 456.878906 343.644531 457.144531 343.867188 C 457.410156 344.089844 457.648438 344.335938 457.867188 344.609375 C 458.085938 344.878906 458.273438 345.167969 458.433594 345.472656 C 458.597656 345.78125 458.726562 346.097656 458.828125 346.429688 C 458.929688 346.761719 458.996094 347.101562 459.03125 347.445312 C 459.066406 347.789062 459.066406 348.136719 459.035156 348.480469 C 459.003906 348.828125 458.9375 349.164062 458.839844 349.496094 C 458.742188 349.832031 458.613281 350.152344 458.453125 350.457031 C 458.296875 350.765625 458.109375 351.058594 457.894531 351.328125 C 457.675781 351.601562 457.4375 351.847656 457.175781 352.074219 C 456.910156 352.300781 456.628906 352.5 456.328125 352.671875 C 456.027344 352.839844 455.710938 352.980469 455.382812 353.09375 C 455.050781 353.203125 454.714844 353.28125 454.371094 353.328125 C 454.027344 353.371094 453.683594 353.386719 453.335938 353.363281 C 452.992188 353.34375 452.648438 353.289062 452.3125 353.203125 C 451.976562 353.117188 451.652344 352.996094 451.339844 352.847656 Z M 451.339844 352.847656 " fill-opacity="1" fill-rule="nonzero"/><path fill="#eeeeee" d="M 522.285156 304.710938 L 509.949219 328.601562 C 509.785156 328.910156 509.589844 329.199219 509.367188 329.46875 C 509.144531 329.738281 508.898438 329.980469 508.628906 330.203125 C 508.359375 330.425781 508.070312 330.617188 507.765625 330.78125 C 507.457031 330.949219 507.136719 331.082031 506.804688 331.183594 C 506.46875 331.289062 506.128906 331.359375 505.78125 331.394531 C 505.433594 331.429688 505.085938 331.433594 504.738281 331.402344 C 504.390625 331.371094 504.050781 331.308594 503.714844 331.210938 C 503.378906 331.113281 503.054688 330.984375 502.746094 330.824219 C 502.4375 330.667969 502.144531 330.476562 501.871094 330.261719 C 501.597656 330.042969 501.347656 329.804688 501.121094 329.539062 C 500.894531 329.273438 500.695312 328.988281 500.523438 328.683594 C 500.351562 328.378906 500.210938 328.0625 500.101562 327.730469 C 499.992188 327.398438 499.917969 327.0625 499.875 326.714844 C 499.828125 326.371094 499.820312 326.023438 499.84375 325.675781 C 499.867188 325.328125 499.925781 324.984375 500.015625 324.648438 C 500.109375 324.3125 500.230469 323.984375 500.382812 323.671875 L 512.71875 299.777344 C 512.886719 299.472656 513.078125 299.183594 513.300781 298.914062 C 513.523438 298.644531 513.769531 298.398438 514.039062 298.179688 C 514.308594 297.957031 514.597656 297.761719 514.90625 297.597656 C 515.214844 297.433594 515.535156 297.296875 515.867188 297.195312 C 516.203125 297.09375 516.542969 297.023438 516.890625 296.984375 C 517.234375 296.949219 517.582031 296.945312 517.933594 296.976562 C 518.28125 297.007812 518.621094 297.070312 518.957031 297.167969 C 519.292969 297.265625 519.613281 297.394531 519.925781 297.554688 C 520.234375 297.714844 520.527344 297.902344 520.800781 298.117188 C 521.074219 298.335938 521.324219 298.578125 521.550781 298.84375 C 521.777344 299.109375 521.976562 299.394531 522.148438 299.695312 C 522.320312 300 522.460938 300.320312 522.570312 300.648438 C 522.679688 300.980469 522.753906 301.320312 522.796875 301.667969 C 522.84375 302.011719 522.851562 302.359375 522.828125 302.707031 C 522.804688 303.054688 522.746094 303.398438 522.652344 303.734375 C 522.5625 304.070312 522.441406 304.398438 522.285156 304.710938 Z M 522.285156 304.710938 " fill-opacity="1" fill-rule="nonzero"/><path fill="#eeeeee" d="M 531.789062 309.769531 L 519.449219 333.664062 C 519.292969 333.976562 519.171875 334.304688 519.078125 334.640625 C 518.988281 334.976562 518.929688 335.320312 518.90625 335.667969 C 518.882812 336.015625 518.890625 336.363281 518.933594 336.707031 C 518.976562 337.054688 519.054688 337.394531 519.164062 337.726562 C 519.273438 338.054688 519.414062 338.375 519.585938 338.679688 C 519.753906 338.984375 519.953125 339.265625 520.179688 339.53125 C 520.40625 339.796875 520.660156 340.039062 520.933594 340.257812 C 521.207031 340.472656 521.496094 340.660156 521.808594 340.820312 C 522.117188 340.980469 522.441406 341.109375 522.777344 341.207031 C 523.113281 341.304688 523.453125 341.367188 523.800781 341.398438 C 524.148438 341.429688 524.496094 341.425781 524.84375 341.390625 C 525.191406 341.351562 525.53125 341.28125 525.867188 341.179688 C 526.199219 341.078125 526.519531 340.941406 526.828125 340.777344 C 527.136719 340.613281 527.425781 340.417969 527.695312 340.195312 C 527.964844 339.976562 528.210938 339.730469 528.429688 339.460938 C 528.652344 339.191406 528.847656 338.902344 529.011719 338.597656 L 541.355469 314.703125 C 541.507812 314.390625 541.632812 314.0625 541.722656 313.726562 C 541.8125 313.390625 541.871094 313.046875 541.894531 312.699219 C 541.917969 312.351562 541.910156 312.003906 541.867188 311.660156 C 541.824219 311.3125 541.746094 310.972656 541.636719 310.644531 C 541.527344 310.3125 541.386719 309.996094 541.214844 309.691406 C 541.042969 309.386719 540.84375 309.101562 540.617188 308.835938 C 540.390625 308.570312 540.140625 308.332031 539.867188 308.113281 C 539.59375 307.898438 539.304688 307.707031 538.992188 307.546875 C 538.683594 307.386719 538.359375 307.261719 538.023438 307.164062 C 537.6875 307.066406 537.347656 307 537 306.972656 C 536.652344 306.941406 536.304688 306.941406 535.957031 306.980469 C 535.609375 307.015625 535.269531 307.085938 534.9375 307.1875 C 534.601562 307.292969 534.28125 307.425781 533.972656 307.589844 C 533.667969 307.757812 533.378906 307.949219 533.109375 308.171875 C 532.839844 308.394531 532.59375 308.636719 532.371094 308.90625 C 532.148438 309.175781 531.953125 309.464844 531.789062 309.769531 Z M 531.789062 309.769531 " fill-opacity="1" fill-rule="nonzero"/><path fill="#eeeeee" d="M 503.222656 294.71875 L 490.886719 318.613281 C 490.722656 318.921875 490.527344 319.207031 490.304688 319.476562 C 490.082031 319.746094 489.835938 319.992188 489.566406 320.214844 C 489.296875 320.433594 489.007812 320.628906 488.703125 320.792969 C 488.394531 320.960938 488.074219 321.09375 487.738281 321.195312 C 487.40625 321.300781 487.066406 321.371094 486.71875 321.40625 C 486.371094 321.441406 486.023438 321.445312 485.675781 321.414062 C 485.328125 321.382812 484.984375 321.320312 484.652344 321.222656 C 484.316406 321.125 483.992188 320.996094 483.683594 320.835938 C 483.371094 320.679688 483.078125 320.488281 482.804688 320.273438 C 482.53125 320.054688 482.28125 319.816406 482.054688 319.550781 C 481.828125 319.285156 481.628906 319 481.457031 318.695312 C 481.289062 318.390625 481.148438 318.074219 481.039062 317.742188 C 480.929688 317.410156 480.851562 317.074219 480.808594 316.726562 C 480.765625 316.378906 480.757812 316.03125 480.78125 315.683594 C 480.804688 315.335938 480.863281 314.996094 480.953125 314.65625 C 481.042969 314.320312 481.167969 313.996094 481.320312 313.683594 L 493.65625 289.789062 C 493.824219 289.484375 494.015625 289.195312 494.238281 288.925781 C 494.460938 288.65625 494.707031 288.410156 494.976562 288.191406 C 495.246094 287.96875 495.535156 287.777344 495.84375 287.609375 C 496.148438 287.445312 496.46875 287.3125 496.804688 287.207031 C 497.136719 287.105469 497.476562 287.035156 497.824219 287 C 498.171875 286.960938 498.519531 286.960938 498.867188 286.988281 C 499.214844 287.019531 499.558594 287.085938 499.890625 287.183594 C 500.226562 287.277344 500.550781 287.40625 500.859375 287.566406 C 501.171875 287.726562 501.460938 287.914062 501.734375 288.132812 C 502.007812 288.347656 502.257812 288.589844 502.484375 288.855469 C 502.710938 289.121094 502.910156 289.40625 503.082031 289.710938 C 503.253906 290.011719 503.394531 290.332031 503.503906 290.660156 C 503.613281 290.992188 503.691406 291.332031 503.734375 291.675781 C 503.777344 292.023438 503.785156 292.371094 503.761719 292.71875 C 503.738281 293.066406 503.679688 293.410156 503.589844 293.746094 C 503.5 294.082031 503.375 294.40625 503.222656 294.71875 Z M 503.222656 294.71875 " fill-opacity="1" fill-rule="nonzero"/><path fill="#ffc107" d="M 564.480469 381.132812 L 564.585938 381.535156 L 427.101562 481.625 C 425.503906 482.777344 423.824219 483.792969 422.066406 484.679688 C 420.308594 485.566406 418.492188 486.3125 416.617188 486.914062 C 414.742188 487.515625 412.828125 487.96875 410.882812 488.269531 C 408.9375 488.570312 406.976562 488.71875 405.007812 488.714844 C 403.039062 488.707031 401.082031 488.550781 399.136719 488.234375 C 397.191406 487.921875 395.285156 487.460938 393.410156 486.847656 C 391.539062 486.234375 389.726562 485.480469 387.972656 484.582031 C 386.21875 483.6875 384.546875 482.660156 382.957031 481.5 L 245.847656 380.527344 C 244.324219 383.042969 243.554688 385.773438 243.539062 388.710938 L 243.539062 544.640625 C 243.539062 545.167969 243.566406 545.695312 243.617188 546.21875 C 243.667969 546.746094 243.746094 547.269531 243.851562 547.785156 C 243.953125 548.304688 244.082031 548.816406 244.238281 549.320312 C 244.390625 549.824219 244.570312 550.320312 244.773438 550.808594 C 244.972656 551.296875 245.199219 551.773438 245.449219 552.238281 C 245.699219 552.707031 245.972656 553.160156 246.265625 553.597656 C 246.558594 554.035156 246.875 554.460938 247.207031 554.867188 C 247.542969 555.277344 247.898438 555.667969 248.273438 556.039062 C 248.644531 556.414062 249.039062 556.769531 249.445312 557.101562 C 249.855469 557.4375 250.277344 557.753906 250.71875 558.046875 C 251.15625 558.339844 251.609375 558.609375 252.078125 558.859375 C 252.542969 559.109375 253.019531 559.335938 253.507812 559.539062 C 253.996094 559.738281 254.492188 559.917969 255 560.070312 C 255.503906 560.226562 256.015625 560.355469 256.535156 560.457031 C 257.054688 560.5625 257.578125 560.640625 258.101562 560.691406 C 258.628906 560.742188 259.15625 560.769531 259.683594 560.769531 L 550.316406 560.769531 C 550.84375 560.769531 551.371094 560.742188 551.898438 560.691406 C 552.421875 560.640625 552.945312 560.5625 553.464844 560.457031 C 553.984375 560.355469 554.496094 560.226562 555 560.070312 C 555.507812 559.917969 556.003906 559.738281 556.492188 559.539062 C 556.980469 559.335938 557.457031 559.109375 557.921875 558.859375 C 558.390625 558.609375 558.84375 558.339844 559.28125 558.046875 C 559.722656 557.753906 560.144531 557.4375 560.554688 557.101562 C 560.960938 556.769531 561.355469 556.414062 561.726562 556.039062 C 562.101562 555.667969 562.457031 555.277344 562.792969 554.867188 C 563.125 554.460938 563.441406 554.035156 563.734375 553.597656 C 564.027344 553.160156 564.300781 552.707031 564.550781 552.238281 C 564.800781 551.773438 565.027344 551.296875 565.226562 550.808594 C 565.429688 550.320312 565.609375 549.824219 565.761719 549.320312 C 565.917969 548.816406 566.046875 548.304688 566.148438 547.785156 C 566.253906 547.269531 566.332031 546.746094 566.382812 546.21875 C 566.433594 545.695312 566.460938 545.167969 566.460938 544.640625 L 566.460938 388.710938 C 566.441406 386.019531 565.78125 383.492188 564.480469 381.132812 Z M 564.480469 381.132812 " fill-opacity="1" fill-rule="nonzero"/><path fill="#ffa000" d="M 565.007812 551.308594 C 564.6875 552.007812 564.320312 552.683594 563.90625 553.332031 C 563.488281 553.976562 563.027344 554.59375 562.523438 555.175781 C 562.019531 555.757812 561.476562 556.300781 560.894531 556.808594 C 560.3125 557.3125 559.699219 557.773438 559.050781 558.191406 C 558.402344 558.609375 557.730469 558.976562 557.027344 559.296875 C 556.328125 559.617188 555.609375 559.890625 554.867188 560.105469 C 554.128906 560.324219 553.378906 560.488281 552.617188 560.601562 C 551.851562 560.710938 551.085938 560.769531 550.316406 560.769531 L 259.683594 560.769531 C 258.144531 560.769531 256.636719 560.550781 255.160156 560.117188 C 253.683594 559.683594 252.296875 559.054688 251 558.226562 C 249.703125 557.398438 248.546875 556.402344 247.535156 555.246094 C 246.523438 554.085938 245.691406 552.808594 245.046875 551.414062 L 382.933594 451.835938 C 384.527344 450.675781 386.203125 449.648438 387.957031 448.75 C 389.710938 447.855469 391.527344 447.097656 393.402344 446.488281 C 395.273438 445.875 397.183594 445.414062 399.132812 445.101562 C 401.078125 444.789062 403.039062 444.628906 405.007812 444.625 C 406.980469 444.621094 408.941406 444.769531 410.890625 445.070312 C 412.835938 445.375 414.75 445.828125 416.628906 446.429688 C 418.503906 447.035156 420.320312 447.777344 422.082031 448.667969 C 423.839844 449.554688 425.519531 450.578125 427.121094 451.726562 Z M 565.007812 551.308594 " fill-opacity="1" fill-rule="nonzero"/></svg>