<svg xmlns="http://www.w3.org/2000/svg" xmlns:xlink="http://www.w3.org/1999/xlink" width="1080" zoomAndPan="magnify" viewBox="0 0 810 809.999993" height="1080" preserveAspectRatio="xMidYMid meet" version="1.0"><defs><clipPath id="1701260ee1"><path d="M 459 311 L 563.835938 311 L 563.835938 416 L 459 416 Z M 459 311 " clip-rule="nonzero"/></clipPath></defs><path fill="#97d729" d="M 456.652344 294.835938 C 456.652344 296.535156 456.566406 298.230469 456.402344 299.917969 C 456.234375 301.609375 455.984375 303.285156 455.65625 304.949219 C 455.324219 306.617188 454.914062 308.261719 454.421875 309.886719 C 453.929688 311.507812 453.359375 313.105469 452.707031 314.675781 C 452.058594 316.242188 451.335938 317.777344 450.535156 319.273438 C 449.738281 320.769531 448.867188 322.226562 447.921875 323.636719 C 446.980469 325.046875 445.972656 326.410156 444.894531 327.722656 C 443.820312 329.035156 442.683594 330.292969 441.484375 331.492188 C 440.285156 332.691406 439.027344 333.832031 437.71875 334.910156 C 436.40625 335.984375 435.046875 336.996094 433.636719 337.9375 C 432.226562 338.882812 430.773438 339.753906 429.277344 340.554688 C 427.78125 341.355469 426.25 342.078125 424.683594 342.730469 C 423.117188 343.378906 421.523438 343.949219 419.898438 344.441406 C 418.277344 344.9375 416.632812 345.347656 414.96875 345.679688 C 413.304688 346.011719 411.628906 346.257812 409.941406 346.425781 C 408.253906 346.589844 406.5625 346.675781 404.867188 346.675781 C 403.171875 346.675781 401.480469 346.589844 399.789062 346.425781 C 398.101562 346.257812 396.425781 346.011719 394.765625 345.679688 C 393.101562 345.347656 391.457031 344.9375 389.835938 344.441406 C 388.210938 343.949219 386.617188 343.378906 385.050781 342.730469 C 383.484375 342.078125 381.953125 341.355469 380.457031 340.554688 C 378.960938 339.753906 377.507812 338.882812 376.097656 337.9375 C 374.6875 336.996094 373.324219 335.984375 372.015625 334.910156 C 370.703125 333.832031 369.449219 332.691406 368.25 331.492188 C 367.050781 330.292969 365.914062 329.035156 364.835938 327.722656 C 363.761719 326.410156 362.75 325.046875 361.808594 323.636719 C 360.867188 322.226562 359.996094 320.769531 359.195312 319.273438 C 358.398438 317.777344 357.671875 316.242188 357.023438 314.675781 C 356.375 313.105469 355.804688 311.507812 355.3125 309.886719 C 354.820312 308.261719 354.410156 306.617188 354.078125 304.949219 C 353.746094 303.285156 353.496094 301.609375 353.332031 299.917969 C 353.164062 298.230469 353.082031 296.535156 353.082031 294.835938 C 353.082031 293.140625 353.164062 291.445312 353.332031 289.757812 C 353.496094 288.066406 353.746094 286.390625 354.078125 284.722656 C 354.410156 283.058594 354.820312 281.414062 355.3125 279.789062 C 355.804688 278.164062 356.375 276.570312 357.023438 275 C 357.671875 273.429688 358.398438 271.898438 359.195312 270.402344 C 359.996094 268.902344 360.867188 267.449219 361.808594 266.039062 C 362.75 264.625 363.761719 263.265625 364.835938 261.953125 C 365.914062 260.640625 367.050781 259.382812 368.25 258.183594 C 369.449219 256.980469 370.703125 255.84375 372.015625 254.765625 C 373.324219 253.691406 374.6875 252.679688 376.097656 251.734375 C 377.507812 250.792969 378.960938 249.921875 380.457031 249.121094 C 381.953125 248.320312 383.484375 247.59375 385.050781 246.945312 C 386.617188 246.296875 388.210938 245.726562 389.835938 245.230469 C 391.457031 244.738281 393.101562 244.328125 394.765625 243.996094 C 396.425781 243.664062 398.101562 243.417969 399.789062 243.25 C 401.480469 243.082031 403.171875 243 404.867188 243 C 406.5625 243 408.253906 243.082031 409.941406 243.25 C 411.628906 243.417969 413.304688 243.664062 414.96875 243.996094 C 416.632812 244.328125 418.277344 244.738281 419.898438 245.230469 C 421.523438 245.726562 423.117188 246.296875 424.683594 246.945312 C 426.25 247.59375 427.78125 248.320312 429.277344 249.121094 C 430.773438 249.921875 432.226562 250.792969 433.636719 251.734375 C 435.046875 252.679688 436.40625 253.691406 437.71875 254.765625 C 439.027344 255.84375 440.285156 256.980469 441.484375 258.183594 C 442.683594 259.382812 443.820312 260.640625 444.894531 261.953125 C 445.972656 263.265625 446.980469 264.625 447.921875 266.039062 C 448.867188 267.449219 449.738281 268.902344 450.535156 270.402344 C 451.335938 271.898438 452.058594 273.429688 452.707031 275 C 453.359375 276.570312 453.929688 278.164062 454.421875 279.789062 C 454.914062 281.414062 455.324219 283.058594 455.65625 284.722656 C 455.984375 286.390625 456.234375 288.066406 456.402344 289.757812 C 456.566406 291.445312 456.652344 293.140625 456.652344 294.835938 Z M 456.652344 294.835938 " fill-opacity="1" fill-rule="nonzero"/><path fill="#8bc727" d="M 380.265625 294.835938 C 380.265625 270.902344 396.433594 250.808594 418.457031 244.828125 C 414.117188 243.628906 409.585938 243 404.867188 243 C 376.300781 243 353.082031 266.179688 353.082031 294.835938 C 353.082031 323.496094 376.238281 346.675781 404.867188 346.675781 C 409.585938 346.675781 414.117188 346.046875 418.457031 344.847656 C 396.433594 338.863281 380.265625 318.773438 380.265625 294.835938 Z M 380.265625 294.835938 " fill-opacity="1" fill-rule="nonzero"/><path fill="#ffffff" d="M 401.34375 315.054688 C 400.148438 315.054688 398.953125 314.613281 398.007812 313.671875 L 376.613281 292.253906 C 374.789062 290.429688 374.789062 287.40625 376.613281 285.578125 C 378.441406 283.75 381.460938 283.75 383.285156 285.578125 L 401.34375 303.65625 L 426.386719 278.585938 C 428.210938 276.761719 431.230469 276.761719 433.054688 278.585938 C 434.878906 280.414062 434.878906 283.4375 433.054688 285.261719 L 404.675781 313.671875 C 403.796875 314.613281 402.601562 315.054688 401.34375 315.054688 Z M 401.34375 315.054688 " fill-opacity="1" fill-rule="nonzero"/><path fill="#d88a55" d="M 488.929688 379.238281 L 449.792969 418.351562 C 447.527344 420.621094 444.507812 421.878906 441.359375 421.878906 C 438.152344 421.878906 435.195312 420.621094 432.929688 418.351562 L 432.046875 419.234375 L 468.542969 455.765625 L 516.992188 407.265625 Z M 488.929688 379.238281 " fill-opacity="1" fill-rule="nonzero"/><path fill="#ffe5c2" d="M 487.480469 473.90625 L 432.425781 418.792969 L 432.867188 418.351562 L 426.890625 412.371094 C 423.804688 409.28125 419.714844 407.582031 415.3125 407.582031 C 410.96875 407.582031 406.816406 409.28125 403.734375 412.371094 L 389.890625 426.289062 C 387.121094 429.0625 383.410156 430.574219 379.507812 430.574219 C 375.609375 430.574219 371.894531 429.0625 369.128906 426.289062 C 366.359375 423.519531 364.847656 419.800781 364.847656 415.898438 C 364.847656 411.992188 366.359375 408.273438 369.128906 405.503906 L 375.417969 399.332031 L 376.488281 397.378906 L 343.140625 364.121094 L 291.167969 416.148438 L 322.503906 447.515625 C 324.832031 449.847656 326.84375 452.554688 328.417969 455.390625 L 329.234375 454.570312 C 331.5625 452.238281 334.648438 450.917969 337.980469 450.917969 C 341.441406 450.917969 344.777344 452.367188 347.105469 454.949219 C 351.507812 459.734375 351.195312 467.546875 346.414062 472.332031 L 347.292969 473.214844 L 351.007812 469.496094 C 353.335938 467.167969 356.417969 465.90625 359.753906 465.90625 C 363.148438 465.90625 366.296875 467.230469 368.625 469.6875 C 373.28125 474.535156 373.21875 482.285156 368.496094 487.007812 L 362.519531 492.992188 L 363.402344 493.875 C 365.730469 491.542969 368.8125 490.28125 372.148438 490.28125 C 375.546875 490.28125 378.691406 491.605469 381.019531 494.0625 C 385.675781 498.914062 385.613281 506.660156 380.894531 511.382812 L 373.65625 518.625 L 374.539062 519.507812 C 376.867188 517.179688 379.949219 515.917969 383.285156 515.917969 C 386.683594 515.917969 389.828125 517.242188 392.15625 519.699219 C 396.8125 524.546875 396.75 532.292969 392.03125 537.019531 L 384.667969 544.386719 L 401.21875 560.953125 C 407.195312 566.9375 416.882812 566.9375 422.925781 560.953125 C 428.964844 554.96875 428.902344 545.269531 422.925781 539.222656 C 428.902344 545.207031 438.59375 545.207031 444.632812 539.222656 C 450.609375 533.238281 450.609375 523.539062 444.632812 517.492188 C 450.609375 523.476562 460.300781 523.476562 466.339844 517.492188 C 472.378906 511.507812 472.316406 501.808594 466.339844 495.761719 C 472.445312 501.871094 482.449219 501.746094 488.425781 495.386719 C 493.835938 489.402344 493.394531 479.828125 487.480469 473.90625 Z M 487.480469 473.90625 " fill-opacity="1" fill-rule="nonzero"/><path fill="#fed2a4" d="M 368.183594 469.371094 L 369.0625 468.488281 L 319.609375 418.351562 C 318.414062 417.09375 318.414062 415.140625 319.609375 413.945312 L 356.226562 377.285156 L 343.078125 364.121094 L 291.105469 416.148438 L 322.441406 447.515625 C 324.769531 449.847656 326.78125 452.554688 328.355469 455.390625 L 329.171875 454.570312 C 331.5 452.238281 334.582031 450.917969 337.917969 450.917969 C 341.378906 450.917969 344.714844 452.367188 347.042969 454.949219 C 351.445312 459.734375 351.132812 467.546875 346.351562 472.332031 L 347.230469 473.214844 L 350.691406 469.75 C 352.957031 467.480469 356.039062 466.035156 359.25 465.90625 C 362.582031 465.84375 365.730469 467.042969 368.183594 469.371094 Z M 368.183594 469.371094 " fill-opacity="1" fill-rule="nonzero"/><path fill="#fed2a4" d="M 411.09375 539.664062 L 410.65625 540.105469 L 409.773438 539.222656 C 409.898438 539.097656 410.089844 538.910156 410.214844 538.71875 L 394.105469 522.59375 C 396.496094 527.253906 395.742188 533.113281 391.90625 537.019531 L 384.542969 544.386719 L 400.902344 560.765625 C 407.003906 566.875 417.074219 567 423.050781 560.828125 C 424.6875 559.125 425.820312 557.109375 426.511719 555.03125 Z M 411.09375 539.664062 " fill-opacity="1" fill-rule="nonzero"/><path fill="#c57a44" d="M 467.789062 358.074219 L 454.574219 371.300781 C 445.953125 379.929688 432.992188 382.640625 421.667969 378.105469 C 411.597656 374.074219 400.273438 375.773438 391.839844 382.199219 L 368.6875 405 C 362.710938 410.984375 362.710938 420.683594 368.6875 426.730469 C 374.664062 432.777344 384.355469 432.714844 390.394531 426.730469 L 404.300781 412.808594 C 410.464844 406.636719 420.40625 406.636719 426.574219 412.808594 L 432.550781 418.792969 C 437.460938 423.707031 445.449219 423.707031 450.359375 418.792969 L 489.496094 379.679688 Z M 467.789062 358.074219 " fill-opacity="1" fill-rule="nonzero"/><path fill="#d88a55" d="M 392.40625 519.257812 C 387.375 514.027344 379.007812 513.964844 373.910156 519.128906 L 381.144531 511.886719 C 386.179688 506.847656 386.242188 498.722656 381.269531 493.683594 C 376.238281 488.457031 367.867188 488.394531 362.773438 493.558594 L 368.75 487.574219 C 373.785156 482.535156 373.847656 474.410156 368.875 469.371094 C 363.84375 464.144531 355.472656 464.082031 350.375 469.246094 L 346.664062 472.960938 C 351.636719 467.984375 352.074219 459.921875 347.355469 454.695312 C 342.324219 449.214844 333.828125 449.027344 328.605469 454.253906 L 298.59375 484.238281 C 293.496094 489.339844 293.496094 497.527344 298.59375 502.628906 C 303.6875 507.730469 311.867188 507.730469 316.964844 502.628906 C 311.867188 507.730469 311.867188 515.917969 316.964844 521.019531 C 322.0625 526.121094 330.242188 526.121094 335.339844 521.019531 C 330.242188 526.121094 330.242188 534.308594 335.339844 539.414062 C 340.433594 544.515625 348.613281 544.515625 353.710938 539.414062 L 359.3125 533.804688 C 354.214844 538.910156 354.214844 547.097656 359.3125 552.199219 C 364.40625 557.300781 372.589844 557.300781 377.683594 552.199219 L 392.34375 537.523438 C 397.316406 532.421875 397.378906 524.359375 392.40625 519.257812 Z M 392.40625 519.257812 " fill-opacity="1" fill-rule="nonzero"/><path fill="#c57a44" d="M 312.058594 491.101562 L 342.132812 460.996094 C 344.148438 458.980469 346.664062 457.78125 349.308594 457.339844 C 348.804688 456.332031 348.175781 455.453125 347.417969 454.570312 C 342.386719 449.089844 333.890625 448.902344 328.667969 454.128906 L 298.59375 484.238281 C 293.496094 489.339844 293.496094 497.527344 298.59375 502.628906 C 301.613281 505.652344 305.828125 506.847656 309.730469 506.28125 C 307.214844 501.367188 307.96875 495.195312 312.058594 491.101562 Z M 312.058594 491.101562 " fill-opacity="1" fill-rule="nonzero"/><path fill="#c57a44" d="M 330.429688 509.242188 L 363.90625 475.734375 C 365.917969 473.71875 368.433594 472.519531 371.015625 472.082031 C 370.449219 471.074219 369.757812 470.128906 368.9375 469.246094 C 363.90625 464.019531 355.535156 463.953125 350.441406 469.121094 L 316.964844 502.628906 C 311.867188 507.730469 311.867188 515.917969 316.964844 521.019531 C 320.050781 524.105469 324.265625 525.304688 328.230469 524.671875 C 325.523438 519.699219 326.277344 513.398438 330.429688 509.242188 Z M 330.429688 509.242188 " fill-opacity="1" fill-rule="nonzero"/><path fill="#c57a44" d="M 348.742188 527.695312 L 376.238281 500.171875 C 378.25 498.15625 380.769531 496.960938 383.410156 496.519531 C 382.84375 495.449219 382.152344 494.503906 381.269531 493.621094 C 376.238281 488.394531 367.867188 488.332031 362.773438 493.496094 L 335.277344 521.019531 C 330.179688 526.121094 330.179688 534.308594 335.277344 539.414062 C 338.296875 542.433594 342.511719 543.632812 346.414062 543.066406 C 343.832031 538.089844 344.589844 531.855469 348.742188 527.695312 Z M 348.742188 527.695312 " fill-opacity="1" fill-rule="nonzero"/><path fill="#c57a44" d="M 372.589844 540.355469 L 387.25 525.679688 C 389.261719 523.664062 391.839844 522.40625 394.484375 522.027344 C 393.917969 521.019531 393.226562 520.074219 392.40625 519.195312 C 387.375 513.964844 379.007812 513.902344 373.910156 519.066406 L 359.25 533.742188 C 354.152344 538.84375 354.152344 547.035156 359.25 552.136719 C 362.269531 555.160156 366.421875 556.355469 370.324219 555.789062 C 367.679688 550.8125 368.433594 544.578125 372.589844 540.355469 Z M 372.589844 540.355469 " fill-opacity="1" fill-rule="nonzero"/><path fill="#0593fc" d="M 348.929688 359.144531 L 286.761719 421.375 C 285.378906 422.761719 283.113281 422.761719 281.730469 421.375 L 247.4375 387.113281 C 246.054688 385.726562 246.054688 383.457031 247.4375 382.074219 L 309.605469 319.84375 C 310.988281 318.457031 313.253906 318.457031 314.636719 319.84375 L 348.867188 354.105469 C 350.3125 355.492188 350.3125 357.761719 348.929688 359.144531 Z M 348.929688 359.144531 " fill-opacity="1" fill-rule="nonzero"/><path fill="#0182fc" d="M 274.492188 387.113281 C 273.109375 385.726562 273.109375 383.457031 274.492188 382.074219 L 325.648438 330.867188 L 314.636719 319.84375 C 313.253906 318.457031 310.988281 318.457031 309.605469 319.84375 L 247.4375 382.074219 C 246.054688 383.457031 246.054688 385.726562 247.4375 387.113281 L 281.667969 421.375 C 283.050781 422.761719 285.316406 422.761719 286.699219 421.375 L 297.710938 410.355469 Z M 274.492188 387.113281 " fill-opacity="1" fill-rule="nonzero"/><g clip-path="url(#1701260ee1)"><path fill="#fe646f" d="M 460.804688 352.027344 L 522.96875 414.257812 C 524.355469 415.644531 526.617188 415.644531 528.003906 414.257812 L 562.230469 379.996094 C 563.617188 378.609375 563.617188 376.339844 562.230469 374.957031 L 500.066406 312.726562 C 498.683594 311.339844 496.417969 311.339844 495.03125 312.726562 L 460.804688 346.988281 C 459.417969 348.375 459.417969 350.644531 460.804688 352.027344 Z M 460.804688 352.027344 " fill-opacity="1" fill-rule="nonzero"/></g><path fill="#fd4755" d="M 488.867188 352.027344 C 487.480469 350.644531 487.480469 348.375 488.867188 346.988281 L 511.582031 324.25 L 500.066406 312.726562 C 498.683594 311.339844 496.417969 311.339844 495.03125 312.726562 L 460.804688 346.988281 C 459.417969 348.375 459.417969 350.644531 460.804688 352.027344 L 522.96875 414.257812 C 524.355469 415.644531 526.617188 415.644531 528.003906 414.257812 L 539.515625 402.734375 Z M 488.867188 352.027344 " fill-opacity="1" fill-rule="nonzero"/></svg>