<svg xmlns="http://www.w3.org/2000/svg" xmlns:xlink="http://www.w3.org/1999/xlink" width="1080" zoomAndPan="magnify" viewBox="0 0 810 809.999993" height="1080" preserveAspectRatio="xMidYMid meet" version="1.0"><defs><clipPath id="be922b34a0"><path d="M 245.25 292.675781 L 553.890625 292.675781 L 553.890625 512.707031 L 245.25 512.707031 Z M 245.25 292.675781 " clip-rule="nonzero"/></clipPath><clipPath id="19337ef88c"><path d="M 245.25 333 L 554 333 L 554 390 L 245.25 390 Z M 245.25 333 " clip-rule="nonzero"/></clipPath><clipPath id="dcfab5ae95"><path d="M 481.851562 246.734375 L 625.5 246.734375 L 625.5 409 L 481.851562 409 Z M 481.851562 246.734375 " clip-rule="nonzero"/></clipPath></defs><g clip-path="url(#be922b34a0)"><path fill="#ffbb10" d="M 553.695312 322.527344 L 553.695312 482.929688 C 553.695312 499.375 540.375 512.707031 523.929688 512.707031 L 275.019531 512.707031 C 258.574219 512.707031 245.25 499.375 245.25 482.929688 L 245.25 322.527344 C 245.25 306.082031 258.574219 292.75 275.019531 292.75 L 523.929688 292.75 C 540.375 292.75 553.695312 306.082031 553.695312 322.527344 " fill-opacity="1" fill-rule="nonzero"/></g><g clip-path="url(#19337ef88c)"><path fill="#212121" d="M 245.25 389.90625 L 553.695312 389.90625 L 553.695312 333.632812 L 245.25 333.632812 Z M 245.25 389.90625 " fill-opacity="1" fill-rule="nonzero"/></g><path fill="#ffffff" d="M 390.6875 440.710938 L 295.949219 440.710938 C 291.566406 440.710938 288.011719 437.152344 288.011719 432.769531 C 288.011719 428.382812 291.566406 424.828125 295.949219 424.828125 L 390.6875 424.828125 C 395.070312 424.828125 398.628906 428.382812 398.628906 432.769531 C 398.628906 437.152344 395.070312 440.710938 390.6875 440.710938 " fill-opacity="1" fill-rule="nonzero"/><path fill="#ffffff" d="M 375.332031 478.972656 L 295.949219 478.972656 C 291.566406 478.972656 288.011719 475.417969 288.011719 471.035156 C 288.011719 466.648438 291.566406 463.09375 295.949219 463.09375 L 375.332031 463.09375 C 379.71875 463.09375 383.269531 466.648438 383.269531 471.035156 C 383.269531 475.417969 379.71875 478.972656 375.332031 478.972656 " fill-opacity="1" fill-rule="nonzero"/><path fill="#f73131" d="M 493.644531 471.035156 L 460.902344 471.035156 C 451.355469 471.035156 443.613281 463.292969 443.613281 453.742188 L 443.613281 450.0625 C 443.613281 440.511719 451.355469 432.769531 460.902344 432.769531 L 493.644531 432.769531 C 503.195312 432.769531 510.933594 440.511719 510.933594 450.0625 L 510.933594 453.742188 C 510.933594 463.292969 503.195312 471.035156 493.644531 471.035156 " fill-opacity="1" fill-rule="nonzero"/><path fill="#e0a40e" d="M 553.695312 427.273438 C 547.21875 427.273438 540.914062 425.421875 535.472656 421.914062 L 504.757812 402.152344 C 499.28125 398.628906 494.210938 394.515625 489.640625 389.90625 L 553.695312 389.90625 L 553.695312 427.273438 M 553.695312 333.632812 L 463.863281 333.632812 C 463.6875 331.332031 463.597656 329.027344 463.597656 326.71875 L 463.597656 292.75 L 523.929688 292.75 C 540.375 292.75 553.695312 306.082031 553.695312 322.527344 L 553.695312 333.632812 " fill-opacity="1" fill-rule="nonzero"/><path fill="#1d1d1d" d="M 553.695312 389.90625 L 489.640625 389.90625 C 483.707031 383.925781 478.609375 377.113281 474.558594 369.6875 C 468.492188 358.570312 464.847656 346.230469 463.863281 333.632812 L 553.695312 333.632812 L 553.695312 389.90625 " fill-opacity="1" fill-rule="nonzero"/><g clip-path="url(#dcfab5ae95)"><path fill="#05c954" d="M 625.511719 268.558594 L 625.511719 326.714844 C 625.511719 351.011719 613.167969 373.636719 592.746094 386.773438 L 562.03125 406.539062 C 559.492188 408.171875 556.59375 408.988281 553.695312 408.988281 C 550.796875 408.988281 547.898438 408.171875 545.359375 406.539062 L 514.648438 386.773438 C 494.222656 373.636719 481.878906 351.011719 481.878906 326.714844 L 481.878906 268.558594 C 481.878906 256.800781 493.386719 248.496094 504.542969 252.203125 C 508.839844 253.632812 513.3125 254.347656 517.785156 254.347656 C 522.257812 254.347656 526.730469 253.632812 531.035156 252.203125 L 541.589844 248.695312 C 545.519531 247.386719 549.605469 246.734375 553.695312 246.734375 C 557.785156 246.734375 561.875 247.386719 565.804688 248.695312 L 576.359375 252.203125 C 584.960938 255.0625 594.253906 255.0625 602.851562 252.203125 C 604.679688 251.597656 606.519531 251.308594 608.3125 251.308594 C 617.46875 251.308594 625.511719 258.726562 625.511719 268.558594 " fill-opacity="1" fill-rule="nonzero"/></g><path fill="#ffffff" d="M 553.710938 343.117188 C 552.15625 343.117188 550.703125 342.511719 549.605469 341.421875 L 533.472656 325.28125 C 531.085938 322.898438 531.085938 319.015625 533.472656 316.628906 C 534.625 315.476562 536.160156 314.84375 537.796875 314.84375 C 539.433594 314.84375 540.96875 315.476562 542.121094 316.628906 L 553.710938 328.214844 L 576.421875 305.496094 C 577.574219 304.34375 579.113281 303.710938 580.746094 303.710938 C 582.382812 303.710938 583.917969 304.34375 585.074219 305.496094 C 587.453125 307.882812 587.453125 311.765625 585.070312 314.148438 L 557.804688 341.425781 C 556.714844 342.515625 555.257812 343.117188 553.710938 343.117188 " fill-opacity="1" fill-rule="nonzero"/><path fill="#ffffff" d="M 553.695312 395.351562 C 553.351562 395.351562 553.023438 395.253906 552.734375 395.070312 L 522.023438 375.308594 C 519.449219 373.65625 516.992188 371.777344 514.710938 369.726562 C 513.804688 368.914062 512.910156 368.0625 512.058594 367.191406 C 510.679688 365.785156 509.359375 364.296875 508.136719 362.765625 C 506.046875 360.144531 504.171875 357.332031 502.570312 354.394531 C 497.953125 345.933594 495.511719 336.359375 495.511719 326.714844 L 495.511719 268.558594 C 495.511719 266.328125 497.363281 264.949219 499.082031 264.949219 C 499.460938 264.949219 499.851562 265.011719 500.242188 265.144531 C 505.910156 267.027344 511.8125 267.984375 517.785156 267.984375 C 523.761719 267.984375 529.664062 267.027344 535.332031 265.144531 L 545.890625 261.632812 C 548.410156 260.796875 551.035156 260.371094 553.695312 260.371094 C 556.359375 260.371094 558.984375 260.796875 561.503906 261.632812 L 572.058594 265.144531 C 577.730469 267.027344 583.632812 267.984375 589.605469 267.984375 C 595.578125 267.984375 601.484375 267.027344 607.152344 265.144531 C 607.542969 265.011719 607.933594 264.949219 608.3125 264.949219 C 610.027344 264.949219 611.882812 266.328125 611.882812 268.558594 L 611.882812 326.714844 C 611.882812 336.363281 609.441406 345.933594 604.824219 354.394531 C 603.324219 357.144531 601.578125 359.796875 599.640625 362.28125 C 598.296875 363.996094 596.851562 365.648438 595.332031 367.191406 C 594.472656 368.070312 593.578125 368.921875 592.683594 369.726562 C 590.398438 371.777344 587.9375 373.65625 585.371094 375.308594 L 554.65625 395.070312 C 554.371094 395.253906 554.039062 395.351562 553.695312 395.351562 Z M 608.3125 260.183594 C 607.421875 260.183594 606.527344 260.332031 605.648438 260.625 C 600.464844 262.347656 595.070312 263.222656 589.605469 263.222656 C 584.144531 263.222656 578.746094 262.347656 573.5625 260.625 L 563.003906 257.113281 C 559.996094 256.113281 556.863281 255.609375 553.695312 255.609375 C 550.527344 255.609375 547.394531 256.113281 544.386719 257.113281 L 533.832031 260.625 C 528.648438 262.347656 523.25 263.222656 517.785156 263.222656 C 512.324219 263.222656 506.925781 262.347656 501.746094 260.625 C 500.871094 260.332031 499.972656 260.183594 499.082031 260.183594 C 495.074219 260.183594 490.75 263.386719 490.75 268.558594 L 490.75 326.714844 C 490.75 337.152344 493.390625 347.511719 498.390625 356.675781 C 500.773438 361.042969 503.683594 365.125 507.046875 368.816406 C 507.996094 369.859375 508.988281 370.878906 509.996094 371.84375 C 510.925781 372.742188 511.898438 373.617188 512.886719 374.453125 C 514.953125 376.207031 517.164062 377.839844 519.445312 379.3125 L 550.160156 399.074219 C 551.214844 399.753906 552.441406 400.113281 553.695312 400.113281 C 554.953125 400.113281 556.175781 399.753906 557.234375 399.074219 L 587.945312 379.3125 C 590.230469 377.839844 592.4375 376.207031 594.507812 374.453125 C 595.488281 373.621094 596.460938 372.742188 597.398438 371.84375 C 598.546875 370.742188 599.671875 369.574219 600.738281 368.382812 C 603.9375 364.800781 606.71875 360.863281 609 356.675781 C 614 347.511719 616.644531 337.152344 616.644531 326.714844 L 616.644531 268.558594 C 616.644531 263.386719 612.316406 260.183594 608.3125 260.183594 " fill-opacity="1" fill-rule="nonzero"/></svg>