<svg xmlns="http://www.w3.org/2000/svg" xmlns:xlink="http://www.w3.org/1999/xlink" width="1080" zoomAndPan="magnify" viewBox="0 0 810 809.999993" height="1080" preserveAspectRatio="xMidYMid meet" version="1.0"><defs><clipPath id="518be39c1c"><path d="M 218.25 280.996094 L 542.25 280.996094 L 542.25 529.246094 L 218.25 529.246094 Z M 218.25 280.996094 " clip-rule="nonzero"/></clipPath><clipPath id="8df4f18857"><path d="M 355 388 L 542.25 388 L 542.25 529 L 355 529 Z M 355 388 " clip-rule="nonzero"/></clipPath><clipPath id="5be97c2f33"><path d="M 218.25 280.996094 L 520 280.996094 L 520 529 L 218.25 529 Z M 218.25 280.996094 " clip-rule="nonzero"/></clipPath><clipPath id="0e1a98fe46"><path d="M 243 298 L 540 298 L 540 529.246094 L 243 529.246094 Z M 243 298 " clip-rule="nonzero"/></clipPath></defs><g clip-path="url(#518be39c1c)"><path fill="#ffffff" d="M 542.234375 392.222656 L 542.234375 525.496094 C 542.234375 527.363281 540.714844 528.878906 538.847656 528.878906 L 468.441406 528.878906 C 468.375 528.914062 468.304688 528.933594 468.226562 528.933594 L 413.367188 528.933594 C 413.214844 528.976562 413.058594 529.003906 412.890625 529.003906 L 372.054688 529.003906 C 371.855469 529.003906 371.664062 528.957031 371.484375 528.878906 L 358.40625 528.878906 C 356.539062 528.878906 355.023438 527.363281 355.023438 525.496094 L 355.023438 512.667969 L 337.386719 466.300781 C 337.101562 465.542969 337.203125 464.691406 337.664062 464.027344 C 338.121094 463.359375 338.882812 462.960938 339.691406 462.960938 L 355.023438 462.960938 L 355.023438 415.632812 C 336.605469 409.707031 323.238281 392.417969 323.238281 372.054688 C 323.238281 346.816406 343.773438 326.28125 369.011719 326.28125 C 394.25 326.28125 414.78125 346.816406 414.78125 372.054688 C 414.78125 377.980469 413.636719 383.636719 411.582031 388.839844 L 502.808594 388.839844 L 499.957031 380.601562 C 499.894531 380.425781 499.941406 380.230469 500.074219 380.097656 C 500.203125 379.96875 500.398438 379.921875 500.574219 379.984375 L 520.695312 386.949219 C 520.890625 387.019531 521.023438 387.203125 521.019531 387.410156 C 521.019531 387.617188 520.886719 387.800781 520.691406 387.867188 L 517.792969 388.839844 L 538.847656 388.839844 C 540.714844 388.839844 542.234375 390.355469 542.234375 392.222656 Z M 473.652344 372.539062 C 498.890625 372.539062 519.421875 352.007812 519.421875 326.769531 C 519.421875 301.53125 498.890625 280.996094 473.652344 280.996094 C 448.410156 280.996094 427.878906 301.53125 427.878906 326.769531 C 427.878906 352.007812 448.410156 372.539062 473.652344 372.539062 Z M 309.8125 418.160156 C 309.8125 392.921875 289.28125 372.386719 264.042969 372.386719 C 238.804688 372.386719 218.269531 392.921875 218.269531 418.160156 C 218.269531 443.398438 238.804688 463.929688 264.042969 463.929688 C 289.28125 463.929688 309.8125 443.398438 309.8125 418.160156 Z M 333.386719 489.582031 C 333.335938 489.449219 333.234375 489.347656 333.101562 489.300781 C 332.972656 489.25 332.828125 489.265625 332.703125 489.328125 C 332.585938 489.390625 320.976562 495.574219 313.398438 492.042969 C 304.65625 487.964844 301.839844 479.84375 301.347656 478.195312 L 308.402344 472.695312 C 308.558594 472.574219 308.625 472.367188 308.566406 472.171875 C 308.507812 471.984375 308.339844 471.847656 308.140625 471.828125 L 286.242188 470.148438 C 285.984375 470.109375 285.746094 470.328125 285.722656 470.589844 L 283.929688 490.925781 C 283.914062 491.121094 284.011719 491.304688 284.183594 491.394531 C 284.359375 491.488281 284.566406 491.464844 284.71875 491.34375 L 290.027344 487.035156 C 291.257812 490.03125 297.128906 502.757812 309.378906 506.53125 C 312.015625 507.34375 314.710938 507.667969 317.347656 507.667969 C 328.0625 507.667969 337.714844 502.261719 337.832031 502.195312 C 338.042969 502.074219 338.132812 501.820312 338.046875 501.597656 Z M 333.386719 489.582031 " fill-opacity="1" fill-rule="nonzero"/></g><g clip-path="url(#8df4f18857)"><path fill="#f4f6fc" d="M 522.921875 423.300781 C 523.597656 423.570312 524.273438 423.875 524.9375 424.210938 C 522.75 428.78125 518.703125 430.34375 517.109375 430.796875 C 514.027344 431.667969 510.988281 431.191406 510.1875 429.710938 C 509.382812 428.21875 509.722656 426.347656 511.070312 424.832031 C 512.328125 423.421875 514.605469 422.210938 517.660156 422.210938 C 519.222656 422.210938 520.988281 422.527344 522.921875 423.300781 Z M 427.023438 524.3125 C 426.953125 524.203125 426.890625 524.082031 426.832031 523.957031 C 426.46875 524.378906 426.015625 524.667969 425.507812 524.730469 C 425.433594 524.742188 425.359375 524.746094 425.285156 524.746094 C 424.640625 524.746094 424.042969 524.386719 423.625 523.738281 C 422.933594 522.667969 422.710938 520.851562 422.925781 518.03125 C 422.933594 517.921875 422.945312 517.824219 422.957031 517.722656 C 422.746094 518.046875 422.53125 518.445312 422.328125 518.949219 C 422.164062 519.34375 422.050781 519.746094 421.941406 520.136719 C 421.71875 520.910156 421.511719 521.640625 420.980469 522.273438 C 420.609375 522.707031 419.769531 523.078125 418.957031 522.910156 C 418.285156 522.769531 417.800781 522.292969 417.585938 521.570312 C 417.128906 520.03125 417.140625 517.542969 418.546875 515.164062 C 418.585938 515.09375 418.636719 515.035156 418.679688 514.96875 L 395.882812 514.96875 L 392.46875 524.84375 C 392.429688 524.964844 392.449219 525.089844 392.519531 525.195312 C 392.535156 525.214844 392.558594 525.222656 392.574219 525.242188 C 392.617188 525.230469 392.65625 525.214844 392.703125 525.214844 L 428.121094 525.214844 C 427.699219 525.070312 427.316406 524.765625 427.023438 524.3125 Z M 451.882812 520.042969 C 451.730469 520.136719 451.5625 520.226562 451.414062 520.3125 C 451.152344 520.46875 450.890625 520.621094 450.636719 520.765625 C 447.082031 522.898438 440.230469 524.738281 433.636719 525.214844 L 451.832031 525.214844 L 451.957031 522.339844 C 451.765625 521.769531 451.703125 520.972656 451.882812 520.042969 Z M 374.832031 514.96875 L 357.59375 514.96875 C 356.996094 514.96875 356.433594 514.742188 355.992188 514.367188 C 355.6875 514.101562 355.441406 513.769531 355.292969 513.382812 L 355.023438 512.667969 L 355.023438 525.496094 C 355.023438 527.363281 356.539062 528.878906 358.40625 528.878906 L 371.484375 528.878906 C 371.234375 528.773438 371.011719 528.609375 370.851562 528.382812 C 370.746094 528.238281 370.683594 528.078125 370.636719 527.910156 C 370.5625 527.628906 370.558594 527.328125 370.65625 527.046875 Z M 542.234375 392.222656 L 542.234375 525.496094 C 542.234375 527.363281 540.714844 528.878906 538.847656 528.878906 L 503.246094 528.878906 C 503.386719 528.878906 503.519531 528.820312 503.609375 528.714844 C 503.703125 528.609375 503.746094 528.46875 503.726562 528.328125 L 503.667969 527.910156 L 503.308594 525.296875 C 512.527344 524.539062 518.109375 522.363281 519.433594 516.289062 C 520.707031 510.457031 519.492188 502.660156 519.441406 502.332031 C 519.441406 502.332031 519.4375 502.332031 519.4375 502.332031 C 517.945312 489.859375 514.410156 473.582031 510.175781 467.300781 C 505.15625 459.859375 493.832031 455.875 492.386719 455.390625 L 487.3125 449.261719 L 487.3125 444.242188 C 488.304688 444.703125 489.40625 444.96875 490.570312 444.96875 C 494.847656 444.96875 498.328125 441.488281 498.328125 437.210938 C 498.328125 433.695312 495.976562 430.722656 492.765625 429.773438 C 493.71875 425.386719 494.449219 418.648438 491.492188 414.132812 C 488.6875 409.851562 483.101562 409.804688 479.703125 410.246094 C 477.878906 409.960938 476.03125 409.933594 474.375 410.039062 C 468.003906 410.4375 465.664062 412.652344 464.140625 415.859375 C 463.863281 416.082031 463.597656 416.316406 463.359375 416.5625 C 463.351562 416.566406 463.347656 416.570312 463.34375 416.574219 C 463.335938 416.578125 463.332031 416.585938 463.328125 416.589844 C 463.320312 416.59375 463.316406 416.601562 463.308594 416.605469 C 463.304688 416.609375 463.304688 416.613281 463.296875 416.617188 C 460.730469 418.890625 461.457031 423.691406 461.488281 423.894531 C 461.488281 423.898438 461.492188 423.898438 461.492188 423.898438 C 461.722656 425.730469 462.089844 427.515625 462.414062 429.089844 C 462.503906 429.53125 462.589844 429.953125 462.671875 430.363281 C 460.222656 431.667969 458.550781 434.246094 458.550781 437.210938 C 458.550781 438.59375 458.917969 439.890625 459.554688 441.015625 C 458.984375 441.269531 456.535156 442.519531 456.089844 445.25 C 455.660156 447.871094 457.203125 449.679688 457.679688 450.164062 C 457.824219 451.484375 459.1875 452.527344 460.859375 452.527344 C 462.632812 452.527344 464.070312 451.363281 464.070312 449.933594 C 464.070312 448.503906 462.628906 447.339844 460.859375 447.339844 C 459.535156 447.339844 458.394531 447.992188 457.90625 448.917969 C 457.40625 448.214844 456.789062 446.976562 457.046875 445.40625 C 457.453125 442.929688 460.011719 441.871094 460.035156 441.863281 C 460.058594 441.855469 460.070312 441.835938 460.089844 441.828125 C 460.890625 442.898438 461.957031 443.761719 463.195312 444.308594 C 463.535156 445.292969 464.046875 446.257812 464.816406 447.171875 C 465.976562 448.554688 467.441406 449.605469 469.085938 450.265625 L 469.085938 451.507812 L 465.085938 457.621094 C 463.664062 457.839844 456.234375 459.308594 450.0625 466.644531 C 443.429688 474.535156 436.667969 500.972656 436.339844 502.265625 L 435.378906 505.425781 L 419.773438 464.398438 C 419.445312 463.535156 418.609375 462.960938 417.6875 462.960938 L 355.023438 462.960938 L 355.023438 415.632812 C 355.34375 415.734375 355.667969 415.832031 355.992188 415.929688 C 360.121094 417.15625 364.488281 417.824219 369.011719 417.824219 C 387.957031 417.824219 404.25 406.253906 411.199219 389.808594 C 411.332031 389.488281 411.453125 389.160156 411.582031 388.839844 L 502.808594 388.839844 L 503.144531 389.808594 L 506.921875 400.71875 C 506.992188 400.914062 507.175781 401.046875 507.378906 401.046875 C 507.382812 401.046875 507.382812 401.046875 507.382812 401.046875 C 507.585938 401.046875 507.769531 400.914062 507.839844 400.722656 L 511.132812 391.386719 C 513.722656 393.125 525.558594 401.816406 526.355469 415.800781 C 526.527344 418.882812 526.09375 421.347656 525.324219 423.320312 C 524.648438 422.980469 523.96875 422.671875 523.28125 422.398438 C 517.105469 419.933594 512.453125 421.820312 510.347656 424.183594 C 508.714844 426.015625 508.328125 428.308594 509.335938 430.167969 C 510.359375 432.066406 513.816406 432.734375 517.375 431.730469 C 520.59375 430.816406 523.875 428.542969 525.761719 424.644531 C 533.308594 428.800781 539.683594 436.988281 538.265625 444.390625 C 537.796875 446.832031 536.472656 448.742188 534.320312 450.078125 C 525.738281 455.390625 506.769531 450.175781 506.578125 450.125 C 506.320312 450.050781 506.054688 450.203125 505.980469 450.460938 C 505.910156 450.71875 506.058594 450.988281 506.316406 451.058594 C 506.835938 451.203125 515.027344 453.457031 523.140625 453.457031 C 527.445312 453.457031 531.726562 452.824219 534.828125 450.902344 C 537.21875 449.421875 538.699219 447.292969 539.21875 444.574219 C 540.722656 436.722656 534.046875 428.085938 526.152344 423.757812 C 527.039062 421.5625 527.5 418.90625 527.324219 415.746094 C 526.53125 401.824219 515.183594 393.011719 511.976562 390.789062 L 514.898438 389.808594 L 517.792969 388.839844 L 538.847656 388.839844 C 540.714844 388.839844 542.234375 390.355469 542.234375 392.222656 Z M 422.195312 420.214844 C 422.394531 420.148438 422.527344 419.964844 422.527344 419.757812 C 422.527344 419.550781 422.398438 419.363281 422.199219 419.296875 L 402.082031 412.332031 C 401.902344 412.269531 401.710938 412.3125 401.578125 412.445312 C 401.445312 412.578125 401.402344 412.773438 401.460938 412.949219 L 408.429688 433.070312 C 408.460938 433.167969 408.527344 433.246094 408.609375 433.304688 C 408.6875 433.363281 408.785156 433.394531 408.886719 433.394531 C 408.941406 433.394531 408.992188 433.386719 409.046875 433.367188 C 409.082031 433.355469 409.105469 433.332031 409.136719 433.316406 C 409.152344 433.304688 409.164062 433.300781 409.179688 433.289062 C 409.25 433.234375 409.300781 433.164062 409.332031 433.085938 C 409.335938 433.078125 409.34375 433.078125 409.34375 433.070312 L 412.765625 423.378906 Z M 431.691406 448.496094 C 428.070312 435.898438 419.796875 429.613281 419.714844 429.550781 C 419.5 429.390625 419.195312 429.433594 419.035156 429.648438 C 418.875 429.863281 418.917969 430.167969 419.132812 430.328125 C 419.214844 430.386719 427.230469 436.492188 430.761719 448.765625 C 434.289062 461.042969 429.71875 473.199219 429.671875 473.320312 C 429.574219 473.570312 429.699219 473.851562 429.949219 473.949219 C 430.007812 473.972656 430.066406 473.980469 430.125 473.980469 C 430.320312 473.980469 430.503906 473.863281 430.578125 473.671875 C 430.625 473.546875 435.316406 461.097656 431.691406 448.496094 Z M 431.691406 448.496094 " fill-opacity="1" fill-rule="nonzero"/></g><g clip-path="url(#5be97c2f33)"><path fill="#ff3131" d="M 503.667969 527.910156 L 503.722656 528.328125 C 503.742188 528.46875 503.703125 528.609375 503.609375 528.714844 C 503.519531 528.820312 503.382812 528.878906 503.242188 528.878906 L 468.441406 528.878906 C 468.601562 528.800781 468.714844 528.640625 468.714844 528.449219 L 468.714844 525.699219 C 468.714844 525.429688 468.496094 525.214844 468.226562 525.214844 L 452.804688 525.214844 L 452.878906 523.496094 C 452.882812 523.5 452.886719 523.503906 452.894531 523.507812 C 453.082031 523.613281 453.28125 523.699219 453.5 523.734375 C 453.613281 523.753906 453.726562 523.761719 453.839844 523.761719 C 454.335938 523.761719 454.835938 523.578125 455.261719 523.269531 C 455.261719 523.269531 455.261719 523.273438 455.261719 523.273438 C 455.605469 523.710938 456.191406 523.988281 456.867188 524.035156 C 456.933594 524.039062 457 524.042969 457.070312 524.042969 C 457.675781 524.042969 458.246094 523.847656 458.675781 523.515625 C 458.691406 523.535156 458.695312 523.558594 458.710938 523.578125 C 459.03125 523.984375 459.601562 524.234375 460.246094 524.25 C 460.269531 524.253906 460.292969 524.253906 460.316406 524.253906 C 461.085938 524.253906 461.820312 523.914062 462.34375 523.320312 C 462.519531 523.125 462.726562 522.867188 462.96875 522.574219 C 463.359375 522.09375 463.824219 521.527344 464.339844 520.964844 C 467.898438 525.066406 478.957031 525.78125 487.871094 525.78125 C 490.699219 525.78125 493.308594 525.710938 495.390625 525.65625 L 496.839844 525.617188 C 498.792969 525.570312 500.617188 525.488281 502.335938 525.367188 C 502.664062 525.34375 502.992188 525.324219 503.308594 525.296875 Z M 519.4375 502.328125 C 519.394531 502.066406 519.140625 501.886719 518.882812 501.925781 C 518.644531 501.964844 518.484375 502.171875 518.484375 502.40625 L 500.171875 502.40625 L 500.152344 502.3125 C 500.152344 502.308594 500.148438 502.308594 500.148438 502.304688 C 500.148438 502.300781 500.148438 502.296875 500.148438 502.292969 L 500.058594 501.921875 L 495.289062 482.164062 C 495.226562 481.90625 494.964844 481.75 494.703125 481.808594 C 494.441406 481.871094 494.28125 482.132812 494.34375 482.394531 L 499.199219 502.5 L 499.199219 502.503906 L 500.753906 510.507812 L 500.304688 510.546875 L 472.070312 513.082031 C 468.816406 510.847656 464.488281 509.570312 460.160156 509.570312 C 460.15625 509.570312 460.148438 509.570312 460.144531 509.570312 C 457.851562 509.574219 455.539062 510.316406 453.457031 511.46875 C 453.4375 511.480469 453.421875 511.488281 453.402344 511.5 L 453.796875 502.417969 L 454.671875 482.300781 C 454.683594 482.03125 454.476562 481.804688 454.207031 481.792969 C 453.941406 481.796875 453.714844 481.992188 453.703125 482.257812 L 452.847656 501.921875 L 452.804688 502.890625 L 436.804688 502.890625 C 436.652344 502.890625 436.511719 502.820312 436.421875 502.703125 C 436.328125 502.585938 436.296875 502.429688 436.332031 502.285156 C 436.335938 502.28125 436.335938 502.269531 436.335938 502.265625 C 436.664062 500.972656 443.425781 474.535156 450.0625 466.644531 C 456.230469 459.308594 463.664062 457.839844 465.082031 457.621094 L 469.085938 451.507812 L 469.164062 451.382812 C 469.25 451.257812 469.386719 451.175781 469.535156 451.164062 C 469.683594 451.152344 469.835938 451.214844 469.933594 451.328125 L 470.054688 451.464844 L 474.226562 456.167969 L 486.339844 449.152344 L 486.582031 449.011719 C 486.789062 448.890625 487.050781 448.9375 487.199219 449.121094 L 487.3125 449.257812 L 492.386719 455.386719 C 493.832031 455.871094 505.15625 459.855469 510.175781 467.296875 C 514.410156 473.582031 517.945312 489.855469 519.4375 502.328125 Z M 492.507812 455.539062 C 492.359375 455.3125 492.054688 455.253906 491.835938 455.402344 L 491.386719 455.699219 L 478.089844 464.523438 L 474.746094 456.988281 L 474.566406 456.589844 C 474.5 456.441406 474.363281 456.332031 474.199219 456.308594 C 474.039062 456.285156 473.871094 456.34375 473.761719 456.464844 L 473.476562 456.789062 L 467.808594 463.195312 L 465.910156 458.128906 L 465.824219 457.902344 C 465.730469 457.652344 465.449219 457.523438 465.199219 457.617188 C 464.949219 457.710938 464.820312 457.992188 464.914062 458.242188 L 465.054688 458.613281 L 467.183594 464.292969 C 467.246094 464.453125 467.382812 464.570312 467.550781 464.597656 C 467.71875 464.632812 467.890625 464.570312 468.003906 464.445312 L 473.988281 457.671875 L 477.4375 465.441406 C 477.496094 465.574219 477.609375 465.671875 477.746094 465.710938 C 477.789062 465.722656 477.835938 465.730469 477.882812 465.730469 C 477.976562 465.730469 478.070312 465.703125 478.148438 465.648438 L 492.171875 456.339844 L 492.371094 456.210938 C 492.59375 456.0625 492.65625 455.761719 492.507812 455.539062 Z M 457.90625 448.917969 C 457.738281 449.230469 457.648438 449.574219 457.648438 449.933594 C 457.648438 450.015625 457.667969 450.089844 457.675781 450.167969 C 457.824219 451.488281 459.1875 452.527344 460.859375 452.527344 C 462.628906 452.527344 464.070312 451.363281 464.070312 449.933594 C 464.070312 448.503906 462.628906 447.339844 460.859375 447.339844 C 459.535156 447.339844 458.394531 447.992188 457.90625 448.917969 Z M 427.878906 326.769531 C 427.878906 301.53125 448.410156 280.996094 473.652344 280.996094 C 498.890625 280.996094 519.421875 301.53125 519.421875 326.769531 C 519.421875 352.007812 498.890625 372.539062 473.652344 372.539062 C 448.410156 372.539062 427.878906 352.007812 427.878906 326.769531 Z M 452.792969 354.164062 C 452.792969 354.433594 453.011719 354.648438 453.28125 354.648438 L 494.023438 354.648438 C 494.289062 354.648438 494.507812 354.433594 494.507812 354.164062 L 494.507812 336.527344 C 494.507812 329.441406 488.742188 323.675781 481.652344 323.675781 L 479.1875 323.675781 L 479.1875 323.566406 C 483.894531 321.515625 486.921875 316.917969 486.921875 311.765625 C 486.921875 304.664062 481.144531 298.886719 474.042969 298.886719 C 466.941406 298.886719 461.164062 304.664062 461.164062 311.765625 C 461.164062 316.609375 463.820312 320.957031 468.113281 323.1875 L 468.113281 323.675781 L 465.648438 323.675781 C 458.5625 323.675781 452.792969 329.441406 452.792969 336.527344 Z M 411.195312 389.808594 C 404.25 406.257812 387.957031 417.828125 369.011719 417.828125 C 364.488281 417.828125 360.121094 417.15625 355.992188 415.929688 C 355.667969 415.835938 355.34375 415.738281 355.023438 415.632812 C 336.605469 409.707031 323.238281 392.417969 323.238281 372.054688 C 323.238281 346.816406 343.773438 326.28125 369.011719 326.28125 C 394.25 326.28125 414.78125 346.816406 414.78125 372.054688 C 414.78125 377.980469 413.636719 383.636719 411.582031 388.839844 C 411.453125 389.164062 411.332031 389.492188 411.195312 389.808594 Z M 389.867188 381.8125 C 389.867188 374.726562 384.101562 368.960938 377.011719 368.960938 L 374.546875 368.960938 L 374.546875 368.855469 C 379.253906 366.804688 382.28125 362.207031 382.28125 357.050781 C 382.28125 349.949219 376.503906 344.175781 369.402344 344.175781 C 362.300781 344.175781 356.523438 349.953125 356.523438 357.050781 C 356.523438 361.894531 359.179688 366.242188 363.472656 368.472656 L 363.472656 368.960938 L 361.007812 368.960938 C 353.917969 368.960938 348.152344 374.726562 348.152344 381.8125 L 348.152344 399.449219 C 348.152344 399.71875 348.371094 399.9375 348.636719 399.9375 L 389.378906 399.9375 C 389.648438 399.9375 389.867188 399.71875 389.867188 399.449219 Z M 264.042969 463.929688 C 238.804688 463.929688 218.269531 443.398438 218.269531 418.160156 C 218.269531 392.921875 238.804688 372.386719 264.042969 372.386719 C 289.28125 372.386719 309.8125 392.921875 309.8125 418.160156 C 309.8125 443.398438 289.28125 463.929688 264.042969 463.929688 Z M 284.898438 427.917969 C 284.898438 420.832031 279.132812 415.066406 272.042969 415.066406 L 269.578125 415.066406 L 269.578125 414.957031 C 274.289062 412.90625 277.3125 408.308594 277.3125 403.15625 C 277.3125 396.054688 271.535156 390.277344 264.433594 390.277344 C 257.332031 390.277344 251.554688 396.054688 251.554688 403.15625 C 251.554688 408 254.210938 412.347656 258.503906 414.578125 L 258.503906 415.066406 L 256.039062 415.066406 C 248.949219 415.066406 243.183594 420.828125 243.183594 427.917969 L 243.183594 445.554688 C 243.183594 445.824219 243.402344 446.039062 243.667969 446.039062 L 284.414062 446.039062 C 284.679688 446.039062 284.898438 445.824219 284.898438 445.554688 Z M 333.386719 489.582031 C 333.335938 489.449219 333.234375 489.347656 333.101562 489.300781 C 332.972656 489.25 332.828125 489.265625 332.703125 489.328125 C 332.585938 489.390625 320.976562 495.574219 313.398438 492.042969 C 304.65625 487.964844 301.839844 479.84375 301.347656 478.195312 L 308.402344 472.695312 C 308.558594 472.574219 308.625 472.367188 308.566406 472.171875 C 308.507812 471.984375 308.339844 471.847656 308.140625 471.828125 L 286.242188 470.148438 C 285.984375 470.109375 285.746094 470.328125 285.722656 470.589844 L 283.929688 490.925781 C 283.914062 491.121094 284.011719 491.304688 284.183594 491.394531 C 284.359375 491.488281 284.566406 491.464844 284.71875 491.34375 L 290.027344 487.035156 C 291.257812 490.03125 297.128906 502.757812 309.378906 506.53125 C 312.015625 507.34375 314.710938 507.667969 317.347656 507.667969 C 328.0625 507.667969 337.714844 502.261719 337.832031 502.195312 C 338.042969 502.074219 338.132812 501.820312 338.046875 501.597656 Z M 411.929688 423.148438 C 411.890625 423.03125 411.902344 422.914062 411.945312 422.808594 C 411.964844 422.761719 411.992188 422.722656 412.023438 422.6875 C 412.035156 422.671875 412.042969 422.65625 412.058594 422.640625 C 412.105469 422.59375 412.164062 422.554688 412.234375 422.535156 L 420.539062 419.75 L 402.707031 413.574219 L 409.347656 432.75 C 409.386719 432.863281 409.375 432.980469 409.335938 433.085938 C 409.335938 433.078125 409.34375 433.078125 409.347656 433.070312 L 412.765625 423.378906 L 422.195312 420.214844 L 412.542969 423.453125 C 412.289062 423.542969 412.011719 423.402344 411.929688 423.148438 Z M 411.929688 423.148438 " fill-opacity="1" fill-rule="nonzero"/></g><g clip-path="url(#0e1a98fe46)"><path fill="#ff3131" d="M 491.492188 414.132812 C 488.6875 409.851562 483.097656 409.804688 479.699219 410.246094 C 477.875 409.960938 476.03125 409.933594 474.375 410.039062 C 468.003906 410.433594 465.660156 412.648438 464.140625 415.855469 C 463.863281 416.082031 463.597656 416.3125 463.355469 416.5625 C 463.351562 416.566406 463.347656 416.566406 463.34375 416.574219 C 463.335938 416.578125 463.332031 416.582031 463.324219 416.589844 C 463.320312 416.59375 463.3125 416.597656 463.308594 416.605469 C 463.304688 416.609375 463.300781 416.613281 463.296875 416.617188 C 460.726562 418.886719 461.457031 423.691406 461.488281 423.894531 C 461.722656 425.730469 462.089844 427.515625 462.414062 429.089844 C 462.503906 429.527344 462.589844 429.953125 462.671875 430.363281 C 460.222656 431.667969 458.550781 434.246094 458.550781 437.210938 C 458.550781 438.59375 458.917969 439.890625 459.554688 441.015625 C 458.984375 441.269531 456.535156 442.519531 456.089844 445.246094 C 455.660156 447.867188 457.203125 449.679688 457.675781 450.164062 C 457.667969 450.085938 457.648438 450.011719 457.648438 449.933594 C 457.648438 449.574219 457.742188 449.230469 457.90625 448.917969 C 457.40625 448.214844 456.789062 446.976562 457.046875 445.40625 C 457.453125 442.929688 460.011719 441.871094 460.035156 441.863281 C 460.058594 441.855469 460.070312 441.835938 460.089844 441.828125 C 460.890625 442.898438 461.957031 443.761719 463.195312 444.308594 C 463.535156 445.292969 464.046875 446.257812 464.816406 447.171875 C 465.976562 448.554688 467.441406 449.605469 469.085938 450.265625 L 469.085938 451.507812 L 469.167969 451.382812 C 469.25 451.257812 469.386719 451.175781 469.535156 451.164062 C 469.683594 451.152344 469.835938 451.214844 469.933594 451.328125 L 470.058594 451.464844 L 470.058594 450.601562 C 470.804688 450.824219 471.582031 450.976562 472.386719 451.039062 C 472.679688 451.0625 472.988281 451.078125 473.316406 451.078125 C 475.761719 451.078125 479.140625 450.320312 482.71875 447.226562 C 482.921875 447.050781 482.941406 446.746094 482.769531 446.542969 C 482.59375 446.339844 482.285156 446.320312 482.082031 446.492188 C 478.28125 449.78125 474.757812 450.257812 472.464844 450.070312 C 469.738281 449.855469 467.285156 448.601562 465.558594 446.546875 C 464.011719 444.707031 463.585938 442.640625 463.574219 440.582031 C 463.566406 439.296875 463.722656 438.015625 463.871094 436.796875 C 463.972656 435.953125 464.070312 435.144531 464.101562 434.390625 C 464.117188 434.066406 464.121094 433.75 464.109375 433.449219 C 464.046875 432.207031 463.730469 430.671875 463.367188 428.890625 C 463.054688 427.371094 462.703125 425.648438 462.472656 423.890625 C 462.875 423.097656 465.886719 418.074219 477.082031 420.023438 C 477.160156 421.730469 477.90625 428.191406 484.425781 432.496094 C 483.417969 433.804688 482.816406 435.433594 482.816406 437.207031 C 482.816406 439.925781 484.222656 442.316406 486.34375 443.703125 L 486.34375 449.152344 L 486.585938 449.011719 C 486.792969 448.890625 487.050781 448.9375 487.203125 449.121094 L 487.316406 449.257812 L 487.316406 444.238281 C 488.308594 444.699219 489.40625 444.964844 490.574219 444.964844 C 494.851562 444.964844 498.332031 441.484375 498.332031 437.207031 C 498.332031 433.691406 495.980469 430.71875 492.765625 429.769531 C 493.71875 425.386719 494.449219 418.644531 491.492188 414.132812 Z M 463.136719 433.5 C 463.183594 434.410156 463.046875 435.515625 462.90625 436.683594 C 462.667969 438.621094 462.402344 440.847656 462.84375 443.039062 C 460.859375 441.851562 459.523438 439.6875 459.523438 437.210938 C 459.523438 434.726562 460.867188 432.558594 462.863281 431.375 C 463.003906 432.164062 463.105469 432.882812 463.136719 433.5 Z M 465.914062 414.703125 C 467.355469 412.625 469.636719 411.304688 474.433594 411.007812 C 478.890625 410.730469 484.789062 411.367188 487.507812 415.976562 C 489.761719 419.804688 490.042969 427.523438 490.078125 429.480469 C 489.101562 429.539062 488.175781 429.78125 487.328125 430.171875 C 487.347656 427.964844 487.164062 421.925781 484.890625 417.789062 C 484.839844 417.691406 484.785156 417.601562 484.734375 417.511719 C 484.710938 417.472656 484.691406 417.4375 484.667969 417.398438 C 484.351562 416.859375 484.015625 416.382812 483.652344 415.992188 C 483.625 415.964844 483.59375 415.941406 483.566406 415.914062 C 483.363281 415.691406 483.140625 415.480469 482.890625 415.277344 C 481.289062 413.9375 479.148438 413.191406 476.269531 412.933594 C 476.140625 412.921875 476.007812 412.910156 475.875 412.898438 C 475.632812 412.882812 475.390625 412.867188 475.136719 412.855469 C 474.96875 412.847656 474.808594 412.832031 474.636719 412.828125 C 474.515625 412.824219 474.394531 412.835938 474.273438 412.832031 C 474.109375 412.832031 473.964844 412.820312 473.800781 412.820312 C 473.496094 412.824219 473.207031 412.84375 472.910156 412.859375 C 472.90625 412.859375 472.898438 412.859375 472.894531 412.859375 C 471.460938 412.929688 470.113281 413.15625 468.84375 413.542969 C 467.78125 413.839844 466.800781 414.230469 465.914062 414.703125 Z M 497.355469 437.210938 C 497.355469 440.953125 494.3125 444 490.570312 444 C 486.828125 444 483.78125 440.953125 483.78125 437.210938 C 483.78125 435.492188 484.429688 433.925781 485.484375 432.730469 L 487.089844 431.394531 C 488.109375 430.78125 489.296875 430.421875 490.570312 430.421875 C 494.3125 430.425781 497.355469 433.46875 497.355469 437.210938 Z M 471.625 445.8125 C 471.921875 445.8125 472.238281 445.777344 472.570312 445.699219 C 475.371094 445.058594 475.980469 442.597656 475.910156 441.386719 C 475.898438 441.21875 475.804688 441.070312 475.660156 440.988281 C 475.511719 440.90625 475.335938 440.910156 475.191406 440.988281 C 473.046875 442.164062 468.277344 442.050781 468.234375 442.050781 C 468.078125 442.050781 467.925781 442.117188 467.832031 442.246094 C 467.738281 442.371094 467.710938 442.535156 467.757812 442.683594 C 468.136719 443.855469 469.390625 445.8125 471.625 445.8125 Z M 474.878906 442.1875 C 474.722656 443.03125 474.179688 444.339844 472.355469 444.753906 C 470.464844 445.191406 469.421875 443.867188 468.964844 443.023438 C 470.273438 443.007812 472.984375 442.890625 474.878906 442.1875 Z M 466.71875 430.867188 L 466.8125 432.867188 C 466.824219 433.136719 466.617188 433.363281 466.351562 433.375 C 466.34375 433.375 466.335938 433.375 466.328125 433.375 C 466.070312 433.375 465.855469 433.171875 465.84375 432.914062 L 465.75 430.914062 C 465.738281 430.644531 465.945312 430.417969 466.210938 430.40625 C 466.480469 430.371094 466.707031 430.601562 466.71875 430.867188 Z M 473.914062 432.414062 L 473.820312 430.417969 C 473.808594 430.148438 474.015625 429.921875 474.28125 429.910156 C 474.542969 429.875 474.777344 430.105469 474.789062 430.371094 L 474.882812 432.371094 C 474.894531 432.636719 474.6875 432.863281 474.421875 432.878906 C 474.414062 432.878906 474.40625 432.878906 474.398438 432.878906 C 474.140625 432.878906 473.925781 432.675781 473.914062 432.414062 Z M 467.929688 436.503906 C 469.269531 433.199219 468.980469 431.398438 468.976562 431.378906 C 468.933594 431.117188 469.109375 430.867188 469.371094 430.820312 C 469.632812 430.777344 469.882812 430.945312 469.933594 431.207031 C 469.949219 431.289062 470.289062 433.265625 468.832031 436.867188 C 468.667969 437.269531 468.664062 437.585938 468.816406 437.804688 C 469.074219 438.164062 469.769531 438.367188 470.652344 438.324219 C 470.90625 438.316406 471.148438 438.519531 471.160156 438.785156 C 471.167969 439.054688 470.960938 439.28125 470.695312 439.292969 C 470.609375 439.296875 470.523438 439.296875 470.441406 439.296875 C 469.320312 439.296875 468.449219 438.964844 468.023438 438.363281 C 467.78125 438.015625 467.5625 437.410156 467.929688 436.503906 Z M 519.4375 502.328125 C 519.394531 502.066406 519.140625 501.886719 518.882812 501.925781 C 518.644531 501.964844 518.484375 502.171875 518.484375 502.40625 C 518.484375 502.433594 518.476562 502.457031 518.480469 502.480469 C 518.492188 502.5625 519.71875 510.425781 518.488281 516.082031 C 517.003906 522.878906 509.726562 524.335938 496.820312 524.644531 L 495.367188 524.683594 C 487.488281 524.898438 469.265625 525.394531 465.007812 520.269531 C 465.710938 519.578125 466.472656 518.953125 467.25 518.601562 C 467.492188 518.492188 467.601562 518.203125 467.488281 517.960938 C 467.378906 517.714844 467.089844 517.609375 466.847656 517.71875 C 466.839844 517.722656 466.828125 517.730469 466.816406 517.734375 C 464.984375 518.578125 463.320312 520.609375 462.21875 521.957031 C 461.988281 522.242188 461.785156 522.488281 461.617188 522.679688 C 461.140625 523.222656 460.554688 523.300781 460.273438 523.28125 C 459.878906 523.269531 459.585938 523.121094 459.472656 522.976562 C 458.96875 522.335938 459.332031 521.105469 460.558594 519.320312 C 461.835938 517.460938 465.199219 515.335938 465.429688 515.191406 C 465.4375 515.1875 465.449219 515.179688 465.453125 515.175781 C 465.679688 515.039062 465.75 514.738281 465.609375 514.511719 C 465.46875 514.285156 465.171875 514.210938 464.941406 514.351562 C 464.914062 514.371094 464.773438 514.457031 464.554688 514.601562 C 463.566406 515.246094 460.9375 517.058594 459.757812 518.773438 C 459.003906 519.871094 458.144531 521.347656 458.316406 522.59375 C 458.269531 522.617188 458.222656 522.640625 458.1875 522.675781 C 457.90625 522.949219 457.429688 523.101562 456.933594 523.066406 C 456.539062 523.039062 456.199219 522.894531 456.027344 522.675781 C 455.65625 522.199219 455.664062 520.667969 457.269531 518.585938 C 458.867188 516.519531 461.710938 514.09375 461.742188 514.070312 C 461.796875 514.023438 461.835938 513.96875 461.863281 513.90625 C 461.941406 513.738281 461.921875 513.535156 461.796875 513.386719 C 461.625 513.183594 461.320312 513.15625 461.113281 513.332031 C 461.085938 513.351562 460.914062 513.5 460.652344 513.730469 C 459.765625 514.515625 457.785156 516.332031 456.503906 517.992188 C 455.15625 519.738281 454.742188 521.257812 454.890625 522.3125 C 454.546875 522.65625 454.078125 522.851562 453.664062 522.777344 C 453.300781 522.714844 453.03125 522.464844 452.882812 522.046875 C 452.597656 521.234375 452.671875 519.652344 453.816406 517.863281 C 455.132812 515.8125 457.371094 513.972656 458.101562 513.402344 C 458.246094 513.289062 458.335938 513.222656 458.339844 513.21875 C 458.554688 513.0625 458.601562 512.757812 458.441406 512.542969 C 458.285156 512.324219 457.980469 512.28125 457.765625 512.4375 C 457.640625 512.53125 454.675781 514.726562 453 517.339844 C 452.703125 517.804688 452.476562 518.253906 452.296875 518.691406 C 451.820312 518.953125 451.355469 519.222656 450.921875 519.476562 C 450.03125 520.003906 449.265625 520.457031 448.59375 520.667969 C 448.226562 520.78125 447.65625 520.699219 447.367188 520.359375 C 447.058594 519.992188 447.121094 519.335938 447.546875 518.511719 C 449.53125 514.664062 455.066406 510.542969 460.148438 510.542969 C 460.152344 510.542969 460.15625 510.542969 460.160156 510.542969 C 464.359375 510.542969 468.550781 511.796875 471.660156 513.980469 C 471.75 514.046875 471.859375 514.074219 471.980469 514.066406 L 501.378906 511.425781 C 501.515625 511.414062 501.640625 511.34375 501.722656 511.234375 C 501.804688 511.125 501.835938 510.984375 501.808594 510.851562 L 500.171875 502.40625 L 500.152344 502.3125 C 500.152344 502.308594 500.148438 502.308594 500.148438 502.304688 C 500.148438 502.300781 500.148438 502.296875 500.148438 502.292969 L 500.058594 501.921875 L 495.289062 482.164062 C 495.226562 481.90625 494.964844 481.75 494.703125 481.808594 C 494.445312 481.871094 494.28125 482.132812 494.347656 482.394531 L 499.199219 502.5 L 499.199219 502.503906 L 500.753906 510.507812 L 500.304688 510.546875 L 472.070312 513.082031 C 468.816406 510.847656 464.488281 509.570312 460.160156 509.570312 C 460.15625 509.570312 460.152344 509.570312 460.148438 509.570312 C 457.851562 509.574219 455.539062 510.316406 453.457031 511.46875 C 453.4375 511.480469 453.421875 511.488281 453.402344 511.5 L 453.796875 502.417969 L 454.671875 482.300781 C 454.683594 482.03125 454.476562 481.804688 454.207031 481.792969 C 453.941406 481.796875 453.714844 481.992188 453.703125 482.257812 L 452.847656 501.921875 L 452.804688 502.890625 L 452.402344 512.097656 C 449.867188 513.730469 447.78125 515.941406 446.683594 518.066406 C 445.894531 519.597656 446.21875 520.496094 446.625 520.984375 C 446.753906 521.136719 446.910156 521.253906 447.074219 521.355469 C 443.679688 522.675781 438.925781 523.851562 433.898438 524.234375 C 434.539062 523.261719 435.070312 521.320312 435.367188 520.074219 C 435.4375 520.191406 435.511719 520.3125 435.582031 520.4375 C 436.050781 521.234375 436.539062 522.058594 437.097656 522.523438 C 437.734375 523.050781 438.753906 523.269531 439.574219 523.046875 C 440.253906 522.863281 440.757812 522.40625 440.996094 521.757812 C 441.472656 520.460938 439.820312 516.9375 437.835938 514.457031 C 437.890625 514.398438 437.949219 514.339844 437.996094 514.273438 C 438.296875 513.839844 438.363281 513.285156 438.175781 512.789062 L 435.941406 506.910156 L 437.164062 502.890625 L 436.804688 502.890625 C 436.652344 502.890625 436.511719 502.820312 436.421875 502.703125 C 436.328125 502.585938 436.296875 502.429688 436.332031 502.285156 C 436.335938 502.28125 436.335938 502.273438 436.335938 502.265625 L 435.375 505.425781 L 419.773438 464.398438 C 419.445312 463.539062 418.609375 462.960938 417.6875 462.960938 L 339.691406 462.960938 C 338.878906 462.960938 338.121094 463.359375 337.664062 464.023438 C 337.203125 464.691406 337.101562 465.542969 337.386719 466.296875 L 355.023438 512.667969 L 355.292969 513.378906 C 355.441406 513.769531 355.6875 514.101562 355.992188 514.363281 C 356.429688 514.742188 356.996094 514.96875 357.59375 514.96875 L 374.832031 514.96875 L 370.660156 527.046875 C 370.5625 527.328125 370.5625 527.628906 370.640625 527.910156 C 370.683594 528.078125 370.75 528.238281 370.851562 528.382812 C 371.011719 528.609375 371.234375 528.773438 371.484375 528.878906 C 371.664062 528.957031 371.855469 529.003906 372.054688 529.003906 L 412.894531 529.003906 C 413.058594 529.003906 413.214844 528.976562 413.367188 528.933594 L 468.226562 528.933594 C 468.304688 528.933594 468.375 528.910156 468.441406 528.878906 C 468.601562 528.800781 468.714844 528.640625 468.714844 528.449219 L 468.714844 525.699219 C 468.714844 525.433594 468.496094 525.214844 468.226562 525.214844 L 452.804688 525.214844 L 452.878906 523.496094 C 452.882812 523.5 452.890625 523.503906 452.894531 523.507812 C 453.082031 523.613281 453.28125 523.699219 453.503906 523.734375 C 453.613281 523.753906 453.726562 523.761719 453.84375 523.761719 C 454.335938 523.761719 454.835938 523.578125 455.261719 523.269531 C 455.261719 523.269531 455.261719 523.273438 455.261719 523.273438 C 455.605469 523.710938 456.191406 523.988281 456.867188 524.035156 C 456.933594 524.039062 457.003906 524.042969 457.070312 524.042969 C 457.675781 524.042969 458.246094 523.847656 458.675781 523.515625 C 458.691406 523.535156 458.695312 523.558594 458.710938 523.578125 C 459.03125 523.984375 459.605469 524.234375 460.246094 524.25 C 460.269531 524.253906 460.292969 524.253906 460.316406 524.253906 C 461.085938 524.253906 461.820312 523.914062 462.34375 523.320312 C 462.519531 523.125 462.726562 522.867188 462.96875 522.574219 C 463.359375 522.09375 463.824219 521.527344 464.339844 520.964844 C 467.898438 525.066406 478.957031 525.785156 487.871094 525.78125 C 490.699219 525.78125 493.308594 525.710938 495.394531 525.65625 L 496.839844 525.617188 C 498.796875 525.570312 500.621094 525.488281 502.339844 525.367188 C 502.664062 525.34375 502.992188 525.324219 503.308594 525.296875 C 512.527344 524.539062 518.109375 522.363281 519.433594 516.289062 C 520.703125 510.457031 519.492188 502.660156 519.4375 502.332031 C 519.4375 502.332031 519.4375 502.332031 519.4375 502.328125 Z M 392.703125 525.214844 C 392.65625 525.214844 392.617188 525.230469 392.574219 525.242188 C 392.558594 525.222656 392.535156 525.214844 392.519531 525.195312 C 392.449219 525.089844 392.429688 524.964844 392.46875 524.84375 L 395.882812 514.96875 L 418.679688 514.96875 C 418.636719 515.035156 418.585938 515.09375 418.546875 515.164062 C 417.140625 517.542969 417.128906 520.035156 417.585938 521.570312 C 417.800781 522.292969 418.285156 522.769531 418.957031 522.910156 C 419.769531 523.078125 420.609375 522.707031 420.980469 522.273438 C 421.511719 521.640625 421.71875 520.910156 421.941406 520.136719 C 422.050781 519.746094 422.164062 519.34375 422.328125 518.949219 C 422.53125 518.449219 422.746094 518.050781 422.957031 517.722656 C 422.945312 517.824219 422.933594 517.921875 422.925781 518.03125 C 422.710938 520.855469 422.933594 522.667969 423.625 523.738281 C 424.042969 524.386719 424.640625 524.746094 425.285156 524.746094 C 425.359375 524.746094 425.433594 524.742188 425.507812 524.734375 C 426.015625 524.667969 426.46875 524.378906 426.832031 523.957031 C 426.890625 524.082031 426.953125 524.203125 427.023438 524.3125 C 427.316406 524.769531 427.699219 525.070312 428.121094 525.214844 Z M 429.835938 523.328125 C 429.621094 523.894531 429.21875 524.289062 428.785156 524.34375 C 428.328125 524.394531 428.023438 524.070312 427.839844 523.785156 C 427.277344 522.914062 427.097656 521.246094 427.292969 518.679688 C 427.414062 517.097656 427.875 515.496094 428.035156 514.96875 L 430.796875 514.96875 C 429.882812 517.519531 429.65625 521.726562 429.835938 523.328125 Z M 426.324219 518.605469 C 426.191406 520.355469 426.226562 521.71875 426.4375 522.753906 C 426.222656 523.316406 425.820312 523.714844 425.386719 523.769531 C 424.945312 523.820312 424.625 523.496094 424.4375 523.210938 C 423.878906 522.339844 423.699219 520.667969 423.894531 518.101562 C 424.007812 516.589844 424.332031 515.402344 424.464844 514.96875 L 427.023438 514.96875 C 426.808594 515.703125 426.433594 517.144531 426.324219 518.605469 Z M 423.230469 515.898438 C 422.882812 516.1875 422.082031 516.976562 421.429688 518.582031 C 421.246094 519.027344 421.125 519.457031 421.007812 519.871094 C 420.808594 520.570312 420.636719 521.175781 420.238281 521.644531 C 420.078125 521.835938 419.582031 522.050781 419.15625 521.960938 C 418.835938 521.894531 418.628906 521.675781 418.515625 521.296875 C 418.117188 519.953125 418.136719 517.765625 419.382812 515.65625 C 419.527344 515.414062 419.691406 515.191406 419.851562 514.96875 L 423.453125 514.96875 C 423.386719 515.207031 423.308594 515.519531 423.230469 515.898438 Z M 440.085938 521.425781 C 439.957031 521.777344 439.699219 522.007812 439.324219 522.109375 C 438.804688 522.253906 438.113281 522.105469 437.714844 521.777344 C 437.285156 521.421875 436.824219 520.636719 436.417969 519.945312 C 436.15625 519.503906 435.910156 519.085938 435.660156 518.753906 C 435.96875 517.515625 436.273438 515.929688 436.285156 515.855469 C 436.335938 515.59375 436.164062 515.339844 435.898438 515.289062 C 435.632812 515.242188 435.382812 515.410156 435.332031 515.675781 C 435.328125 515.695312 434.980469 517.511719 434.664062 518.742188 C 434.664062 518.75 434.664062 518.753906 434.664062 518.761719 C 434.664062 518.765625 434.660156 518.765625 434.660156 518.769531 C 434.328125 520.4375 433.566406 523.3125 432.925781 523.917969 C 432.53125 524.289062 431.960938 524.429688 431.507812 524.269531 C 431.238281 524.175781 430.898438 523.9375 430.8125 523.335938 C 430.605469 521.859375 430.859375 517.476562 431.773438 515.113281 C 431.792969 515.066406 431.796875 515.015625 431.796875 514.96875 L 436.675781 514.96875 C 436.78125 514.96875 436.882812 514.949219 436.984375 514.929688 C 438.921875 517.296875 440.367188 520.65625 440.085938 521.425781 Z M 417.6875 463.929688 C 418.207031 463.929688 418.683594 464.257812 418.867188 464.742188 L 437.269531 513.136719 C 437.34375 513.335938 437.320312 513.546875 437.199219 513.722656 C 437.078125 513.898438 436.886719 514 436.675781 514 L 435.722656 514 L 416.683594 463.929688 Z M 357.59375 514 C 356.980469 514 356.417969 513.613281 356.199219 513.035156 L 338.296875 465.953125 C 338.117188 465.488281 338.179688 464.988281 338.460938 464.578125 C 338.746094 464.164062 339.191406 463.929688 339.691406 463.929688 L 415.644531 463.929688 L 434.6875 514 L 396.21875 514 L 400.851562 500.605469 C 400.902344 500.457031 400.878906 500.292969 400.785156 500.167969 C 400.695312 500.039062 400.546875 499.960938 400.390625 499.960938 L 380.367188 499.960938 C 380.160156 499.960938 379.976562 500.09375 379.910156 500.289062 L 375.171875 514 Z M 412.890625 528.035156 L 372.054688 528.035156 C 371.886719 528.035156 371.738281 527.957031 371.640625 527.820312 C 371.546875 527.6875 371.523438 527.519531 371.574219 527.363281 L 380.710938 500.933594 L 399.710938 500.933594 L 391.554688 524.527344 C 391.410156 524.941406 391.476562 525.402344 391.730469 525.757812 C 391.984375 526.113281 392.398438 526.324219 392.832031 526.324219 L 412.890625 526.324219 C 413.363281 526.324219 413.746094 526.710938 413.746094 527.179688 C 413.746094 527.652344 413.363281 528.035156 412.890625 528.035156 Z M 467.742188 526.1875 L 467.742188 527.964844 L 414.53125 527.964844 C 414.648438 527.726562 414.714844 527.460938 414.714844 527.179688 C 414.714844 526.8125 414.605469 526.472656 414.417969 526.1875 Z M 433.636719 525.214844 C 440.230469 524.738281 447.082031 522.898438 450.636719 520.765625 C 450.890625 520.621094 451.152344 520.46875 451.414062 520.3125 C 451.5625 520.226562 451.730469 520.136719 451.882812 520.042969 C 451.703125 520.972656 451.765625 521.769531 451.957031 522.339844 L 451.832031 525.214844 Z M 492.507812 455.539062 C 492.65625 455.761719 492.59375 456.0625 492.371094 456.210938 L 492.171875 456.34375 L 478.148438 465.652344 C 478.070312 465.703125 477.976562 465.730469 477.878906 465.730469 C 477.835938 465.730469 477.789062 465.726562 477.746094 465.710938 C 477.609375 465.671875 477.496094 465.574219 477.4375 465.441406 L 473.988281 457.675781 L 468 464.445312 C 467.886719 464.570312 467.71875 464.632812 467.550781 464.601562 C 467.382812 464.570312 467.242188 464.453125 467.183594 464.292969 L 465.054688 458.613281 L 464.914062 458.242188 C 464.820312 457.992188 464.945312 457.710938 465.199219 457.617188 C 465.449219 457.523438 465.730469 457.652344 465.824219 457.902344 L 465.910156 458.132812 L 467.808594 463.199219 L 473.476562 456.789062 L 473.761719 456.464844 C 473.871094 456.34375 474.035156 456.285156 474.199219 456.308594 C 474.359375 456.332031 474.5 456.441406 474.566406 456.589844 L 474.746094 456.988281 L 478.089844 464.523438 L 491.382812 455.699219 L 491.832031 455.402344 C 492.054688 455.257812 492.355469 455.3125 492.507812 455.539062 Z M 394.238281 483.160156 L 373.304688 483.160156 C 373.039062 483.160156 372.820312 482.945312 372.820312 482.675781 C 372.820312 482.40625 373.039062 482.191406 373.304688 482.191406 L 394.238281 482.191406 C 394.507812 482.191406 394.722656 482.40625 394.722656 482.675781 C 394.722656 482.945312 394.507812 483.160156 394.238281 483.160156 Z M 395.5625 486.644531 L 374.632812 486.644531 C 374.363281 486.644531 374.144531 486.425781 374.144531 486.160156 C 374.144531 485.890625 374.363281 485.671875 374.632812 485.671875 L 395.5625 485.671875 C 395.832031 485.671875 396.050781 485.890625 396.050781 486.160156 C 396.050781 486.425781 395.832031 486.644531 395.5625 486.644531 Z M 396.890625 490.128906 L 375.957031 490.128906 C 375.6875 490.128906 375.46875 489.910156 375.46875 489.644531 C 375.46875 489.375 375.6875 489.15625 375.957031 489.15625 L 396.890625 489.15625 C 397.15625 489.15625 397.375 489.375 397.375 489.644531 C 397.375 489.910156 397.15625 490.128906 396.890625 490.128906 Z M 398.214844 493.613281 L 377.28125 493.613281 C 377.011719 493.613281 376.796875 493.394531 376.796875 493.128906 C 376.796875 492.859375 377.011719 492.640625 377.28125 492.640625 L 398.214844 492.640625 C 398.480469 492.640625 398.699219 492.859375 398.699219 493.128906 C 398.699219 493.394531 398.480469 493.613281 398.214844 493.613281 Z M 464.914062 429.34375 C 464.820312 429.460938 464.679688 429.519531 464.542969 429.519531 C 464.433594 429.519531 464.324219 429.484375 464.234375 429.410156 C 464.027344 429.238281 463.996094 428.933594 464.167969 428.726562 C 465.683594 426.890625 467.851562 427.574219 467.945312 427.605469 C 468.199219 427.6875 468.339844 427.960938 468.253906 428.214844 C 468.171875 428.472656 467.894531 428.609375 467.644531 428.527344 C 467.574219 428.507812 466.003906 428.027344 464.914062 429.34375 Z M 476.265625 428.34375 C 474.359375 427.054688 472.65625 428.277344 472.582031 428.332031 C 472.367188 428.492188 472.066406 428.449219 471.90625 428.234375 C 471.746094 428.019531 471.789062 427.714844 472 427.554688 C 472.792969 426.960938 474.816406 426.191406 476.808594 427.542969 C 477.03125 427.691406 477.089844 427.992188 476.9375 428.214844 C 476.84375 428.355469 476.691406 428.429688 476.535156 428.429688 C 476.441406 428.429688 476.347656 428.402344 476.265625 428.34375 Z M 453.28125 354.648438 L 494.023438 354.648438 C 494.289062 354.648438 494.507812 354.433594 494.507812 354.164062 L 494.507812 336.527344 C 494.507812 329.441406 488.742188 323.675781 481.652344 323.675781 L 479.1875 323.675781 L 479.1875 323.566406 C 483.894531 321.515625 486.921875 316.917969 486.921875 311.765625 C 486.921875 304.664062 481.144531 298.886719 474.042969 298.886719 C 466.941406 298.886719 461.164062 304.664062 461.164062 311.765625 C 461.164062 316.609375 463.820312 320.957031 468.113281 323.1875 L 468.113281 323.675781 L 465.648438 323.675781 C 458.5625 323.675781 452.792969 329.441406 452.792969 336.527344 L 452.792969 354.164062 C 452.792969 354.433594 453.011719 354.648438 453.28125 354.648438 Z M 453.765625 336.527344 C 453.765625 329.976562 459.097656 324.644531 465.648438 324.644531 L 468.601562 324.644531 C 468.867188 324.644531 469.085938 324.429688 469.085938 324.160156 L 469.085938 322.886719 C 469.085938 322.703125 468.980469 322.535156 468.8125 322.453125 C 464.695312 320.433594 462.136719 316.335938 462.136719 311.765625 C 462.136719 305.199219 467.476562 299.859375 474.042969 299.859375 C 480.609375 299.859375 485.949219 305.199219 485.949219 311.765625 C 485.949219 316.632812 483.035156 320.960938 478.519531 322.796875 C 478.335938 322.871094 478.21875 323.050781 478.21875 323.246094 L 478.21875 324.160156 C 478.21875 324.429688 478.433594 324.644531 478.703125 324.644531 L 481.652344 324.644531 C 488.207031 324.644531 493.539062 329.976562 493.539062 336.527344 L 493.539062 353.679688 L 453.765625 353.679688 Z M 348.636719 399.933594 L 389.382812 399.933594 C 389.648438 399.933594 389.867188 399.71875 389.867188 399.449219 L 389.867188 381.8125 C 389.867188 374.726562 384.101562 368.960938 377.011719 368.960938 L 374.546875 368.960938 L 374.546875 368.855469 C 379.253906 366.800781 382.28125 362.207031 382.28125 357.050781 C 382.28125 349.949219 376.503906 344.171875 369.402344 344.171875 C 362.300781 344.171875 356.523438 349.949219 356.523438 357.050781 C 356.523438 361.894531 359.179688 366.242188 363.472656 368.472656 L 363.472656 368.960938 L 361.007812 368.960938 C 353.917969 368.960938 348.152344 374.726562 348.152344 381.8125 L 348.152344 399.449219 C 348.152344 399.71875 348.371094 399.933594 348.636719 399.933594 Z M 349.125 381.8125 C 349.125 375.261719 354.453125 369.929688 361.007812 369.929688 L 363.960938 369.929688 C 364.226562 369.929688 364.445312 369.714844 364.445312 369.445312 L 364.445312 368.175781 C 364.445312 367.988281 364.339844 367.820312 364.171875 367.738281 C 360.054688 365.71875 357.496094 361.625 357.496094 357.054688 C 357.496094 350.488281 362.835938 345.144531 369.402344 345.144531 C 375.96875 345.144531 381.3125 350.488281 381.3125 357.054688 C 381.3125 361.917969 378.394531 366.25 373.878906 368.082031 C 373.695312 368.15625 373.574219 368.335938 373.574219 368.535156 L 373.574219 369.445312 C 373.574219 369.714844 373.792969 369.933594 374.0625 369.933594 L 377.011719 369.933594 C 383.566406 369.933594 388.898438 375.261719 388.898438 381.816406 L 388.898438 398.964844 L 349.125 398.964844 Z M 272.042969 415.066406 L 269.578125 415.066406 L 269.578125 414.957031 C 274.289062 412.90625 277.3125 408.308594 277.3125 403.15625 C 277.3125 396.054688 271.535156 390.277344 264.433594 390.277344 C 257.332031 390.277344 251.554688 396.054688 251.554688 403.15625 C 251.554688 408 254.210938 412.347656 258.503906 414.578125 L 258.503906 415.066406 L 256.039062 415.066406 C 248.949219 415.066406 243.183594 420.832031 243.183594 427.917969 L 243.183594 445.554688 C 243.183594 445.824219 243.402344 446.039062 243.667969 446.039062 L 284.414062 446.039062 C 284.679688 446.039062 284.898438 445.824219 284.898438 445.554688 L 284.898438 427.917969 C 284.898438 420.832031 279.132812 415.066406 272.042969 415.066406 Z M 283.925781 445.070312 L 244.15625 445.070312 L 244.15625 427.917969 C 244.15625 421.367188 249.484375 416.035156 256.039062 416.035156 L 258.992188 416.035156 C 259.257812 416.035156 259.476562 415.816406 259.476562 415.550781 L 259.476562 414.277344 C 259.476562 414.09375 259.371094 413.921875 259.203125 413.84375 C 255.085938 411.820312 252.527344 407.726562 252.527344 403.15625 C 252.527344 396.589844 257.867188 391.25 264.433594 391.25 C 271 391.25 276.34375 396.589844 276.34375 403.15625 C 276.34375 408.023438 273.425781 412.351562 268.910156 414.1875 C 268.726562 414.261719 268.609375 414.4375 268.609375 414.636719 L 268.609375 415.550781 C 268.609375 415.816406 268.824219 416.035156 269.09375 416.035156 L 272.046875 416.035156 C 278.597656 416.035156 283.929688 421.367188 283.929688 427.917969 L 283.929688 445.070312 Z M 401.464844 412.949219 C 401.402344 412.773438 401.449219 412.578125 401.578125 412.445312 C 401.710938 412.3125 401.902344 412.269531 402.082031 412.332031 L 422.203125 419.296875 C 422.398438 419.363281 422.527344 419.550781 422.527344 419.757812 C 422.527344 419.964844 422.394531 420.148438 422.195312 420.214844 L 412.542969 423.453125 C 412.289062 423.542969 412.011719 423.402344 411.929688 423.148438 C 411.890625 423.03125 411.902344 422.914062 411.945312 422.808594 C 411.964844 422.761719 411.992188 422.722656 412.023438 422.6875 C 412.035156 422.671875 412.042969 422.65625 412.058594 422.640625 C 412.105469 422.59375 412.164062 422.554688 412.234375 422.53125 L 420.539062 419.746094 L 402.707031 413.574219 L 409.347656 432.75 C 409.386719 432.863281 409.375 432.980469 409.335938 433.085938 C 409.300781 433.164062 409.25 433.234375 409.179688 433.289062 C 409.167969 433.300781 409.152344 433.308594 409.136719 433.316406 C 409.105469 433.332031 409.082031 433.355469 409.046875 433.367188 C 408.996094 433.386719 408.941406 433.394531 408.886719 433.394531 C 408.785156 433.394531 408.6875 433.363281 408.609375 433.304688 C 408.527344 433.25 408.464844 433.167969 408.429688 433.070312 Z M 431.691406 448.496094 C 435.316406 461.097656 430.625 473.546875 430.578125 473.667969 C 430.503906 473.863281 430.320312 473.980469 430.125 473.980469 C 430.066406 473.980469 430.007812 473.96875 429.949219 473.949219 C 429.699219 473.851562 429.574219 473.570312 429.671875 473.320312 C 429.71875 473.199219 434.289062 461.042969 430.761719 448.765625 C 427.230469 436.492188 419.214844 430.386719 419.132812 430.328125 C 418.917969 430.167969 418.875 429.863281 419.035156 429.648438 C 419.195312 429.433594 419.5 429.386719 419.714844 429.550781 C 419.796875 429.613281 428.070312 435.898438 431.691406 448.496094 Z M 526.152344 423.757812 C 527.039062 421.5625 527.5 418.90625 527.324219 415.746094 C 526.53125 401.824219 515.183594 393.011719 511.976562 390.789062 L 514.898438 389.808594 L 517.792969 388.839844 L 520.691406 387.867188 C 520.886719 387.804688 521.019531 387.617188 521.019531 387.410156 C 521.023438 387.203125 520.890625 387.019531 520.695312 386.949219 L 500.574219 379.984375 C 500.398438 379.925781 500.203125 379.96875 500.074219 380.101562 C 499.941406 380.230469 499.894531 380.425781 499.957031 380.601562 L 502.808594 388.839844 L 503.144531 389.808594 L 506.921875 400.722656 C 506.992188 400.914062 507.175781 401.046875 507.378906 401.046875 C 507.382812 401.046875 507.382812 401.046875 507.382812 401.046875 C 507.585938 401.046875 507.769531 400.917969 507.839844 400.722656 L 511.132812 391.386719 C 513.722656 393.125 525.558594 401.820312 526.355469 415.800781 C 526.527344 418.882812 526.09375 421.347656 525.324219 423.320312 C 524.648438 422.980469 523.96875 422.671875 523.28125 422.398438 C 517.105469 419.933594 512.453125 421.820312 510.347656 424.1875 C 508.714844 426.015625 508.328125 428.308594 509.335938 430.167969 C 510.359375 432.066406 513.816406 432.738281 517.375 431.730469 C 520.59375 430.820312 523.875 428.546875 525.761719 424.648438 C 533.308594 428.804688 539.683594 436.988281 538.265625 444.394531 C 537.796875 446.832031 536.472656 448.746094 534.320312 450.078125 C 525.738281 455.394531 506.769531 450.179688 506.578125 450.125 C 506.320312 450.054688 506.054688 450.207031 505.980469 450.460938 C 505.910156 450.71875 506.058594 450.988281 506.316406 451.0625 C 506.835938 451.207031 515.027344 453.460938 523.140625 453.460938 C 527.445312 453.460938 531.726562 452.824219 534.828125 450.90625 C 537.21875 449.421875 538.699219 447.292969 539.21875 444.574219 C 540.722656 436.722656 534.050781 428.085938 526.152344 423.757812 Z M 517.109375 430.796875 C 514.027344 431.664062 510.988281 431.191406 510.1875 429.707031 C 509.382812 428.214844 509.722656 426.347656 511.070312 424.832031 C 512.328125 423.421875 514.605469 422.210938 517.660156 422.210938 C 519.222656 422.210938 520.988281 422.527344 522.921875 423.300781 C 523.597656 423.570312 524.273438 423.875 524.9375 424.210938 C 522.75 428.78125 518.703125 430.34375 517.109375 430.796875 Z M 517.109375 430.796875 " fill-opacity="1" fill-rule="nonzero"/></g></svg>