<svg xmlns="http://www.w3.org/2000/svg" xmlns:xlink="http://www.w3.org/1999/xlink" width="1080" zoomAndPan="magnify" viewBox="0 0 810 809.999993" height="1080" preserveAspectRatio="xMidYMid meet" version="1.0"><defs><clipPath id="5c2bd093a9"><path d="M 379.363281 403 L 564.382812 403 L 564.382812 598.484375 L 379.363281 598.484375 Z M 379.363281 403 " clip-rule="nonzero"/></clipPath><clipPath id="f1f52b1d5f"><path d="M 377.265625 506 L 563.964844 506 L 563.964844 598.484375 L 377.265625 598.484375 Z M 377.265625 506 " clip-rule="nonzero"/></clipPath></defs><path fill="#661c2d" d="M 465.878906 375.714844 C 460.152344 372.738281 454.019531 371.667969 448.089844 370.632812 L 446.570312 370.371094 C 439.652344 369.144531 432.601562 368.15625 425.777344 367.207031 C 423.871094 366.9375 421.941406 366.667969 420.011719 366.386719 L 416.167969 368.78125 C 419.03125 369.203125 421.878906 369.609375 424.707031 370.003906 L 424.675781 370.003906 C 412.34375 370.003906 264.496094 486.640625 256.671875 496.019531 C 248.839844 505.402344 245.675781 521.324219 256.671875 543.789062 C 267.660156 566.253906 302.546875 570.402344 305.703125 570.402344 C 308.863281 570.402344 355.292969 578.910156 363.949219 580.871094 C 372.601562 582.835938 378.003906 586.46875 378.003906 586.46875 C 386.0625 583.707031 394.03125 530.046875 412.710938 484.242188 C 431.390625 438.433594 466.472656 386.511719 466.472656 377.570312 C 466.628906 376.800781 466.367188 375.96875 465.878906 375.714844 " fill-opacity="1" fill-rule="nonzero"/><path fill="#77192e" d="M 318.0625 509.109375 C 318.0625 509.109375 314.832031 515.875 312.285156 522.507812 C 311.46875 524.640625 310.699219 526.804688 310.148438 528.6875 C 310.148438 528.6875 305.292969 525.023438 301.710938 525.023438 C 298.148438 525.023438 287.160156 523.488281 282.769531 525.230469 C 281.40625 525.753906 280.328125 526.171875 279.492188 526.523438 L 279.449219 526.523438 C 277.601562 527.222656 276.898438 527.429688 276.898438 527.429688 C 284.59375 512.144531 294.722656 501.253906 294.722656 501.253906 L 318.0625 509.109375 " fill-opacity="1" fill-rule="nonzero"/><path fill="#87172f" d="M 344.851562 508.234375 C 344.851562 508.234375 343.734375 510.886719 342.394531 515.109375 C 342.085938 516.089844 341.777344 517.132812 341.449219 518.253906 C 340.109375 522.925781 338.765625 528.828125 338.238281 534.933594 C 338.195312 535.390625 338.148438 535.839844 338.128906 536.296875 L 338.109375 536.542969 L 338.085938 536.542969 L 335.867188 536.050781 C 336.503906 534.410156 335.359375 531.722656 334.371094 530.328125 C 332.238281 527.464844 329.601562 525.753906 327.074219 524.21875 C 326.832031 524.078125 326.589844 523.9375 326.351562 523.800781 C 319.621094 519.789062 312.679688 516.648438 305.648438 514.378906 C 295.140625 511.027344 286.898438 510.746094 279.734375 513.503906 C 278.8125 513.851562 277.953125 514.273438 277.140625 514.726562 C 274.085938 516.402344 271.753906 518.703125 270.195312 521.671875 L 268.835938 521.359375 L 267.691406 521.113281 C 272.0625 510.367188 278.789062 501.609375 284.546875 495.5 C 285.777344 494.171875 286.964844 492.984375 288.0625 491.902344 C 292.523438 487.609375 295.777344 485.273438 295.777344 485.273438 L 344.851562 508.234375 " fill-opacity="1" fill-rule="nonzero"/><path fill="#981a2f" d="M 374.347656 500.105469 C 373.824219 502.582031 369.800781 510.222656 365.558594 520.207031 C 365.160156 521.183594 364.746094 522.160156 364.304688 523.207031 C 361.535156 529.945312 358.8125 537.585938 357.027344 545.300781 L 356.964844 545.542969 C 356.171875 548.960938 353.097656 550.152344 348.457031 549.695312 C 350.589844 549.59375 352.722656 549 354.019531 546.765625 C 355.449219 544.359375 355.449219 540.449219 354.832031 537.65625 C 354.042969 534.164062 352.285156 531.234375 350.832031 529.105469 C 343.207031 517.796875 333.140625 511.308594 325.226562 506.910156 C 307.972656 497.382812 293.007812 493.824219 279.425781 496.019531 C 273.578125 496.964844 269.207031 498.914062 265.710938 502.199219 C 264.679688 503.140625 263.714844 504.257812 262.851562 505.441406 C 261.425781 504.46875 260.636719 503.941406 260.636719 503.941406 C 264.28125 498.148438 268.613281 492.460938 273.121094 487.15625 C 274.589844 485.375 276.105469 483.667969 277.601562 481.992188 C 291.183594 466.949219 304.746094 455.886719 304.746094 455.886719 C 304.746094 455.886719 375.25 495.742188 374.347656 500.105469 " fill-opacity="1" fill-rule="nonzero"/><path fill="#df1e26" d="M 459.820312 351.257812 C 459.136719 352.652344 458.328125 353.769531 457.425781 354.675781 C 406.765625 427.722656 388.613281 535.105469 369.183594 557.164062 C 368.546875 557.96875 367.886719 558.632812 367.183594 559.15625 C 367.183594 559.15625 365.757812 558.734375 363.183594 557.96875 C 365.359375 556.921875 367.886719 555.175781 369.382812 551.964844 C 370.789062 548.960938 371.269531 544.777344 370.742188 540.449219 C 370.304688 536.890625 369.207031 533.152344 367.335938 529.035156 C 363.378906 520.347656 357.601562 512.769531 349.136719 505.234375 C 323.644531 482.550781 294.195312 476.71875 268.304688 489.214844 C 259.03125 493.71875 253.292969 500.453125 251.273438 509.316406 C 250.988281 510.507812 250.789062 511.757812 250.65625 513.085938 C 249.40625 511.691406 248.8125 510.367188 249.007812 509.179688 C 249.007812 509.070312 249.027344 508.96875 249.054688 508.898438 C 249.121094 508.515625 249.230469 508.058594 249.339844 507.640625 C 249.824219 505.726562 250.65625 503.457031 251.824219 500.835938 C 260.195312 481.714844 285.335938 444.757812 313.691406 399.769531 C 346.898438 346.996094 346.875 338.691406 356.984375 312.519531 C 358.898438 304.140625 364.128906 297.824219 372.570312 293.777344 C 394.855469 282.992188 420.214844 288.019531 442.152344 307.527344 C 449.535156 314.085938 454.609375 320.753906 458.105469 328.46875 C 459.820312 332.273438 460.875 335.796875 461.292969 339.25 C 461.84375 343.683594 461.292969 348.078125 459.820312 351.257812 " fill-opacity="1" fill-rule="nonzero"/><path fill="#a71c2f" d="M 379.050781 585.261719 C 378.894531 585.992188 378.457031 586.480469 378 586.480469 C 377.886719 586.480469 377.777344 586.445312 377.667969 586.378906 C 371.09375 582.953125 363.929688 581.699219 357.007812 580.511719 L 355.207031 580.195312 C 347.027344 578.734375 338.679688 577.582031 330.589844 576.429688 C 318.722656 574.789062 306.457031 573.082031 294.4375 570.425781 C 284.917969 568.332031 276.546875 564.601562 269.515625 559.296875 C 260.042969 552.136719 252.855469 541.144531 249.777344 529.105469 C 247.976562 521.914062 247.753906 514.484375 249.207031 508.128906 C 251.472656 498.183594 257.691406 490.714844 267.667969 485.863281 C 270.921875 484.292969 274.238281 483.003906 277.601562 481.992188 C 301.46875 474.835938 327.402344 481.921875 350.214844 502.199219 C 356.722656 507.992188 361.710938 513.820312 365.558594 520.207031 C 366.875 522.40625 368.0625 524.671875 369.117188 527.011719 C 371.160156 531.515625 372.414062 535.703125 372.921875 539.785156 C 373.558594 545.089844 372.921875 550.289062 371.160156 554.023438 C 368.878906 558.910156 365.007812 560.902344 362.304688 561.984375 C 352.679688 565.820312 342.722656 564.773438 333.097656 563.761719 L 296.417969 559.921875 C 286.742188 558.910156 275.753906 557.757812 266.632812 549.207031 C 260.285156 543.207031 254.390625 531.515625 255.582031 518.808594 C 256.0625 513.433594 257.886719 508.167969 260.636719 503.941406 C 261.800781 502.164062 263.117188 500.558594 264.589844 499.199219 C 268.371094 495.671875 273.03125 493.539062 279.207031 492.566406 C 282.085938 492.078125 285.054688 491.871094 288.0625 491.902344 C 299.558594 492.042969 312.042969 495.917969 325.953125 503.628906 C 330.941406 506.382812 336.789062 509.980469 342.394531 515.109375 C 345.910156 518.285156 349.3125 522.058594 352.351562 526.558594 C 353.953125 528.964844 355.953125 532.285156 356.898438 536.503906 C 357.558594 539.507812 357.601562 542.613281 357.027344 545.300781 L 356.964844 545.542969 C 356.675781 546.90625 356.21875 548.128906 355.625 549.171875 C 353.421875 552.945312 350 553.257812 346.941406 553.257812 C 323.117188 553.222656 299.011719 550.535156 275.40625 545.023438 C 273.539062 544.601562 271.207031 544.042969 269.292969 541.949219 C 265.097656 537.308594 265.074219 527.257812 267.691406 521.113281 C 269.164062 517.695312 271.335938 514.902344 274.21875 512.84375 C 275.6875 511.726562 277.359375 510.816406 279.207031 510.121094 C 286.703125 507.257812 295.25 507.503906 306.085938 510.957031 C 313.492188 513.332031 320.8125 516.683594 327.867188 520.941406 C 330.433594 522.507812 333.40625 524.464844 335.777344 527.675781 C 337.207031 529.59375 338.238281 532.351562 338.238281 534.933594 C 338.195312 535.390625 338.148438 535.839844 338.128906 536.296875 C 338.128906 536.398438 338.109375 536.472656 338.085938 536.542969 C 337.972656 537.199219 337.777344 537.792969 337.488281 538.390625 C 336.128906 541.144531 333.621094 540.867188 332.4375 540.726562 C 328.570312 540.726562 324.613281 540.308594 320.699219 539.75 C 318.785156 539.507812 316.878906 539.191406 314.984375 538.914062 C 312.546875 538.527344 310.109375 538.148438 307.691406 537.832031 C 299.011719 536.714844 290.28125 535.492188 281.710938 534.164062 C 280.632812 534.027344 278.988281 533.746094 277.863281 531.933594 C 276.679688 530.046875 276.679688 528.441406 276.898438 527.429688 C 277.316406 525.511719 278.726562 524.535156 280.4375 523.90625 C 281.273438 523.589844 282.175781 523.382812 283.074219 523.171875 C 283.425781 523.105469 283.691406 523.035156 283.867188 522.996094 C 285.449219 522.472656 287.03125 522.089844 288.636719 521.847656 C 289.910156 521.636719 291.183594 521.535156 292.457031 521.496094 C 298.128906 521.460938 303.863281 523.070312 309.515625 526.453125 C 310.085938 526.765625 310.371094 527.78125 310.148438 528.6875 C 309.953125 529.59375 309.316406 530.046875 308.746094 529.699219 C 303.84375 526.765625 298.855469 525.230469 293.910156 525.023438 C 293.425781 524.988281 292.964844 524.988281 292.480469 524.988281 C 290.898438 525.023438 289.316406 525.164062 287.753906 525.511719 C 286.613281 525.722656 285.449219 526.03125 284.324219 526.417969 C 284.109375 526.488281 283.777344 526.558594 283.359375 526.625 C 279.886719 527.398438 279.117188 528.164062 278.988281 528.582031 C 278.988281 528.582031 279.054688 528.898438 279.425781 529.492188 C 279.953125 530.328125 280.902344 530.539062 281.933594 530.710938 C 290.480469 532 299.207031 533.222656 307.863281 534.339844 C 308.941406 534.480469 310.039062 534.621094 311.140625 534.796875 C 312.5 535.003906 313.84375 535.214844 315.207031 535.421875 C 320.898438 536.328125 326.808594 537.238281 332.503906 537.238281 C 333.84375 537.378906 335.207031 537.378906 335.777344 536.226562 L 335.867188 536.050781 C 336.503906 534.410156 335.359375 531.722656 334.371094 530.328125 C 332.238281 527.464844 329.601562 525.753906 327.074219 524.21875 C 320.128906 520 312.917969 516.714844 305.648438 514.378906 C 295.140625 511.027344 286.898438 510.746094 279.734375 513.503906 C 278.8125 513.851562 277.953125 514.273438 277.140625 514.726562 C 274.085938 516.402344 271.753906 518.703125 270.195312 521.671875 C 269.953125 522.125 269.710938 522.578125 269.515625 523.070312 C 267.492188 527.847656 267.492188 535.703125 270.546875 539.085938 C 271.933594 540.589844 273.644531 541.078125 275.734375 541.5625 C 299.226562 547.078125 323.207031 549.800781 346.941406 549.765625 C 347.445312 549.765625 347.953125 549.765625 348.457031 549.695312 C 350.589844 549.59375 352.722656 549 354.019531 546.765625 C 355.449219 544.359375 355.449219 540.449219 354.832031 537.65625 C 354.042969 534.164062 352.285156 531.234375 350.832031 529.105469 C 347.976562 524.847656 344.765625 521.289062 341.449219 518.253906 C 335.953125 513.226562 330.171875 509.667969 325.226562 506.910156 C 310.109375 498.566406 296.769531 494.796875 284.546875 495.5 C 282.808594 495.570312 281.117188 495.742188 279.425781 496.019531 C 273.578125 496.964844 269.207031 498.914062 265.710938 502.199219 C 264.679688 503.140625 263.714844 504.257812 262.851562 505.441406 C 260.0625 509.316406 258.21875 514.238281 257.757812 519.335938 C 256.722656 530.398438 262.042969 540.796875 267.757812 546.207031 C 276.414062 554.335938 287.121094 555.457031 296.566406 556.429688 L 333.25 560.269531 C 342.675781 561.28125 352.457031 562.292969 361.777344 558.59375 C 364.148438 557.652344 367.535156 555.90625 369.382812 551.964844 C 370.789062 548.960938 371.269531 544.777344 370.742188 540.449219 C 370.304688 536.890625 369.207031 533.152344 367.335938 529.035156 C 366.4375 527.011719 365.425781 525.089844 364.304688 523.207031 C 360.589844 516.855469 355.644531 511.027344 349.136719 505.234375 C 325.207031 483.945312 297.800781 477.488281 273.121094 487.15625 C 271.492188 487.746094 269.886719 488.449219 268.304688 489.214844 C 259.03125 493.71875 253.292969 500.453125 251.273438 509.316406 C 250.019531 514.863281 250.21875 521.429688 251.824219 527.78125 C 254.679688 539.015625 261.472656 549.378906 270.460938 556.152344 C 277.269531 561.28125 285.449219 564.949219 294.746094 566.972656 C 306.699219 569.589844 318.941406 571.296875 330.789062 572.972656 C 338.875 574.09375 347.25 575.277344 355.449219 576.710938 L 357.25 577.023438 C 364.28125 578.28125 371.558594 579.539062 378.347656 583.0625 C 378.921875 583.375 379.226562 584.351562 379.050781 585.261719 " fill-opacity="1" fill-rule="nonzero"/><g clip-path="url(#5c2bd093a9)"><path fill="#235d3c" d="M 554.378906 410.683594 C 546.457031 408.230469 539.039062 407.464844 531.863281 406.730469 L 530.03125 406.535156 C 521.652344 405.664062 513.25 405 505.121094 404.359375 C 502.847656 404.179688 500.542969 403.996094 498.242188 403.808594 L 495.148438 406.019531 C 498.574219 406.3125 501.96875 406.585938 505.335938 406.851562 L 505.304688 406.851562 C 491.480469 407.207031 384.769531 514.007812 380.742188 522.480469 C 376.710938 530.953125 381.226562 545.039062 404.917969 564.46875 C 428.605469 583.902344 469.816406 586.535156 473.355469 586.441406 C 476.898438 586.351562 533.25 592.484375 543.945312 593.960938 C 554.636719 595.4375 562.53125 598.472656 562.53125 598.472656 C 570.171875 595.8125 551.941406 548.417969 549.703125 507.613281 C 547.464844 466.808594 560.503906 420.15625 555.984375 412.296875 C 555.773438 411.613281 555.050781 410.890625 554.378906 410.683594 " fill-opacity="1" fill-rule="nonzero"/></g><path fill="#1f693e" d="M 456.1875 532.207031 C 456.1875 532.207031 455.996094 538.253906 456.492188 544.15625 C 456.660156 546.050781 456.886719 547.976562 457.230469 549.648438 C 457.230469 549.648438 449.925781 546.566406 445.914062 546.667969 C 441.921875 546.769531 428.824219 545.742188 424.785156 547.402344 C 423.515625 547.902344 422.527344 548.300781 421.765625 548.632812 L 421.714844 548.636719 C 420 549.296875 419.316406 549.503906 419.316406 549.503906 C 420.203125 535.84375 426.050781 525.980469 426.050781 525.980469 L 456.1875 532.207031 " fill-opacity="1" fill-rule="nonzero"/><path fill="#19743e" d="M 485.78125 530.667969 C 485.78125 530.667969 485.863281 533.03125 486.5 536.777344 C 486.648438 537.648438 486.835938 538.578125 487.03125 539.570312 C 487.894531 543.71875 489.375 548.941406 491.878906 554.324219 C 492.058594 554.726562 492.234375 555.125 492.445312 555.527344 L 492.542969 555.738281 L 492.515625 555.738281 L 489.78125 555.375 C 489.664062 553.914062 487.023438 551.585938 485.207031 550.386719 C 481.367188 547.933594 477.550781 546.507812 473.9375 545.230469 C 473.597656 545.117188 473.257812 545 472.914062 544.882812 C 463.339844 541.550781 453.96875 538.992188 444.9375 537.199219 C 431.464844 534.558594 422.082031 534.550781 415.445312 537.179688 C 414.589844 537.515625 413.839844 537.910156 413.160156 538.332031 C 410.582031 539.890625 409.136719 541.984375 408.886719 544.636719 L 407.199219 544.398438 L 405.796875 544.21875 C 405.261719 534.644531 408.367188 526.75 411.730469 521.214844 C 412.433594 520.011719 413.167969 518.933594 413.851562 517.953125 C 416.679688 514.050781 419.140625 511.898438 419.140625 511.898438 L 485.78125 530.667969 " fill-opacity="1" fill-rule="nonzero"/><path fill="#128144" d="M 514.726562 522.664062 C 515.390625 524.855469 514.75 531.695312 515.046875 540.589844 C 515.097656 541.460938 515.125 542.328125 515.160156 543.265625 C 515.464844 549.265625 516.277344 556.0625 518.1875 562.890625 L 518.234375 563.109375 C 519.078125 566.136719 516.230469 567.273438 510.800781 567.003906 C 513.140625 566.855469 515.226562 566.269531 515.550781 564.269531 C 515.9375 562.109375 513.957031 558.675781 511.855469 556.238281 C 509.199219 553.195312 505.746094 550.667969 503.042969 548.839844 C 488.773438 539.117188 474.203125 533.707031 463.109375 530.066406 C 438.945312 522.195312 420.367188 519.496094 406.253906 521.820312 C 400.175781 522.820312 396.261719 524.664062 394.007812 527.652344 C 393.324219 528.507812 392.804688 529.515625 392.445312 530.585938 C 390.351562 529.765625 389.199219 529.332031 389.199219 529.332031 C 390.355469 524.132812 392.332031 519.007812 394.695312 514.214844 C 395.449219 512.601562 396.28125 511.058594 397.105469 509.542969 C 404.71875 495.929688 414.324219 485.808594 414.324219 485.808594 C 414.324219 485.808594 513.527344 518.804688 514.726562 522.664062 " fill-opacity="1" fill-rule="nonzero"/><path fill="#00a650" d="M 537.816406 572.972656 C 537.710938 573.253906 537.574219 573.5 537.398438 573.746094 C 537.328125 573.847656 537.257812 573.984375 537.1875 574.09375 C 537.011719 574.335938 536.804688 574.582031 536.59375 574.789062 C 536.59375 574.789062 535.234375 574.542969 532.753906 574.09375 C 532.371094 574.023438 531.953125 573.917969 531.496094 573.847656 C 531.636719 573.777344 531.8125 573.707031 531.953125 573.601562 C 532.128906 573.5 532.335938 573.394531 532.507812 573.253906 C 532.617188 573.183594 532.722656 573.113281 532.824219 573.042969 C 533.070312 572.871094 533.3125 572.695312 533.558594 572.449219 C 533.734375 572.277344 533.90625 572.136719 534.046875 571.929688 C 534.183594 571.785156 534.292969 571.648438 534.394531 571.476562 C 534.570312 571.265625 534.710938 571.019531 534.847656 570.777344 L 534.917969 570.636719 C 535.023438 570.394531 535.128906 570.148438 535.164062 569.867188 C 535.335938 569.414062 535.40625 568.925781 535.40625 568.402344 C 535.480469 565.714844 533.875 562.015625 531.117188 558.246094 C 529.75 556.398438 528.113281 554.515625 526.121094 552.523438 C 524.761719 551.164062 523.226562 549.765625 521.515625 548.300781 C 520.503906 547.425781 519.457031 546.589844 518.410156 545.75 C 517.363281 544.914062 516.28125 544.078125 515.167969 543.277344 L 515.167969 543.238281 C 514.257812 542.574219 513.3125 541.914062 512.339844 541.253906 C 511.398438 540.550781 510.417969 539.890625 509.40625 539.261719 C 508.425781 538.597656 507.414062 537.933594 506.371094 537.308594 C 505.113281 536.503906 503.789062 535.738281 502.460938 534.96875 C 501.171875 534.203125 499.84375 533.46875 498.484375 532.734375 C 497.539062 532.210938 496.5625 531.6875 495.585938 531.199219 C 494.675781 530.710938 493.765625 530.222656 492.828125 529.769531 C 491.570312 529.140625 490.351562 528.511719 489.058594 527.921875 C 460.644531 514.273438 434.261719 508.167969 413.25 509.980469 C 412.410156 510.050781 411.574219 510.121094 410.734375 510.222656 C 409.652344 510.367188 408.570312 510.507812 407.558594 510.679688 C 407.035156 510.746094 406.515625 510.855469 405.988281 510.957031 C 405.1875 511.097656 404.421875 511.234375 403.652344 511.449219 C 401.558594 511.898438 399.53125 512.460938 397.578125 513.121094 C 396.597656 513.433594 395.625 513.785156 394.683594 514.207031 C 394.15625 514.378906 393.632812 514.625 393.144531 514.832031 C 392.171875 515.25 391.261719 515.703125 390.355469 516.160156 C 382.222656 520.378906 379.21875 526.488281 381.417969 534.339844 C 381.734375 535.421875 382.117188 536.503906 382.640625 537.65625 C 382.117188 537.378906 381.660156 537.097656 381.242188 536.820312 C 380.023438 535.980469 379.21875 535.175781 378.871094 534.445312 L 378.800781 534.273438 C 378.765625 534.164062 378.730469 534.09375 378.730469 534.027344 C 378.664062 533.785156 378.59375 533.570312 378.523438 533.328125 C 378.484375 533.152344 378.417969 533.015625 378.417969 532.839844 C 377.960938 531.128906 377.753906 529.140625 377.753906 526.835938 L 377.753906 526.386719 C 377.753906 525.652344 377.753906 524.917969 377.789062 524.117188 C 378.417969 506.421875 387.386719 474.523438 395.941406 436.238281 C 398.035156 426.777344 399.566406 418.894531 400.613281 412.191406 C 404.871094 385.320312 401.871094 376.910156 400.335938 358.273438 C 398.242188 350.871094 400.894531 345.148438 408.292969 341.34375 C 427.839844 331.226562 458.796875 334.925781 493.277344 351.429688 C 501.726562 355.476562 508.84375 359.632812 515.128906 364.132812 C 517.433594 365.84375 519.667969 367.554688 521.761719 369.371094 C 522.390625 369.925781 523.015625 370.484375 523.609375 371.007812 C 524.203125 371.535156 524.761719 372.058594 525.320312 372.582031 L 525.320312 372.613281 C 525.601562 372.859375 525.773438 373.03125 525.984375 373.277344 C 526.613281 373.90625 527.203125 374.535156 527.765625 375.125 C 528.042969 375.441406 528.320312 375.71875 528.566406 376 L 528.671875 376.105469 C 529.023438 376.523438 529.402344 376.976562 529.71875 377.394531 C 530.105469 377.851562 530.484375 378.304688 530.800781 378.757812 C 531.988281 380.363281 532.964844 382.003906 533.664062 383.535156 C 534.710938 385.703125 535.234375 387.691406 535.195312 389.367188 C 535.164062 390.585938 534.816406 391.597656 534.253906 392.4375 C 532.863281 397.042969 531.742188 401.753906 530.871094 406.605469 C 518.96875 471.03125 547.691406 554.40625 537.816406 572.972656 " fill-opacity="1" fill-rule="nonzero"/><g clip-path="url(#f1f52b1d5f)"><path fill="#0b8e4a" d="M 563.097656 597.378906 C 563.296875 598.03125 563.050781 598.472656 562.53125 598.484375 C 562.410156 598.488281 562.265625 598.460938 562.109375 598.402344 C 553.011719 595.585938 544.347656 594.691406 535.984375 593.847656 L 533.804688 593.621094 C 523.898438 592.570312 513.953125 591.800781 504.300781 591.019531 C 490.167969 589.921875 475.554688 588.777344 460.734375 586.792969 C 449.011719 585.222656 437.734375 582.1875 427.164062 577.726562 C 412.921875 571.710938 399.304688 562.257812 389.761719 551.761719 C 384.101562 545.492188 380.097656 538.964844 378.507812 533.339844 C 376.011719 524.535156 379.203125 517.785156 387.933594 513.234375 C 390.785156 511.757812 393.851562 510.53125 397.105469 509.542969 C 420.242188 502.5625 452.902344 508.039062 488.734375 525.207031 C 498.960938 530.109375 507.503906 535.085938 515.046875 540.589844 C 517.636719 542.484375 520.117188 544.445312 522.480469 546.46875 C 527.050781 550.367188 530.574219 554.011719 533.210938 557.585938 C 536.605469 562.230469 538.523438 566.820312 538.445312 570.152344 C 538.355469 574.515625 535.023438 576.375 532.542969 577.402344 C 523.691406 581.058594 512.003906 580.425781 500.699219 579.8125 L 457.636719 577.5 C 446.285156 576.890625 433.382812 576.195312 418.835938 568.941406 C 408.671875 563.851562 396.152344 553.742188 391.054688 542.542969 C 388.875 537.808594 388.253906 533.121094 389.199219 529.332031 C 389.601562 527.734375 390.269531 526.28125 391.230469 525.042969 C 393.683594 521.832031 397.828125 519.832031 404.257812 518.789062 C 407.238281 518.277344 410.460938 518.007812 413.851562 517.953125 C 426.808594 517.742188 442.761719 520.785156 462.261719 527.164062 C 469.25 529.441406 477.621094 532.433594 486.5 536.777344 C 492.050781 539.46875 497.773438 542.6875 503.453125 546.554688 C 506.472656 548.625 510.394531 551.480469 513.589844 555.164062 C 515.847656 557.785156 517.46875 560.515625 518.1875 562.890625 L 518.234375 563.109375 C 518.605469 564.3125 518.707031 565.402344 518.570312 566.335938 C 518.011719 569.71875 514.332031 570.089844 510.90625 570.179688 C 484.179688 570.835938 455.792969 569.171875 426.542969 565.011719 C 424.234375 564.695312 421.34375 564.273438 418.136719 562.488281 C 411.082031 558.527344 405.972656 549.691406 405.796875 544.21875 C 405.714844 541.171875 406.742188 538.65625 408.925781 536.757812 C 410.011719 535.734375 411.425781 534.890625 413.144531 534.222656 C 420.097656 531.488281 429.800781 531.457031 443.695312 534.179688 C 453.203125 536.054688 463.101562 538.785156 473.167969 542.324219 C 476.839844 543.628906 481.15625 545.261719 485.441406 548.015625 C 488.015625 549.664062 490.570312 552.054688 491.878906 554.324219 C 492.058594 554.726562 492.234375 555.125 492.445312 555.527344 L 492.515625 555.738281 C 492.730469 556.328125 492.808594 556.851562 492.789062 557.386719 C 492.65625 559.847656 489.703125 559.671875 488.300781 559.585938 C 483.964844 559.695312 479.320312 559.441406 474.652344 559.066406 C 472.386719 558.90625 470.082031 558.683594 467.824219 558.496094 C 464.894531 558.230469 461.964844 557.964844 459.097656 557.753906 C 448.796875 557.023438 438.398438 556.203125 428.121094 555.285156 C 426.84375 555.195312 424.851562 554.996094 422.675781 553.433594 C 420.394531 551.808594 419.585938 550.402344 419.316406 549.503906 C 418.8125 547.804688 419.894531 546.90625 421.496094 546.304688 C 422.277344 546.003906 423.179688 545.796875 424.082031 545.582031 C 424.445312 545.511719 424.707031 545.445312 424.882812 545.40625 C 426.394531 544.898438 427.972656 544.519531 429.648438 544.253906 C 430.96875 544.039062 432.347656 543.90625 433.757812 543.835938 C 440.09375 543.644531 447.339844 544.890625 455.386719 547.699219 C 456.183594 547.964844 457.015625 548.84375 457.230469 549.648438 C 457.464844 550.449219 456.984375 550.867188 456.164062 550.578125 C 449.1875 548.144531 442.816406 546.933594 437.167969 546.894531 C 436.609375 546.878906 436.089844 546.894531 435.546875 546.90625 C 433.792969 546.984375 432.089844 547.152344 430.515625 547.503906 C 429.339844 547.722656 428.191406 548.027344 427.132812 548.402344 C 426.921875 548.46875 426.585938 548.539062 426.152344 548.609375 C 422.648438 549.390625 422.175781 550.085938 422.238281 550.457031 C 422.238281 550.457031 422.472656 550.734375 423.191406 551.242188 C 424.207031 551.960938 425.375 552.117188 426.617188 552.246094 C 436.859375 553.128906 447.257812 553.953125 457.527344 554.683594 C 458.804688 554.773438 460.109375 554.867188 461.429688 554.984375 C 463.0625 555.132812 464.667969 555.277344 466.304688 555.417969 C 473.140625 556.054688 480.230469 556.679688 486.613281 556.515625 C 488.1875 556.597656 489.710938 556.558594 489.773438 555.53125 L 489.78125 555.375 C 489.664062 553.914062 487.023438 551.585938 485.207031 550.386719 C 481.367188 547.933594 477.550781 546.507812 473.9375 545.230469 C 464.019531 541.71875 454.273438 539.042969 444.9375 537.199219 C 431.464844 534.558594 422.082031 534.550781 415.445312 537.179688 C 414.589844 537.515625 413.839844 537.910156 413.160156 538.332031 C 410.582031 539.890625 409.136719 541.984375 408.886719 544.636719 C 408.84375 545.042969 408.804688 545.449219 408.828125 545.882812 C 408.980469 550.144531 412.960938 557.046875 418.097656 559.933594 C 420.40625 561.210938 422.574219 561.59375 425.164062 561.960938 C 454.289062 566.128906 482.550781 567.828125 509.140625 567.113281 C 509.703125 567.09375 510.273438 567.082031 510.800781 567.003906 C 513.140625 566.855469 515.226562 566.269531 515.550781 564.269531 C 515.9375 562.109375 513.957031 558.675781 511.855469 556.238281 C 509.199219 553.195312 505.746094 550.667969 503.042969 548.839844 C 497.6875 545.175781 492.289062 542.140625 487.03125 539.570312 C 478.328125 535.3125 470.046875 532.351562 463.109375 530.066406 C 441.933594 523.171875 425.074219 520.25 411.730469 521.214844 C 409.816406 521.324219 408.011719 521.527344 406.253906 521.820312 C 400.175781 522.820312 396.261719 524.664062 394.007812 527.652344 C 393.324219 528.507812 392.804688 529.515625 392.445312 530.585938 C 391.277344 534.070312 391.699219 538.449219 393.761719 542.941406 C 398.203125 552.695312 409.425781 561.683594 418.566406 566.273438 C 432.390625 573.171875 444.953125 573.84375 456.042969 574.429688 L 499.105469 576.738281 C 510.1875 577.359375 521.664062 577.964844 530.238281 574.445312 C 532.421875 573.546875 535.332031 571.914062 535.40625 568.394531 C 535.464844 565.71875 533.886719 562.019531 531.105469 558.234375 C 528.808594 555.117188 525.6875 551.863281 521.511719 548.300781 C 519.476562 546.546875 517.371094 544.886719 515.160156 543.265625 C 507.78125 537.789062 499.289062 532.808594 489.066406 527.90625 C 451.460938 509.882812 417.46875 505 394.695312 514.214844 C 393.175781 514.78125 391.726562 515.441406 390.34375 516.164062 C 382.222656 520.386719 379.203125 526.476562 381.421875 534.324219 C 382.824219 539.242188 386.367188 545 391.382812 550.535156 C 400.269531 560.332031 413.132812 569.246094 426.636719 574.9375 C 436.867188 579.25 447.886719 582.238281 459.335938 583.746094 C 474.058594 585.699219 488.648438 586.851562 502.777344 587.976562 C 512.410156 588.726562 522.394531 589.527344 532.308594 590.550781 L 534.488281 590.769531 C 543.011719 591.671875 551.796875 592.566406 561.199219 595.46875 C 561.996094 595.726562 562.835938 596.582031 563.097656 597.378906 " fill-opacity="1" fill-rule="nonzero"/></g><path fill="#b71e2d" d="M 377.648438 528.617188 C 375.449219 520.625 372.660156 513.921875 335.625 489.984375 C 335.625 489.984375 335.625 489.984375 335.628906 489.980469 C 337.710938 491.148438 339.832031 492.238281 341.976562 493.234375 C 351.984375 497.527344 362.84375 500.296875 374.453125 501.3125 C 376.597656 501.5 378.753906 501.660156 380.90625 501.804688 C 379.148438 510.640625 378 518.179688 377.789062 524.117188 C 377.230469 526.246094 377.472656 527.882812 377.648438 528.617188 " fill-opacity="1" fill-rule="nonzero"/><path fill="#07984d" d="M 532.511719 573.269531 C 532.511719 573.265625 532.511719 573.261719 532.507812 573.253906 C 532.617188 573.183594 532.722656 573.113281 532.824219 573.042969 C 532.945312 572.960938 533.058594 572.875 533.175781 572.785156 C 532.964844 572.957031 532.742188 573.121094 532.511719 573.269531 M 537.933594 572.75 C 538.238281 572 538.425781 571.144531 538.445312 570.152344 C 538.523438 566.820312 536.605469 562.230469 533.210938 557.585938 C 531.363281 555.078125 529.070312 552.535156 526.292969 549.894531 C 527.523438 525.570312 518.40625 510.957031 518.375 510.886719 C 517.71875 512.65625 516.769531 513.625 515.574219 513.625 C 514.675781 513.625 513.632812 513.070312 512.472656 511.898438 C 506.472656 505.898438 495.6875 505.0625 495.6875 505.0625 C 496.421875 508.863281 496.523438 511.9375 496.28125 514.414062 C 495.304688 524.078125 488.742188 525.195312 488.742188 525.195312 C 486.441406 524.046875 477.398438 519.648438 465.183594 515.425781 C 464.699219 515.21875 464.207031 515.042969 463.679688 514.902344 C 450.792969 510.484375 434.652344 506.355469 419.371094 506.355469 C 415.324219 506.355469 411.339844 506.640625 407.488281 507.292969 C 406.898438 507.363281 406.304688 507.46875 405.746094 507.574219 C 405.644531 507.59375 405.546875 507.609375 405.445312 507.628906 C 402.546875 508.105469 399.765625 508.738281 397.105469 509.542969 C 393.851562 510.53125 390.785156 511.757812 387.933594 513.234375 C 385.3125 514.601562 383.195312 516.164062 381.574219 517.921875 C 379.34375 520.136719 378.273438 522.3125 377.789062 524.117188 C 378 518.179688 379.148438 510.640625 380.90625 501.804688 C 391.394531 502.488281 401.976562 502.65625 412.53125 502.65625 C 414.636719 502.65625 416.738281 502.648438 418.839844 502.640625 C 425.226562 502.605469 431.8125 502.550781 438.492188 502.550781 C 442.382812 502.550781 446.304688 502.566406 450.234375 502.625 L 452.589844 502.65625 C 461.664062 502.769531 471.117188 502.953125 481.089844 505.007812 C 481.226562 505.042969 481.351562 505.0625 481.46875 505.0625 C 481.496094 505.0625 481.523438 505.0625 481.554688 505.0625 C 481.828125 505.035156 482.03125 504.917969 482.144531 504.734375 C 488.945312 499.742188 471.289062 457.941406 472.355469 423.445312 C 475.808594 395.386719 507.335938 378.394531 517.066406 365.589844 C 518.691406 366.820312 520.257812 368.066406 521.761719 369.371094 C 522.390625 369.925781 523.015625 370.484375 523.609375 371.007812 C 524.203125 371.535156 524.761719 372.089844 525.320312 372.613281 C 525.601562 372.859375 525.773438 373.03125 525.984375 373.277344 C 526.613281 373.90625 527.203125 374.535156 527.765625 375.125 C 528.042969 375.441406 528.320312 375.71875 528.566406 376 L 528.671875 376.105469 C 529.023438 376.523438 529.402344 376.976562 529.71875 377.394531 C 530.105469 377.851562 530.484375 378.304688 530.800781 378.757812 C 531.988281 380.363281 532.964844 382.003906 533.664062 383.535156 C 534.675781 385.632812 535.199219 387.566406 535.199219 389.210938 C 535.199219 389.261719 535.199219 389.3125 535.195312 389.367188 C 535.164062 390.585938 534.816406 391.597656 534.253906 392.4375 C 532.863281 397.042969 531.742188 401.753906 530.871094 406.605469 C 528.765625 418.011719 527.929688 430.007812 527.929688 442.132812 C 527.929688 488.148438 539.929688 536.019531 539.921875 560.378906 C 539.921875 565.726562 539.34375 569.9375 537.933594 572.75 M 518.375 403.257812 C 517.886719 403.957031 517.433594 404.582031 516.945312 405.316406 C 515.933594 406.78125 514.882812 408.386719 513.800781 410.0625 C 495.199219 439.027344 515.546875 472.460938 518.375 489.984375 C 518.480469 490.648438 518.582031 491.273438 518.652344 491.9375 C 518.96875 468.484375 519.285156 428.59375 518.375 403.257812 M 533.492188 572.515625 C 533.511719 572.496094 533.535156 572.472656 533.558594 572.449219 C 533.644531 572.363281 533.734375 572.285156 533.816406 572.199219 C 533.710938 572.3125 533.601562 572.417969 533.492188 572.515625 M 533.921875 572.089844 C 533.964844 572.039062 534.007812 571.988281 534.046875 571.929688 C 534.183594 571.785156 534.292969 571.648438 534.394531 571.476562 C 534.503906 571.34375 534.597656 571.199219 534.6875 571.054688 C 534.46875 571.433594 534.210938 571.777344 533.921875 572.089844 M 535.121094 570.09375 C 535.140625 570.019531 535.152344 569.945312 535.164062 569.867188 C 535.214844 569.742188 535.253906 569.613281 535.28125 569.484375 C 535.242188 569.691406 535.183594 569.898438 535.121094 570.09375 M 534.015625 563.046875 C 533.296875 561.511719 532.3125 559.886719 531.117188 558.246094 C 530.296875 557.140625 529.382812 556.015625 528.351562 554.871094 C 529.378906 556.011719 530.292969 557.132812 531.105469 558.234375 C 532.316406 559.878906 533.296875 561.511719 534.015625 563.046875 " fill-opacity="1" fill-rule="nonzero"/><path fill="#1b743c" d="M 536.59375 574.789062 C 536.59375 574.789062 535.234375 574.542969 532.753906 574.09375 C 532.683594 573.816406 532.582031 573.542969 532.511719 573.269531 C 532.742188 573.121094 532.964844 572.957031 533.175781 572.785156 C 533.28125 572.703125 533.386719 572.617188 533.492188 572.515625 C 533.601562 572.417969 533.710938 572.3125 533.816406 572.199219 C 533.851562 572.167969 533.886719 572.128906 533.921875 572.089844 C 534.210938 571.777344 534.46875 571.433594 534.6875 571.054688 C 534.742188 570.960938 534.796875 570.867188 534.847656 570.777344 L 534.917969 570.636719 C 534.996094 570.457031 535.070312 570.28125 535.121094 570.09375 C 535.183594 569.898438 535.242188 569.691406 535.28125 569.484375 C 535.367188 569.140625 535.40625 568.777344 535.40625 568.402344 C 535.445312 566.882812 534.949219 565.042969 534.015625 563.046875 C 533.296875 561.511719 532.316406 559.878906 531.105469 558.234375 C 530.292969 557.132812 529.378906 556.011719 528.351562 554.871094 C 527.664062 554.101562 526.921875 553.320312 526.121094 552.523438 C 526.195312 551.632812 526.253906 550.757812 526.292969 549.894531 C 529.070312 552.535156 531.363281 555.078125 533.210938 557.585938 C 536.605469 562.230469 538.523438 566.820312 538.445312 570.152344 C 538.425781 571.144531 538.238281 572 537.933594 572.75 C 537.894531 572.828125 537.855469 572.902344 537.816406 572.972656 C 537.710938 573.253906 537.574219 573.5 537.398438 573.746094 C 537.328125 573.847656 537.257812 573.984375 537.1875 574.09375 C 537.011719 574.335938 536.804688 574.582031 536.59375 574.789062 M 381.574219 517.921875 C 383.195312 516.164062 385.3125 514.601562 387.933594 513.234375 C 390.785156 511.757812 393.851562 510.53125 397.105469 509.542969 C 399.765625 508.738281 402.546875 508.105469 405.445312 507.628906 C 402.289062 508.246094 399.523438 508.957031 397.019531 509.734375 C 393.632812 510.746094 390.84375 511.898438 388.503906 513.085938 C 386.511719 514.097656 384.875 515.148438 383.511719 516.230469 C 383.058594 516.609375 382.535156 516.996094 382.117188 517.417969 C 381.945312 517.554688 381.800781 517.730469 381.628906 517.867188 C 381.609375 517.886719 381.589844 517.90625 381.574219 517.921875 " fill-opacity="1" fill-rule="nonzero"/><path fill="#b58e1d" d="M 518.214844 355.53125 C 504.398438 344.339844 490.367188 339.300781 479.460938 336.953125 L 477.105469 336.671875 C 467.921875 336.625 459.882812 338.035156 452.4375 340.503906 C 450.367188 341.1875 448.269531 342.09375 446.167969 343.054688 L 442.3125 347.339844 C 445.441406 345.820312 448.546875 344.382812 451.621094 343.078125 L 451.589844 343.089844 C 438.332031 350.796875 305.914062 432.40625 301.316406 439.011719 C 296.894531 445.941406 300.273438 459.511719 321.777344 479.203125 C 343.285156 498.894531 383.351562 500.871094 386.917969 500.601562 C 390.480469 500.332031 449.628906 501.597656 461.261719 502.140625 C 472.890625 502.683594 481.554688 505.050781 481.554688 505.050781 C 489.886719 501.957031 471.261719 458.847656 472.355469 423.445312 C 476.421875 390.390625 519.4375 372.703125 519.910156 359.117188 C 520 358.183594 519.335938 356.441406 518.214844 355.53125 " fill-opacity="1" fill-rule="nonzero"/><path fill="#be991b" d="M 372.804688 454.738281 C 372.804688 454.738281 371.992188 459.652344 371.945312 464.523438 C 371.957031 466.101562 372.027344 467.710938 372.238281 469.113281 C 372.238281 469.113281 365.289062 466.546875 361.367188 466.558594 C 357.472656 466.570312 344.9375 465.082031 340.964844 466.230469 C 339.730469 466.570312 338.757812 466.847656 338.015625 467.074219 L 337.96875 467.070312 C 336.296875 467.523438 335.636719 467.644531 335.636719 467.644531 C 337.507812 456.015625 344.078125 448.40625 344.078125 448.40625 L 372.804688 454.738281 " fill-opacity="1" fill-rule="nonzero"/><path fill="#c9a019" d="M 402.839844 452.042969 C 402.839844 452.042969 402.667969 453.949219 402.925781 456.945312 C 402.992188 457.640625 403.089844 458.390625 403.195312 459.183594 C 403.699219 462.546875 404.792969 466.789062 406.984375 471.136719 C 407.144531 471.464844 407.304688 471.785156 407.488281 472.109375 L 407.578125 472.285156 L 407.554688 472.289062 L 404.746094 472.21875 C 404.722656 470.980469 402.167969 469.226562 400.390625 468.359375 C 396.648438 466.589844 392.867188 465.65625 389.3125 464.8125 C 388.972656 464.734375 388.644531 464.664062 388.308594 464.585938 C 378.984375 462.230469 369.917969 460.265625 361.292969 458.496094 C 348.414062 455.863281 339.414062 455.105469 332.867188 456.671875 C 332.023438 456.871094 331.28125 457.128906 330.601562 457.414062 C 328.046875 458.484375 326.53125 460.144531 326.113281 462.433594 L 324.542969 462.046875 L 323.234375 461.738281 C 323.433594 453.335938 327.078125 447.035156 330.863281 442.898438 C 331.675781 442.019531 332.5 441.242188 333.273438 440.539062 C 336.484375 437.800781 339.152344 436.429688 339.152344 436.429688 L 402.839844 452.042969 " fill-opacity="1" fill-rule="nonzero"/><path fill="#d3aa15" d="M 433.855469 442.085938 C 434.296875 443.78125 432.886719 449.511719 432.347656 456.9375 C 432.328125 457.667969 432.277344 458.402344 432.242188 459.191406 C 432.09375 464.300781 432.496094 470.109375 434.144531 475.921875 L 434.191406 476.105469 C 434.949219 478.714844 431.863281 480.03125 426.109375 480.347656 C 428.597656 479.972656 430.839844 479.238281 431.277344 477.425781 C 431.789062 475.46875 429.875 472.660156 427.789062 470.761719 C 425.183594 468.414062 421.722656 466.625 419.058594 465.355469 C 405.03125 458.660156 390.695312 455.351562 379.933594 452.910156 C 357.023438 446.328125 339.351562 442.59375 325.601562 442.566406 C 319.679688 442.554688 315.796875 443.507812 313.394531 445.722656 C 312.683594 446.363281 312.109375 447.160156 311.683594 448.042969 C 309.777344 447.003906 308.726562 446.445312 308.726562 446.445312 C 310.253906 442.097656 312.605469 438.042969 315.367188 434.445312 C 316.265625 433.253906 317.25 432.132812 318.230469 431.054688 C 327.625 421.847656 338.992188 416.191406 338.992188 416.191406 C 338.992188 416.191406 433.0625 439.132812 433.855469 442.085938 " fill-opacity="1" fill-rule="nonzero"/><path fill="#fbcf06" d="M 490.3125 325.117188 C 489.894531 326.027344 489.128906 326.683594 488.117188 327.140625 C 444.316406 391.707031 467.210938 463.460938 454.851562 482.96875 C 454.472656 483.667969 454.015625 484.261719 453.457031 484.75 C 453.457031 484.75 451.5 484.644531 447.976562 484.402344 C 450.070312 483.316406 452.234375 481.644531 452.375 478.988281 C 452.550781 476.546875 451.011719 473.371094 448.222656 470.300781 C 445.953125 467.789062 442.8125 465.308594 438.585938 462.722656 C 431.363281 458.328125 423.195312 454.769531 413.421875 451.277344 C 411.328125 450.511719 409.164062 449.777344 406.898438 449.011719 C 368.816406 436.308594 334.335938 429.78125 310.984375 435.296875 C 302.890625 437.421875 299.539062 442.308594 301.074219 449.707031 C 301.285156 450.722656 301.59375 451.769531 302.015625 452.921875 C 300.09375 451.523438 298.945312 450.304688 298.628906 449.292969 C 298.597656 449.183594 298.597656 449.113281 298.558594 449.046875 C 298.488281 448.734375 298.417969 448.347656 298.351562 447.964844 C 298.070312 446.359375 298.003906 444.511719 298.179688 442.414062 C 299.363281 427.335938 313.777344 403.398438 333.707031 377.464844 C 362.535156 340.679688 361.417969 331.398438 371.402344 301.558594 C 373.496094 290.007812 380.230469 283.203125 391.261719 281.632812 C 420.4375 274.546875 449.199219 283.378906 469.898438 297.582031 C 470.554688 297.929688 471.1875 298.277344 471.8125 298.664062 L 471.921875 298.734375 C 477.75 302.117188 481.761719 305.746094 484.625 309.96875 C 486.371094 312.308594 487.765625 314.574219 488.707031 316.882812 C 490.417969 319.949219 491.1875 323.054688 490.3125 325.117188 " fill-opacity="1" fill-rule="nonzero"/><path fill="#ddb212" d="M 482.15625 503.949219 C 482.382812 504.566406 482.117188 505.011719 481.554688 505.0625 C 481.417969 505.070312 481.261719 505.054688 481.089844 505.007812 C 471.117188 502.953125 461.664062 502.769531 452.589844 502.65625 L 450.234375 502.625 C 439.566406 502.472656 428.949219 502.585938 418.839844 502.640625 C 404.03125 502.714844 389.121094 502.59375 374.453125 501.3125 C 362.84375 500.296875 351.984375 497.527344 341.976562 493.234375 C 328.699219 487.058594 316.289062 477.359375 307.859375 466.738281 C 302.917969 460.296875 299.550781 453.765625 298.4375 448.394531 C 296.695312 440.019531 300.257812 434.609375 309.011719 432.363281 C 311.898438 431.679688 314.980469 431.246094 318.230469 431.054688 C 341.632812 429.394531 372.785156 435.890625 406.523438 447.394531 C 416.523438 450.238281 424.917969 453.289062 432.355469 456.949219 C 434.929688 458.214844 437.398438 459.570312 439.769531 461.019531 C 444.355469 463.820312 447.894531 466.59375 450.515625 469.460938 C 453.941406 473.25 455.816406 477.214844 455.605469 480.289062 C 455.375 484.324219 451.726562 486.378906 449.023438 487.574219 C 439.425781 491.800781 426.972656 492.304688 415.066406 492.742188 L 371.359375 493.242188 C 360.285156 492.835938 347.910156 492.042969 334.304688 484.898438 C 324.953125 479.59375 313.703125 469.25 309.5625 458.480469 C 307.816406 453.933594 307.554688 449.65625 308.726562 446.445312 C 309.234375 445.109375 309.984375 443.949219 311.003906 443.03125 C 313.617188 440.675781 317.753906 439.667969 323.988281 439.835938 C 326.898438 439.863281 330.011719 440.117188 333.285156 440.484375 C 345.789062 441.882812 360.933594 445.40625 379.507812 450.398438 C 386.167969 452.1875 394.304688 454.109375 402.925781 456.945312 C 408.382812 458.640625 414.027344 460.734375 419.640625 463.382812 C 422.640625 464.800781 426.5625 466.804688 429.695312 469.636719 C 431.933594 471.671875 433.503906 473.886719 434.144531 475.921875 L 434.191406 476.105469 C 434.527344 477.136719 434.582031 478.097656 434.394531 478.949219 C 433.667969 482.03125 429.730469 482.746094 426.09375 483.164062 C 398.203125 486.054688 369.765625 485.933594 341.75 481.710938 C 339.542969 481.378906 336.820312 480.835938 333.871094 479.042969 C 327.414062 474.972656 323.066406 466.609375 323.234375 461.738281 C 323.367188 459.050781 324.519531 456.976562 326.726562 455.597656 C 327.835938 454.84375 329.246094 454.285156 330.933594 453.902344 C 337.800781 452.359375 347.117188 453.1875 360.378906 455.960938 C 369.449219 457.863281 379.007812 459.964844 388.816406 462.414062 C 392.394531 463.308594 396.652344 464.371094 400.828125 466.332031 C 403.335938 467.515625 405.789062 469.320312 406.984375 471.136719 C 407.144531 471.464844 407.304688 471.785156 407.488281 472.109375 L 407.554688 472.289062 C 407.734375 472.773438 407.785156 473.214844 407.730469 473.675781 C 407.449219 475.808594 404.40625 475.914062 402.960938 475.949219 C 398.496094 476.382812 393.765625 476.492188 389.050781 476.464844 C 386.761719 476.449219 384.457031 476.378906 382.199219 476.316406 C 379.285156 476.207031 376.382812 476.074219 373.570312 475.933594 C 363.472656 475.433594 353.445312 474.527344 343.660156 473.28125 C 342.449219 473.128906 340.566406 472.835938 338.59375 471.328125 C 336.519531 469.742188 335.835938 468.449219 335.640625 467.644531 C 335.273438 466.125 336.355469 465.433594 337.921875 465.039062 C 338.679688 464.84375 339.550781 464.730469 340.425781 464.617188 C 340.777344 464.585938 341.027344 464.542969 341.203125 464.527344 C 342.675781 464.203125 344.214844 463.980469 345.835938 463.867188 C 347.121094 463.761719 348.449219 463.730469 349.8125 463.753906 C 355.949219 463.875 362.890625 465.109375 370.5625 467.496094 C 371.332031 467.707031 372.085938 468.441406 372.238281 469.113281 C 372.414062 469.789062 371.90625 470.148438 371.125 469.90625 C 364.441406 467.867188 358.324219 466.734375 352.863281 466.507812 C 352.324219 466.464844 351.824219 466.453125 351.300781 466.441406 C 349.609375 466.425781 347.960938 466.476562 346.429688 466.691406 C 345.292969 466.804688 344.171875 467 343.136719 467.25 C 342.929688 467.296875 342.605469 467.332031 342.191406 467.371094 C 338.804688 467.796875 338.3125 468.367188 338.351562 468.699219 C 338.351562 468.699219 338.554688 468.953125 339.207031 469.449219 C 340.125 470.144531 341.222656 470.355469 342.402344 470.542969 C 352.140625 471.820312 362.15625 472.78125 372.191406 473.359375 C 373.441406 473.429688 374.730469 473.480469 376.03125 473.546875 C 377.644531 473.621094 379.238281 473.695312 380.871094 473.75 C 387.699219 473.96875 394.859375 474.070312 401.40625 473.449219 C 403.019531 473.398438 404.601562 473.234375 404.722656 472.347656 L 404.746094 472.21875 C 404.722656 470.980469 402.167969 469.226562 400.390625 468.359375 C 396.648438 466.589844 392.867188 465.65625 389.339844 464.773438 C 379.640625 462.347656 370.214844 460.3125 361.292969 458.488281 C 348.414062 455.863281 339.414062 455.105469 332.867188 456.671875 C 332.023438 456.871094 331.28125 457.128906 330.601562 457.414062 C 328.046875 458.484375 326.53125 460.144531 326.113281 462.433594 C 326.046875 462.785156 325.980469 463.136719 325.976562 463.523438 C 325.867188 467.300781 329.238281 473.796875 333.9375 476.757812 C 336.058594 478.050781 338.09375 478.523438 340.566406 478.910156 C 368.402344 483.300781 396.644531 483.535156 424.355469 480.597656 C 424.949219 480.539062 425.546875 480.46875 426.109375 480.347656 C 428.597656 479.972656 430.839844 479.238281 431.277344 477.425781 C 431.789062 475.46875 429.875 472.660156 427.789062 470.761719 C 425.183594 468.414062 421.722656 466.625 419.035156 465.351562 C 413.722656 462.832031 408.378906 460.832031 403.234375 459.15625 C 394.714844 456.386719 386.644531 454.476562 380.027344 452.695312 C 359.824219 447.253906 343.800781 443.699219 330.863281 442.902344 C 329.027344 442.730469 327.277344 442.644531 325.566406 442.636719 C 319.679688 442.554688 315.796875 443.507812 313.394531 445.722656 C 312.683594 446.363281 312.109375 447.160156 311.691406 448.050781 C 310.320312 450.9375 310.40625 454.894531 312.058594 459.179688 C 315.65625 468.507812 325.734375 477.6875 334.144531 482.472656 C 347.023438 489.296875 359.066406 490.121094 369.855469 490.554688 L 413.46875 490.117188 C 425.109375 489.6875 437.316406 489.152344 446.621094 485.074219 C 448.992188 484.03125 452.183594 482.234375 452.394531 479 C 452.554688 476.542969 451.023438 473.367188 448.21875 470.289062 C 445.9375 467.792969 442.796875 465.304688 438.59375 462.71875 C 436.554688 461.457031 434.449219 460.300781 432.253906 459.191406 C 424.953125 455.5 416.574219 452.402344 406.792969 449.148438 C 371.066406 437.261719 338.542969 430.863281 315.367188 434.445312 C 313.851562 434.640625 312.398438 434.925781 311.015625 435.292969 C 302.894531 437.4375 299.550781 442.296875 301.078125 449.722656 C 302.078125 454.390625 305.050781 460.128906 309.449219 465.730469 C 317.253906 475.679688 328.953125 484.828125 341.597656 490.539062 C 351.1875 494.867188 361.769531 497.613281 373.078125 498.617188 C 387.617188 499.90625 402.46875 500.03125 417.152344 499.988281 C 427.3125 499.875 437.953125 499.761719 448.613281 499.859375 L 450.96875 499.878906 C 460.203125 500.011719 469.777344 500.148438 480.0625 502.234375 C 480.9375 502.429688 481.863281 503.191406 482.15625 503.949219 " fill-opacity="1" fill-rule="nonzero"/><path fill="#e9bc0d" d="M 448.019531 484.402344 C 448.007812 484.402344 447.988281 484.402344 447.976562 484.402344 C 450.070312 483.316406 452.234375 481.644531 452.375 478.988281 C 452.382812 478.867188 452.386719 478.738281 452.386719 478.613281 C 452.390625 476.222656 450.875 473.214844 448.222656 470.300781 C 447.933594 469.980469 447.628906 469.65625 447.308594 469.335938 C 447.625 469.652344 447.929688 469.972656 448.21875 470.289062 C 451.023438 473.367188 452.554688 476.542969 452.394531 479 C 452.226562 481.628906 450.085938 483.308594 448.019531 484.402344 M 454.875 482.929688 C 455.28125 482.160156 455.550781 481.285156 455.605469 480.289062 C 455.816406 477.214844 453.941406 473.25 450.515625 469.460938 C 447.894531 466.59375 444.355469 463.820312 439.769531 461.019531 C 437.398438 459.570312 434.929688 458.214844 432.355469 456.949219 C 427.183594 454.398438 421.550781 452.152344 415.234375 450.0625 C 415.238281 450.058594 415.238281 450.058594 415.238281 450.058594 C 447.035156 447.617188 430.003906 418.785156 440.71875 381.933594 C 451.398438 345.082031 493.316406 316.496094 471.921875 298.734375 C 477.75 302.117188 481.761719 305.746094 484.625 309.96875 C 486.371094 312.308594 487.765625 314.574219 488.707031 316.882812 C 489.9375 319.082031 490.675781 321.300781 490.675781 323.140625 C 490.675781 323.867188 490.5625 324.535156 490.3125 325.117188 C 489.894531 326.027344 489.128906 326.683594 488.117188 327.140625 C 444.34375 391.660156 467.175781 463.363281 454.875 482.929688 M 441.863281 464.859375 C 440.851562 464.15625 439.761719 463.445312 438.585938 462.722656 C 436.550781 461.488281 434.441406 460.316406 432.242188 459.1875 C 431.894531 459.011719 431.546875 458.839844 431.195312 458.664062 C 431.550781 458.839844 431.90625 459.015625 432.253906 459.191406 C 434.449219 460.300781 436.554688 461.457031 438.59375 462.71875 C 439.765625 463.4375 440.851562 464.148438 441.863281 464.859375 " fill-opacity="1" fill-rule="nonzero"/><path fill="#cda118" d="M 453.457031 484.75 C 453.457031 484.75 451.515625 484.644531 448.019531 484.402344 C 450.085938 483.308594 452.226562 481.628906 452.394531 479 C 452.554688 476.542969 451.023438 473.367188 448.21875 470.289062 C 447.929688 469.972656 447.625 469.652344 447.308594 469.335938 C 445.828125 467.851562 444.023438 466.367188 441.863281 464.859375 C 440.851562 464.148438 439.765625 463.4375 438.59375 462.71875 C 436.554688 461.457031 434.449219 460.300781 432.253906 459.191406 C 431.90625 459.015625 431.550781 458.839844 431.195312 458.664062 C 425.863281 456.015625 420.011719 453.628906 413.421875 451.277344 C 414.511719 450.488281 415.164062 450.101562 415.234375 450.0625 C 421.550781 452.152344 427.183594 454.398438 432.355469 456.949219 C 434.929688 458.214844 437.398438 459.570312 439.769531 461.019531 C 444.355469 463.820312 447.894531 466.59375 450.515625 469.460938 C 453.941406 473.25 455.816406 477.214844 455.605469 480.289062 C 455.550781 481.285156 455.28125 482.160156 454.875 482.929688 C 454.867188 482.945312 454.859375 482.953125 454.851562 482.96875 C 454.472656 483.667969 454.015625 484.261719 453.457031 484.75 " fill-opacity="1" fill-rule="nonzero"/></svg>